<svg width="24" height="24" viewBox="0 0 24 24" fill="none" xmlns="http://www.w3.org/2000/svg">
<path d="M22.8867 6.48168L14.1094 0.627259C12.8564 -0.209086 11.1436 -0.209086 9.89062 0.627259L1.11328 6.48168C0.416016 6.94675 0 7.72447 0 8.56277V15.4255C0 16.2638 0.416016 17.0415 1.11328 17.5066L9.89062 23.361C10.5171 23.7792 11.2466 24 12 24C12.7534 24 13.4829 23.7792 14.1094 23.361L22.8867 17.5066C23.584 17.0415 24 16.2638 24 15.4255V8.56277C24 7.72447 23.584 6.94675 22.8867 6.48168ZM13 3.5C13 3.31689 13.1001 3.14893 13.2603 3.06104C13.4214 2.97363 13.6162 2.97998 13.7705 3.07959L20.7705 7.57959C20.9146 7.67187 21.001 7.83203 21 8.00342C20.999 8.17432 20.9102 8.33301 20.7651 8.42383L16.7651 10.9238C16.6841 10.9746 16.5918 11 16.5 11C16.4033 11 16.3066 10.9722 16.2227 10.916L13.2227 8.91602C13.0835 8.82324 13 8.66699 13 8.5V3.5ZM3.22949 7.57959L10.2295 3.07959C10.3823 2.97998 10.5786 2.97363 10.7397 3.06104C10.8999 3.14893 11 3.31689 11 3.5V8.5C11 8.66699 10.9165 8.82324 10.7773 8.91602L7.77734 10.916C7.69336 10.9722 7.59668 11 7.5 11C7.4082 11 7.31592 10.9746 7.23486 10.9238L3.23486 8.42383C3.08984 8.33301 3.00098 8.17432 3 8.00342C2.99902 7.83203 3.08545 7.67188 3.22949 7.57959ZM2.5 14C2.41504 14 2.33008 13.9785 2.25342 13.9351C2.09668 13.8462 2 13.6802 2 13.5V10.5C2 10.3198 2.09668 10.1538 2.25342 10.0649C2.41016 9.97607 2.60205 9.979 2.75732 10.0713L5.25732 11.5713C5.40771 11.6616 5.5 11.8242 5.5 12C5.5 12.1758 5.40771 12.3384 5.25732 12.4287L2.75732 13.9287C2.67822 13.9761 2.58887 14 2.5 14ZM11 20.5C11 20.6831 10.8999 20.8511 10.7397 20.939C10.6646 20.9795 10.5825 21 10.5 21C10.4058 21 10.3115 20.9736 10.2295 20.9204L3.22949 16.4204C3.08545 16.3281 2.99902 16.168 3 15.9966C3.00098 15.8257 3.08984 15.667 3.23486 15.5762L7.23486 13.0762C7.40088 12.9712 7.61377 12.9736 7.77734 13.084L10.7773 15.084C10.9165 15.1768 11 15.333 11 15.5V20.5ZM12 14.5C11.9033 14.5 11.8066 14.4722 11.7227 14.416L8.72266 12.416C8.5835 12.3232 8.5 12.167 8.5 12C8.5 11.833 8.5835 11.6768 8.72266 11.584L11.7227 9.58398C11.8906 9.47168 12.1094 9.47168 12.2773 9.58398L15.2773 11.584C15.4165 11.6768 15.5 11.833 15.5 12C15.5 12.167 15.4165 12.3232 15.2773 12.416L12.2773 14.416C12.1934 14.4722 12.0967 14.5 12 14.5ZM20.7705 16.4204L13.7705 20.9204C13.6885 20.9736 13.5942 21 13.5 21C13.4175 21 13.3354 20.9795 13.2603 20.939C13.1001 20.8511 13 20.6831 13 20.5V15.5C13 15.333 13.0835 15.1768 13.2227 15.084L16.2227 13.084C16.3872 12.9741 16.5991 12.9722 16.7651 13.0762L20.7651 15.5762C20.9102 15.667 20.999 15.8257 21 15.9966C21.001 16.168 20.9146 16.3281 20.7705 16.4204ZM22 13.5C22 13.6802 21.9033 13.8462 21.7466 13.9351C21.6699 13.9785 21.585 14 21.5 14C21.4111 14 21.3218 13.9761 21.2427 13.9287L18.7427 12.4287C18.5923 12.3384 18.5 12.1758 18.5 12C18.5 11.8242 18.5923 11.6616 18.7427 11.5713L21.2427 10.0713C21.3975 9.979 21.5903 9.97607 21.7466 10.0649C21.9033 10.1538 22 10.3198 22 10.5V13.5Z" fill="#313C42"/>
<path d="M22.8867 6.48168L14.1094 0.627259C12.8564 -0.209086 11.1436 -0.209086 9.89062 0.627259L1.11328 6.48168C0.416016 6.94675 0 7.72447 0 8.56277V15.4255C0 16.2638 0.416016 17.0415 1.11328 17.5066L9.89062 23.361C10.5171 23.7792 11.2466 24 12 24C12.7534 24 13.4829 23.7792 14.1094 23.361L22.8867 17.5066C23.584 17.0415 24 16.2638 24 15.4255V8.56277C24 7.72447 23.584 6.94675 22.8867 6.48168ZM13 3.5C13 3.31689 13.1001 3.14893 13.2603 3.06104C13.4214 2.97363 13.6162 2.97998 13.7705 3.07959L20.7705 7.57959C20.9146 7.67187 21.001 7.83203 21 8.00342C20.999 8.17432 20.9102 8.33301 20.7651 8.42383L16.7651 10.9238C16.6841 10.9746 16.5918 11 16.5 11C16.4033 11 16.3066 10.9722 16.2227 10.916L13.2227 8.91602C13.0835 8.82324 13 8.66699 13 8.5V3.5ZM3.22949 7.57959L10.2295 3.07959C10.3823 2.97998 10.5786 2.97363 10.7397 3.06104C10.8999 3.14893 11 3.31689 11 3.5V8.5C11 8.66699 10.9165 8.82324 10.7773 8.91602L7.77734 10.916C7.69336 10.9722 7.59668 11 7.5 11C7.4082 11 7.31592 10.9746 7.23486 10.9238L3.23486 8.42383C3.08984 8.33301 3.00098 8.17432 3 8.00342C2.99902 7.83203 3.08545 7.67188 3.22949 7.57959ZM2.5 14C2.41504 14 2.33008 13.9785 2.25342 13.9351C2.09668 13.8462 2 13.6802 2 13.5V10.5C2 10.3198 2.09668 10.1538 2.25342 10.0649C2.41016 9.97607 2.60205 9.979 2.75732 10.0713L5.25732 11.5713C5.40771 11.6616 5.5 11.8242 5.5 12C5.5 12.1758 5.40771 12.3384 5.25732 12.4287L2.75732 13.9287C2.67822 13.9761 2.58887 14 2.5 14ZM11 20.5C11 20.6831 10.8999 20.8511 10.7397 20.939C10.6646 20.9795 10.5825 21 10.5 21C10.4058 21 10.3115 20.9736 10.2295 20.9204L3.22949 16.4204C3.08545 16.3281 2.99902 16.168 3 15.9966C3.00098 15.8257 3.08984 15.667 3.23486 15.5762L7.23486 13.0762C7.40088 12.9712 7.61377 12.9736 7.77734 13.084L10.7773 15.084C10.9165 15.1768 11 15.333 11 15.5V20.5ZM12 14.5C11.9033 14.5 11.8066 14.4722 11.7227 14.416L8.72266 12.416C8.5835 12.3232 8.5 12.167 8.5 12C8.5 11.833 8.5835 11.6768 8.72266 11.584L11.7227 9.58398C11.8906 9.47168 12.1094 9.47168 12.2773 9.58398L15.2773 11.584C15.4165 11.6768 15.5 11.833 15.5 12C15.5 12.167 15.4165 12.3232 15.2773 12.416L12.2773 14.416C12.1934 14.4722 12.0967 14.5 12 14.5ZM20.7705 16.4204L13.7705 20.9204C13.6885 20.9736 13.5942 21 13.5 21C13.4175 21 13.3354 20.9795 13.2603 20.939C13.1001 20.8511 13 20.6831 13 20.5V15.5C13 15.333 13.0835 15.1768 13.2227 15.084L16.2227 13.084C16.3872 12.9741 16.5991 12.9722 16.7651 13.0762L20.7651 15.5762C20.9102 15.667 20.999 15.8257 21 15.9966C21.001 16.168 20.9146 16.3281 20.7705 16.4204ZM22 13.5C22 13.6802 21.9033 13.8462 21.7466 13.9351C21.6699 13.9785 21.585 14 21.5 14C21.4111 14 21.3218 13.9761 21.2427 13.9287L18.7427 12.4287C18.5923 12.3384 18.5 12.1758 18.5 12C18.5 11.8242 18.5923 11.6616 18.7427 11.5713L21.2427 10.0713C21.3975 9.979 21.5903 9.97607 21.7466 10.0649C21.9033 10.1538 22 10.3198 22 10.5V13.5Z" fill="url(#paint0_linear)"/>
<defs>
<linearGradient id="paint0_linear" x1="0.615364" y1="6.68672" x2="23.3836" y2="17.3037" gradientUnits="userSpaceOnUse">
<stop stop-color="white" stop-opacity="0.2"/>
<stop offset="1" stop-color="white" stop-opacity="0"/>
</linearGradient>
</defs>
</svg>
