<svg width="24" height="24" viewBox="0 0 24 24" fill="none" xmlns="http://www.w3.org/2000/svg">
<path d="M21 23H3C1.89543 23 1 22.1046 1 21V3C1 1.89543 1.89543 1 3 1H21C22.1046 1 23 1.89543 23 3V21C23 22.1046 22.1046 23 21 23Z" fill="#3C5A9A"/>
<path opacity="0.2" d="M21 1H3C1.89545 1 1 1.89539 1 3V3.25C1 2.14539 1.89545 1.25 3 1.25H21C22.1046 1.25 23 2.14539 23 3.25V3C23 1.89539 22.1046 1 21 1Z" fill="white"/>
<path d="M11 23V15H9.02081V12H11V10C11 7.79083 12.7908 6 15 6H18V9H15C14.4477 9 14 9.44769 14 10V12H18L17.5 15H14V23H11Z" fill="white"/>
<path opacity="0.1" d="M21 22.75H3C1.89545 22.75 1 21.8546 1 20.75V21C1 22.1046 1.89545 23 3 23H21C22.1046 23 23 22.1046 23 21V20.75C23 21.8546 22.1046 22.75 21 22.75Z" fill="#010101"/>
<path d="M18 6V9H15C14.4477 9 14 9.44769 14 10V12H18L17.5 15H14V23H21C22.1046 23 23 22.1046 23 21V10.9999L18 6Z" fill="url(#paint0_linear)"/>
<path d="M21 23H3C1.89543 23 1 22.1046 1 21V3C1 1.89543 1.89543 1 3 1H21C22.1046 1 23 1.89543 23 3V21C23 22.1046 22.1046 23 21 23Z" fill="url(#paint1_linear)"/>
<defs>
<linearGradient id="paint0_linear" x1="12.5429" y1="11.0429" x2="23.1642" y2="21.6642" gradientUnits="userSpaceOnUse">
<stop stop-color="#010101" stop-opacity="0.1"/>
<stop offset="1" stop-color="#010101" stop-opacity="0"/>
</linearGradient>
<linearGradient id="paint1_linear" x1="-0.652793" y1="6.09991" x2="24.6528" y2="17.9001" gradientUnits="userSpaceOnUse">
<stop stop-color="white" stop-opacity="0.2"/>
<stop offset="1" stop-color="white" stop-opacity="0"/>
</linearGradient>
</defs>
</svg>
