<svg width="24" height="24" viewBox="0 0 24 24" fill="none" xmlns="http://www.w3.org/2000/svg">
<path d="M6 17C8.76142 17 11 14.7614 11 12C11 9.23858 8.76142 7 6 7C3.23858 7 1 9.23858 1 12C1 14.7614 3.23858 17 6 17Z" fill="#21B3E8"/>
<path d="M18 17C20.7614 17 23 14.7614 23 12C23 9.23858 20.7614 7 18 7C15.2386 7 13 9.23858 13 12C13 14.7614 15.2386 17 18 17Z" fill="#EF548A"/>
<path opacity="0.2" d="M18 7.25C20.0416 7.25 21.8053 8.44617 22.6513 10.1651C21.917 8.31555 20.1078 7 18 7C15.8922 7 14.083 8.31555 13.3488 10.1651C14.1947 8.44617 15.9584 7.25 18 7.25Z" fill="white"/>
<path opacity="0.1" d="M18 16.75C15.9584 16.75 14.1947 15.5538 13.3487 13.8349C14.083 15.6844 15.8922 17 18 17C20.1078 17 21.917 15.6844 22.6512 13.8349C21.8053 15.5538 20.0416 16.75 18 16.75Z" fill="#010101"/>
<path opacity="0.2" d="M6 7.25C8.04163 7.25 9.8053 8.44617 10.6513 10.1651C9.917 8.31555 8.10779 7 6 7C3.89221 7 2.083 8.31555 1.34875 10.1651C2.1947 8.44617 3.95837 7.25 6 7.25Z" fill="white"/>
<path opacity="0.1" d="M6 16.75C3.95838 16.75 2.1947 15.5538 1.34875 13.8349C2.083 15.6844 3.89221 17 6 17C8.10779 17 9.917 15.6844 10.6513 13.8349C9.8053 15.5538 8.04163 16.75 6 16.75Z" fill="#010101"/>
<path d="M6 7C3.24316 7 1 9.24316 1 12C1 14.7568 3.24316 17 6 17C8.75684 17 11 14.7568 11 12C11 9.24316 8.75684 7 6 7ZM18 7C15.2432 7 13 9.24316 13 12C13 14.7568 15.2432 17 18 17C20.7568 17 23 14.7568 23 12C23 9.24316 20.7568 7 18 7Z" fill="url(#paint0_linear)"/>
<defs>
<linearGradient id="paint0_linear" x1="2.54039" y1="7.58891" x2="21.4596" y2="16.4111" gradientUnits="userSpaceOnUse">
<stop stop-color="white" stop-opacity="0.2"/>
<stop offset="1" stop-color="white" stop-opacity="0"/>
</linearGradient>
</defs>
</svg>
