<svg width="24" height="24" viewBox="0 0 24 24" fill="none" xmlns="http://www.w3.org/2000/svg">
<g clip-path="url(#clip0)">
<path d="M12 -3.05176e-05C5.3833 -3.05176e-05 0 5.38327 0 12C0 17.7383 3.94971 22.7802 9.3916 23.9883C9.53906 24.021 9.69434 23.9848 9.81299 23.8901C9.93115 23.7949 10 23.6518 10 23.5V20.5C10 20.2236 9.77637 20 9.5 20H8.5C7.31494 20 6.25684 18.5381 5.40625 17.3637C5.32227 17.2475 5.23926 17.1333 5.15723 17.0215C5.50635 17.185 5.84717 17.3559 6.13037 17.498C6.95068 17.9091 7.72559 18.2978 8.35938 18.4795C8.38721 18.4887 8.42139 18.5053 8.45947 18.5224C8.70361 18.6323 9.15723 18.8364 9.56396 18.5717C10 18.2895 10 17.6953 10 17.5V17.1513C10 16.9277 9.85156 16.7314 9.63623 16.6704C6.86328 15.8847 5 13.8071 5 11.5C5 10.3003 5.49268 9.15475 6.42529 8.18796C6.56885 8.03903 6.60596 7.81784 6.51904 7.63034C6.14697 6.82809 6.22559 5.73679 6.66748 5.08151C7.25098 5.30905 8.00781 5.7861 8.49951 6.37009C8.63477 6.53024 8.85693 6.5903 9.05371 6.51755C10.9287 5.83005 13.0713 5.83005 14.9463 6.51755C15.145 6.59128 15.3662 6.53073 15.5005 6.37009C15.9922 5.7861 16.749 5.30905 17.3325 5.08151C17.7744 5.73679 17.853 6.82809 17.481 7.63034C17.394 7.81784 17.4312 8.03903 17.5747 8.18796C18.5073 9.15475 19 10.3003 19 11.5C19 13.9218 16.9302 16.0908 13.9668 16.7739C13.8154 16.8091 13.689 16.9121 13.6245 17.0532C13.5601 17.1943 13.5645 17.3574 13.6372 17.4946C13.8848 17.9633 14 18.6006 14 19.5V23.5C14 23.6518 14.0688 23.7949 14.187 23.8901C14.2769 23.9619 14.3872 24 14.5 24C14.5361 24 14.5723 23.9961 14.6084 23.9883C20.0503 22.7802 24 17.7382 24 12C24 5.38327 18.6167 -3.05176e-05 12 -3.05176e-05Z" fill="#303C42"/>
<path opacity="0.2" d="M9.63623 16.9203C9.85156 16.9814 10 17.1777 10 17.4013V17.1513C10 16.9277 9.85156 16.7314 9.63623 16.6703C6.91486 15.8993 5.08038 13.8823 5.0127 11.6267C5.01154 11.6682 5 11.7083 5 11.7499C5 14.0571 6.86328 16.1347 9.63623 16.9203Z" fill="white"/>
<path opacity="0.2" d="M13.9668 17.0239C16.9302 16.3408 19 14.1718 19 11.7499C19 11.7072 18.9882 11.6659 18.9869 11.6232C18.9171 13.9944 16.8791 16.1025 13.9668 16.7739C13.8154 16.809 13.689 16.912 13.6245 17.0532C13.5763 17.1587 13.5794 17.2739 13.6081 17.3841C13.6153 17.3572 13.6128 17.3289 13.6245 17.3032C13.689 17.162 13.8154 17.059 13.9668 17.0239Z" fill="white"/>
<path opacity="0.2" d="M12 -6.10352e-05C5.3833 -6.10352e-05 0 5.38324 0 11.9999C0 12.0455 0.0053101 12.09 0.0057983 12.1354C0.0681763 5.57184 5.42194 0.249939 12 0.249939C18.5781 0.249939 23.9318 5.57184 23.9942 12.1354C23.9947 12.09 24 12.0455 24 11.9999C24 5.38324 18.6167 -6.10352e-05 12 -6.10352e-05Z" fill="white"/>
<path opacity="0.1" d="M9.3916 23.9883C9.53906 24.021 9.69434 23.9848 9.81299 23.8901C9.93115 23.7949 10 23.6518 10 23.5V23.25C10 23.4018 9.93115 23.5449 9.81299 23.6401C9.69434 23.7348 9.53906 23.771 9.3916 23.7383C3.99286 22.5398 0.0678101 17.567 0.0057983 11.8854C0.0054321 11.924 0 11.9613 0 12C0 17.7383 3.94971 22.7802 9.3916 23.9883Z" fill="#010101"/>
<path opacity="0.1" d="M14.6084 23.7383C14.5723 23.7461 14.5361 23.75 14.5 23.75C14.3872 23.75 14.2769 23.7119 14.187 23.6401C14.0688 23.5449 14 23.4018 14 23.25V23.5C14 23.6518 14.0688 23.7949 14.187 23.8901C14.2769 23.9619 14.3872 24 14.5 24C14.5361 24 14.5723 23.9961 14.6084 23.9883C20.0503 22.7802 24 17.7383 24 12C24 11.9613 23.9946 11.924 23.9942 11.8854C23.9322 17.567 20.0071 22.5398 14.6084 23.7383Z" fill="#010101"/>
<path opacity="0.1" d="M17.3325 4.83441C16.749 5.06195 15.9922 5.539 15.5005 6.12299C15.3662 6.28363 15.145 6.34418 14.9463 6.27045C13.0713 5.58295 10.9287 5.58295 9.05371 6.27045C8.85694 6.3432 8.63477 6.28314 8.49952 6.12299C8.00782 5.539 7.25098 5.06195 6.66748 4.83441C6.41523 5.2085 6.29718 5.72455 6.29798 6.24799C6.33338 5.8139 6.45588 5.39819 6.66748 5.08441C7.25098 5.31195 8.00782 5.789 8.49952 6.37299C8.63477 6.53314 8.85694 6.5932 9.05371 6.52045C10.9287 5.83295 13.0713 5.83295 14.9463 6.52045C15.145 6.59418 15.3662 6.53363 15.5005 6.37299C15.9922 5.789 16.749 5.31195 17.3325 5.08441C17.5441 5.39819 17.6666 5.8139 17.702 6.24799C17.7028 5.72455 17.5848 5.2085 17.3325 4.83441Z" fill="#010101"/>
<path d="M12 -3.05176e-05C5.3833 -3.05176e-05 0 5.38327 0 12C0 17.7383 3.94971 22.7802 9.3916 23.9883C9.53906 24.021 9.69434 23.9848 9.81299 23.8901C9.93115 23.7949 10 23.6518 10 23.5V20.5C10 20.2236 9.77637 20 9.5 20H8.5C7.31494 20 6.25684 18.5381 5.40625 17.3637C5.32227 17.2475 5.23926 17.1333 5.15723 17.0215C5.50635 17.185 5.84717 17.3559 6.13037 17.498C6.95068 17.9091 7.72559 18.2978 8.35938 18.4795C8.38721 18.4887 8.42139 18.5053 8.45947 18.5224C8.70361 18.6323 9.15723 18.8364 9.56396 18.5717C10 18.2895 10 17.6953 10 17.5V17.1513C10 16.9277 9.85156 16.7314 9.63623 16.6704C6.86328 15.8847 5 13.8071 5 11.5C5 10.3003 5.49268 9.15475 6.42529 8.18796C6.56885 8.03903 6.60596 7.81784 6.51904 7.63034C6.14697 6.82809 6.22559 5.73679 6.66748 5.08151C7.25098 5.30905 8.00781 5.7861 8.49951 6.37009C8.63477 6.53024 8.85693 6.5903 9.05371 6.51755C10.9287 5.83005 13.0713 5.83005 14.9463 6.51755C15.145 6.59128 15.3662 6.53073 15.5005 6.37009C15.9922 5.7861 16.749 5.30905 17.3325 5.08151C17.7744 5.73679 17.853 6.82809 17.481 7.63034C17.394 7.81784 17.4312 8.03903 17.5747 8.18796C18.5073 9.15475 19 10.3003 19 11.5C19 13.9218 16.9302 16.0908 13.9668 16.7739C13.8154 16.8091 13.689 16.9121 13.6245 17.0532C13.5601 17.1943 13.5645 17.3574 13.6372 17.4946C13.8848 17.9633 14 18.6006 14 19.5V23.5C14 23.6518 14.0688 23.7949 14.187 23.8901C14.2769 23.9619 14.3872 24 14.5 24C14.5361 24 14.5723 23.9961 14.6084 23.9883C20.0503 22.7802 24 17.7382 24 12C24 5.38327 18.6167 -3.05176e-05 12 -3.05176e-05Z" fill="url(#paint0_linear)"/>
</g>
<defs>
<linearGradient id="paint0_linear" x1="1.07434" y1="7.03731" x2="22.8646" y2="17.1983" gradientUnits="userSpaceOnUse">
<stop stop-color="white" stop-opacity="0.2"/>
<stop offset="1" stop-color="white" stop-opacity="0"/>
</linearGradient>
<clipPath id="clip0">
<rect width="24" height="24" fill="white"/>
</clipPath>
</defs>
</svg>
