<svg width="24" height="24" viewBox="0 0 24 24" fill="none" xmlns="http://www.w3.org/2000/svg">
<path d="M12 24C18.6274 24 24 18.6274 24 12C24 5.37258 18.6274 0 12 0C5.37258 0 0 5.37258 0 12C0 18.6274 5.37258 24 12 24Z" fill="url(#paint0_linear)"/>
<path d="M12 1C5.92487 1 1 5.92487 1 12C1 18.0751 5.92487 23 12 23C18.0751 23 23 18.0751 23 12C23 5.92487 18.0751 1 12 1ZM17 13.4551C17 13.4648 17 13.4746 17 13.4844C17 13.4893 17 13.4951 17 13.5V15.9551C17 16.8066 16.3906 17.5254 15.5518 17.6641L15.0176 17.7529C14.5127 17.834 14.0015 17.6943 13.6123 17.3652C13.2231 17.0361 13 16.5537 13 16.0439C13 15.1934 13.6089 14.4746 14.4478 14.334L15.3877 14.1777C15.7427 14.1191 16 13.8145 16 13.4551V8.57574L10 9.43372V14.4551C10 14.4648 10 14.4746 9.99951 14.4854C10 14.4902 10 14.4961 10 14.501V16.9551C10 17.8057 9.39111 18.5244 8.55225 18.665L8.01758 18.7539C7.92236 18.7695 7.82666 18.7773 7.73193 18.7773C7.32471 18.7773 6.92822 18.6338 6.6123 18.3662C6.22314 18.0371 6 17.5547 6 17.0449C6 16.1943 6.60889 15.4756 7.44775 15.335L8.3877 15.1787C8.74219 15.1191 9 14.8145 9 14.4551V6.5C9 6.25098 9.18311 6.04004 9.4292 6.00488L16.4292 5.00391C16.5732 4.98633 16.7183 5.02637 16.8276 5.12109C16.937 5.21582 17 5.35449 17 5.49902V13.4551Z" fill="#FAFAFA"/>
<path opacity="0.2" d="M12 1.25C15.5327 1.25 18.6836 2.83245 20.77 5.35912C18.7622 2.69909 15.5895 1 12 1C8.41046 1 5.2378 2.69909 3.23005 5.35912C5.31641 2.83245 8.46735 1.25 12 1.25Z" fill="white"/>
<path opacity="0.1" d="M12 22.75C8.46735 22.75 5.31641 21.1675 3.23005 18.6409C3.37269 18.8299 3.52121 19.014 3.67534 19.193C5.69071 21.5338 8.66548 23 12 23C15.3393 23 18.3179 21.5295 20.3334 19.1828C20.4844 19.007 20.63 18.8263 20.77 18.6409C18.6836 21.1675 15.5327 22.75 12 22.75Z" fill="#010101"/>
<path opacity="0.2" d="M12 0.25C17.3214 0.25 21.8379 3.67209 23.466 8.44919C21.9572 3.54623 17.3915 0 12 0C6.60852 0 2.04282 3.54623 0.534035 8.44919C2.16215 3.67209 6.67865 0.25 12 0.25Z" fill="white"/>
<path opacity="0.1" d="M12 23.75C7.02943 23.75 2.76108 20.7642 0.893055 16.4772C0.761229 16.1747 0.641357 15.8657 0.534035 15.5508C0.654856 15.9434 0.795279 16.3274 0.954159 16.7014C2.77934 20.999 7.04026 24 12 24C16.5498 24 20.5114 21.4746 22.5443 17.7397C22.7524 17.3572 22.9404 16.962 23.1067 16.5555C23.2408 16.2277 23.3608 15.8926 23.466 15.5508C23.2092 16.3042 22.8806 17.0239 22.4883 17.7018C20.3932 21.3222 16.4821 23.75 12 23.75Z" fill="#010101"/>
<path opacity="0.1" d="M7.44775 15.585L8.3877 15.4287C8.74219 15.3691 9 15.0645 9 14.7051V14.4551C9 14.8145 8.74219 15.1191 8.3877 15.1787L7.44775 15.335C6.60889 15.4756 6 16.1943 6 17.0449C6 17.0831 6.00977 17.1196 6.01227 17.1574C6.07458 16.3688 6.65515 15.7178 7.44775 15.585Z" fill="#010101"/>
<path opacity="0.1" d="M10 14.751V14.7051C10 14.7148 10 14.7246 9.99951 14.7354C10 14.7402 10 14.7461 10 14.751Z" fill="#010101"/>
<path opacity="0.1" d="M16.8276 5.1211C16.7183 5.02637 16.5732 4.98633 16.4292 5.00391L9.4292 6.00489C9.18311 6.04004 9 6.25098 9 6.5V6.75C9 6.50098 9.18311 6.29004 9.4292 6.25489L16.4292 5.25391C16.5732 5.23633 16.7183 5.27637 16.8276 5.3711C16.937 5.46582 17 5.6045 17 5.74903V5.49903C17 5.3545 16.937 5.21582 16.8276 5.1211Z" fill="#010101"/>
<path opacity="0.1" d="M14.4478 14.584L15.3877 14.4277C15.7427 14.3691 16 14.0645 16 13.7051V13.4551C16 13.8145 15.7427 14.1191 15.3877 14.1777L14.4478 14.334C13.6089 14.4746 13 15.1934 13 16.0439C13 16.0822 13.0098 16.1186 13.0123 16.1564C13.0746 15.3678 13.6552 14.7169 14.4478 14.584Z" fill="#010101"/>
<path d="M12 24C18.6274 24 24 18.6274 24 12C24 5.37258 18.6274 0 12 0C5.37258 0 0 5.37258 0 12C0 18.6274 5.37258 24 12 24Z" fill="url(#paint1_linear)"/>
<defs>
<linearGradient id="paint0_linear" x1="6.1438" y1="1.85677" x2="17.6796" y2="21.8374" gradientUnits="userSpaceOnUse">
<stop offset="0.0028864" stop-color="#EC5438"/>
<stop offset="0.307906" stop-color="#F16B94"/>
<stop offset="0.629629" stop-color="#9F3E97"/>
<stop offset="0.759413" stop-color="#8679B8"/>
<stop offset="0.875703" stop-color="#639FD5"/>
<stop offset="0.958464" stop-color="#3BB5E8"/>
<stop offset="1" stop-color="#19BEF0"/>
</linearGradient>
<linearGradient id="paint1_linear" x1="1.12171" y1="6.92737" x2="22.8783" y2="17.0726" gradientUnits="userSpaceOnUse">
<stop stop-color="white" stop-opacity="0.2"/>
<stop offset="1" stop-color="white" stop-opacity="0"/>
</linearGradient>
</defs>
</svg>
