<svg width="24" height="24" viewBox="0 0 24 24" fill="none" xmlns="http://www.w3.org/2000/svg">
<path d="M21 23H3C1.89543 23 1 22.1046 1 21V3C1 1.89543 1.89543 1 3 1H21C22.1046 1 23 1.89543 23 3V21C23 22.1046 22.1046 23 21 23Z" fill="#0377BD"/>
<path opacity="0.2" d="M21 1H3C1.89545 1 1 1.89539 1 3V3.25C1 2.14539 1.89545 1.25 3 1.25H21C22.1046 1.25 23 2.14539 23 3.25V3C23 1.89539 22.1046 1 21 1Z" fill="white"/>
<path opacity="0.1" d="M21 22.75H3C1.89545 22.75 1 21.8546 1 20.75V21C1 22.1046 1.89545 23 3 23H21C22.1046 23 23 22.1046 23 21V20.75C23 21.8546 22.1046 22.75 21 22.75Z" fill="#010101"/>
<path d="M6 8C7.10457 8 8 7.10457 8 6C8 4.89543 7.10457 4 6 4C4.89543 4 4 4.89543 4 6C4 7.10457 4.89543 8 6 8Z" fill="white"/>
<path d="M8 9H4V20H8V9Z" fill="white"/>
<path d="M15.5 9C14.416 9 13.6504 9.30566 13 9.81445V9H9V20H13V14C13 12.7476 13.5605 12 14.5 12C15.4395 12 16 12.7476 16 14V20H20V14C20 10.9624 18.2334 9 15.5 9Z" fill="white"/>
<path d="M18.8692 10.4736L18.8566 10.4738C19.5836 11.3385 20 12.5406 20 14V20H16V14C16 12.7476 15.4395 12 14.5 12C13.5605 12 13 12.7476 13 14V20H9V9H11.8217L7.45892 4.63721L7.45697 4.63885C7.7912 4.99646 8 5.47296 8 6C8 7.10303 7.10303 8 6 8C5.49994 8 5.04779 7.80914 4.69684 7.50482L6.19202 9H8V20H4L7 23H21C22.1046 23 23 22.1046 23 21V14.6044L18.8692 10.4736Z" fill="url(#paint0_linear)"/>
<path d="M21 23H3C1.89543 23 1 22.1046 1 21V3C1 1.89543 1.89543 1 3 1H21C22.1046 1 23 1.89543 23 3V21C23 22.1046 22.1046 23 21 23Z" fill="url(#paint1_linear)"/>
<defs>
<linearGradient id="paint0_linear" x1="4.14682" y1="7.94901" x2="20.5131" y2="24.3153" gradientUnits="userSpaceOnUse">
<stop stop-color="#010101" stop-opacity="0.1"/>
<stop offset="1" stop-color="#010101" stop-opacity="0"/>
</linearGradient>
<linearGradient id="paint1_linear" x1="-0.652793" y1="6.09991" x2="24.6528" y2="17.9001" gradientUnits="userSpaceOnUse">
<stop stop-color="white" stop-opacity="0.2"/>
<stop offset="1" stop-color="white" stop-opacity="0"/>
</linearGradient>
</defs>
</svg>
