<svg width="24" height="24" viewBox="0 0 24 24" fill="none" xmlns="http://www.w3.org/2000/svg">
<path d="M24 2.5V2H17.5L12.5 14L7.5 2H0V2.5L2 5.95453V18L0 21.5V22H7V21.5L4.5 18V10.2728L11 21.5H11.5L17 7.75V19L15 21.5V22H24V21.5L22 19V4.5L24 2.5Z" fill="#333333"/>
<path d="M24 2.5V2H17.5L12.5 14L7.5 2H0V2.5L2 5.95453V18L0 21.5V22H7V21.5L4.5 18V10.2728L11 21.5H11.5L17 7.75V19L15 21.5V22H24V21.5L22 19V4.5L24 2.5Z" fill="url(#paint0_linear)"/>
<defs>
<linearGradient id="paint0_linear" x1="-1.68695" y1="5.61767" x2="25.6869" y2="18.3823" gradientUnits="userSpaceOnUse">
<stop stop-color="white" stop-opacity="0.2"/>
<stop offset="1" stop-color="white" stop-opacity="0"/>
</linearGradient>
</defs>
</svg>
