<svg width="24" height="24" viewBox="0 0 24 24" fill="none" xmlns="http://www.w3.org/2000/svg">
<path d="M12 24C18.6274 24 24 18.6274 24 12C24 5.37258 18.6274 0 12 0C5.37258 0 0 5.37258 0 12C0 18.6274 5.37258 24 12 24Z" fill="#08A94E"/>
<path opacity="0.2" d="M12 0.25C17.3286 0.25 21.8441 3.69226 23.4706 8.47076C21.9633 3.56598 17.3988 0 12 0C6.6012 0 2.0368 3.56598 0.529419 8.47064C2.15594 3.69226 6.67139 0.25 12 0.25Z" fill="white"/>
<path opacity="0.1" d="M12 23.75C7.25491 23.75 3.16255 21.0514 1.17465 17.086C0.930214 16.5984 0.717597 16.0917 0.539497 15.5684C0.700313 16.0917 0.895812 16.5993 1.12332 17.0886C3.02824 21.1856 7.17719 24 12 24C16.6758 24 20.7214 21.3441 22.7004 17.4464C23.0064 16.8438 23.2629 16.2114 23.4648 15.5547C23.3362 15.9325 23.1895 16.3018 23.0259 16.6616C21.12 20.852 16.9073 23.75 12 23.75Z" fill="#010101"/>
<path d="M20.4209 9.37938C20.7637 9.61229 20.8535 10.0786 20.6201 10.4214C20.4756 10.6348 20.2393 10.75 19.999 10.75C19.8545 10.75 19.708 10.708 19.5791 10.6206C15.3467 7.74755 8.91699 7.73632 4.75 9.20702C4.52289 9.2882 4.28967 9.24242 4.1015 9.12157L4.09265 9.12676L6.2738 11.3079C11.6396 10.5597 15.5526 11.2694 18.792 13.5937C19.0156 13.7549 19.0674 14.0674 18.9062 14.2915C18.8086 14.4277 18.6553 14.5 18.5 14.5C18.3984 14.5 18.2969 14.4697 18.208 14.4062C14.9365 12.0571 10.8906 11.4668 5.08691 12.4922C4.94519 12.5174 4.8075 12.4764 4.69977 12.3944L4.69934 12.3945L7.12921 14.8244C10.4509 14.3744 14.4725 14.7642 17.2158 16.6933C17.3848 16.8125 17.4258 17.0464 17.3066 17.2158C17.2334 17.3193 17.1172 17.375 17 17.375C16.9248 17.375 16.8496 17.353 16.7842 17.3066C13.7402 15.166 8.96875 15.04 5.58887 15.8642C5.47821 15.8905 5.37195 15.8642 5.28772 15.8058L5.28644 15.8061L13.393 23.9127C19.0643 23.256 23.5211 18.6492 23.9539 12.9124L20.4209 9.37938Z" fill="url(#paint0_linear)"/>
<path d="M17 17.375C16.9248 17.375 16.8496 17.353 16.7842 17.3067C13.7402 15.166 8.96875 15.0401 5.58887 15.8643C5.38281 15.9131 5.18457 15.7896 5.13574 15.5889C5.08691 15.3877 5.20996 15.1846 5.41113 15.1358C8.9541 14.2705 13.9795 14.4175 17.2158 16.6934C17.3848 16.8125 17.4258 17.0464 17.3066 17.2158C17.2334 17.3193 17.1172 17.375 17 17.375Z" fill="white"/>
<path d="M18.5 14.5C18.3984 14.5 18.2969 14.4697 18.208 14.4062C14.9365 12.0571 10.8906 11.4668 5.08691 12.4922C4.81836 12.54 4.55566 12.3594 4.50781 12.0869C4.45996 11.8154 4.64062 11.5556 4.91308 11.5078C11.002 10.4297 15.2812 11.0747 18.792 13.5937C19.0156 13.7549 19.0674 14.0674 18.9062 14.2915C18.8086 14.4277 18.6553 14.5 18.5 14.5Z" fill="white"/>
<path d="M19.999 10.75C19.8545 10.75 19.708 10.708 19.5791 10.6206C15.3467 7.74757 8.91699 7.73634 4.75 9.20704C4.35937 9.34669 3.93066 9.14063 3.79297 8.75001C3.65527 8.35938 3.85937 7.93067 4.25 7.79298C8.77344 6.19337 15.7793 6.22706 20.4209 9.3794C20.7637 9.61231 20.8535 10.0786 20.6201 10.4214C20.4756 10.6348 20.2393 10.75 19.999 10.75Z" fill="white"/>
<path d="M12 24C18.6274 24 24 18.6274 24 12C24 5.37258 18.6274 0 12 0C5.37258 0 0 5.37258 0 12C0 18.6274 5.37258 24 12 24Z" fill="url(#paint1_linear)"/>
<defs>
<linearGradient id="paint0_linear" x1="6.74492" y1="6.47449" x2="20.6145" y2="20.3441" gradientUnits="userSpaceOnUse">
<stop stop-color="#010101" stop-opacity="0.1"/>
<stop offset="1" stop-color="#010101" stop-opacity="0"/>
</linearGradient>
<linearGradient id="paint1_linear" x1="1.12168" y1="6.92737" x2="22.8783" y2="17.0727" gradientUnits="userSpaceOnUse">
<stop stop-color="white" stop-opacity="0.2"/>
<stop offset="1" stop-color="white" stop-opacity="0"/>
</linearGradient>
</defs>
</svg>
