<svg width="24" height="24" viewBox="0 0 24 24" fill="none" xmlns="http://www.w3.org/2000/svg">
<g clip-path="url(#clip0)">
<path d="M21.8027 5.14454C21.8027 5.14454 21.8025 5.14444 21.8022 5.14424C20.5153 4.46104 18.9108 4.79995 18.0274 5.95852C17.9357 6.07882 17.8502 6.19415 17.7725 6.30073C17.6328 6.49212 17.5059 6.66594 17.3936 6.80851C16.5215 7.92564 16 9.11894 16 10.0007C16 10.822 17.0928 12.6188 17.9873 13.5132C18.6699 14.1958 18.6699 15.3051 17.9873 15.9877C17.3271 16.6498 16.1729 16.6498 15.5127 15.9877C14.9551 15.4301 14.8564 14.5845 15.2334 13.9107C14.7627 12.8502 14.4063 12.527 14.3125 12.4986C13.9502 12.7105 13.0225 15.0649 12.7178 16.9838C12.9033 17.2914 13 17.639 13 18.0003C13 19.1028 12.1025 20.0002 11 20.0002C9.89746 20.0002 9 19.1028 9 18.0003C9 17.3861 9.29004 16.807 9.78125 16.4271C10.2139 15.6479 10.9355 13.7046 11.4248 12.3307C10.6123 12.9068 9.58594 13.6197 8.87012 14.064C8.64355 14.6245 8.10742 15.0005 7.5 15.0005C6.67285 15.0005 6 14.3276 6 13.5005C6 12.6734 6.67285 12.0006 7.5 12.0006C7.97559 12.0006 8.82617 11.443 10.0381 10.3386C9.49121 10.4333 8.9668 10.4851 8.59766 10.5007C8.31641 10.8181 7.92188 11.0007 7.5 11.0007C6.67285 11.0007 6 10.3279 6 9.50075C6 8.67365 6.67285 8.00083 7.5 8.00083C8.8252 8.24008 11.1807 8.24789 13.1006 5.70017C13.6474 4.97431 14.0523 4.12723 14.3328 3.3284C14.7366 2.17822 14.2489 0.906047 13.1856 0.309825L13.1856 0.309824C12.4486 -0.103418 11.5496 -0.103265 10.8128 0.310225L2.19629 5.14551C1.45801 5.55955 1 6.33393 1 7.16591V16.8353C1 17.6673 1.45801 18.4417 2.19629 18.8567L10.8145 23.6914C11.1797 23.8965 11.5898 23.999 12 23.999C12.4102 23.999 12.8203 23.8965 13.1865 23.6914L21.8037 18.8557C22.542 18.4417 23 17.6673 23 16.8353V7.16591C23 6.33393 22.542 5.55955 21.8027 5.14454Z" fill="#27B67B"/>
<path opacity="0.2" d="M13.1855 0.309844C12.4485 -0.103403 11.5496 -0.103281 10.8127 0.31021L2.19629 5.14553C1.45801 5.55957 1 6.33394 1 7.16593V7.41591C1 6.58393 1.45801 5.80955 2.19629 5.39551L10.8127 0.560197C11.5496 0.146706 12.4485 0.146583 13.1855 0.559831C13.9525 0.989923 14.4135 1.7726 14.4629 2.6066C14.5014 1.68135 14.0289 0.78278 13.1855 0.309844Z" fill="white"/>
<path opacity="0.2" d="M21.8027 5.14455C21.8027 5.14455 21.8026 5.14443 21.8022 5.14425C20.5153 4.46105 18.9108 4.79996 18.0274 5.95853C17.9357 6.07883 17.8502 6.19412 17.7725 6.30074C17.6328 6.49214 17.5059 6.66595 17.3936 6.80853C16.5215 7.92565 16 9.11895 16 10.0007C16 10.0366 16.0129 10.0836 16.017 10.123C16.0613 9.25481 16.5605 8.12565 17.3936 7.05851C17.5059 6.91594 17.6328 6.74212 17.7725 6.55073C17.8502 6.4441 17.9357 6.32881 18.0274 6.20852C18.9108 5.04995 20.5153 4.71104 21.8022 5.39423C21.8026 5.39442 21.8027 5.39454 21.8027 5.39454C22.542 5.80955 23 6.58393 23 7.41591V7.16593C23 6.33394 22.542 5.55957 21.8027 5.14455Z" fill="white"/>
<path opacity="0.2" d="M14.3125 12.4987C13.9502 12.7106 13.0225 15.0649 12.7178 16.9838C12.7324 17.008 12.7375 17.036 12.751 17.0607C13.0812 15.1756 13.9609 12.9543 14.3125 12.7486C14.4027 12.7759 14.7375 13.0833 15.1821 14.0512C15.2029 14.0052 15.2084 13.9553 15.2334 13.9107C14.7627 12.8502 14.4063 12.527 14.3125 12.4987Z" fill="white"/>
<path opacity="0.1" d="M21.8037 18.6067L13.1865 23.4424C12.8203 23.6475 12.4102 23.75 12 23.75C11.5898 23.75 11.1797 23.6475 10.8145 23.4424L2.19629 18.6077C1.45801 18.1927 1 17.4183 1 16.5863V16.8363C1 17.6683 1.45801 18.4427 2.19629 18.8577L10.8145 23.6924C11.1797 23.8975 11.5898 24 12 24C12.4102 24 12.8203 23.8975 13.1865 23.6924L21.8037 18.8567C22.542 18.4427 23 17.6683 23 16.8363V16.5863C23 17.4183 22.542 18.1927 21.8037 18.6067Z" fill="#010101"/>
<path opacity="0.1" d="M7.5 7.9979C8.8252 8.23715 11.1807 8.24496 13.1006 5.69724C13.6473 4.97139 14.0523 4.12427 14.3328 3.32548C14.4453 3.00494 14.482 2.67592 14.4629 2.35367C14.4528 2.59493 14.4163 2.83765 14.3328 3.07549C14.0523 3.87428 13.6473 4.7214 13.1006 5.44725C11.1807 7.99497 8.8252 7.98716 7.5 7.74792C6.67285 7.74792 6 8.42073 6 9.24784C6 9.29062 6.00909 9.3309 6.01263 9.37283C6.07733 8.60505 6.71564 7.9979 7.5 7.9979Z" fill="#010101"/>
<path d="M21.8027 5.14454C21.8027 5.14454 21.8025 5.14444 21.8022 5.14424C20.5153 4.46104 18.9108 4.79995 18.0274 5.95852C17.9357 6.07882 17.8502 6.19415 17.7725 6.30073C17.6328 6.49212 17.5059 6.66594 17.3936 6.80851C16.5215 7.92564 16 9.11894 16 10.0007C16 10.822 17.0928 12.6188 17.9873 13.5132C18.6699 14.1958 18.6699 15.3051 17.9873 15.9877C17.3271 16.6498 16.1729 16.6498 15.5127 15.9877C14.9551 15.4301 14.8564 14.5845 15.2334 13.9107C14.7627 12.8502 14.4063 12.527 14.3125 12.4986C13.9502 12.7105 13.0225 15.0649 12.7178 16.9838C12.9033 17.2914 13 17.639 13 18.0003C13 19.1028 12.1025 20.0002 11 20.0002C9.89746 20.0002 9 19.1028 9 18.0003C9 17.3861 9.29004 16.807 9.78125 16.4271C10.2139 15.6479 10.9355 13.7046 11.4248 12.3307C10.6123 12.9068 9.58594 13.6197 8.87012 14.064C8.64355 14.6245 8.10742 15.0005 7.5 15.0005C6.67285 15.0005 6 14.3276 6 13.5005C6 12.6734 6.67285 12.0006 7.5 12.0006C7.97559 12.0006 8.82617 11.443 10.0381 10.3386C9.49121 10.4333 8.9668 10.4851 8.59766 10.5007C8.31641 10.8181 7.92188 11.0007 7.5 11.0007C6.67285 11.0007 6 10.3279 6 9.50075C6 8.67365 6.67285 8.00083 7.5 8.00083C8.8252 8.24008 11.1807 8.24789 13.1006 5.70017C13.6474 4.97431 14.0523 4.12723 14.3328 3.3284C14.7366 2.17822 14.2489 0.906047 13.1856 0.309825L13.1856 0.309824C12.4486 -0.103418 11.5496 -0.103265 10.8128 0.310225L2.19629 5.14551C1.45801 5.55955 1 6.33393 1 7.16591V16.8353C1 17.6673 1.45801 18.4417 2.19629 18.8567L10.8145 23.6914C11.1797 23.8965 11.5898 23.999 12 23.999C12.4102 23.999 12.8203 23.8965 13.1865 23.6914L21.8037 18.8557C22.542 18.4417 23 17.6673 23 16.8353V7.16591C23 6.33393 22.542 5.55955 21.8027 5.14454Z" fill="url(#paint0_linear)"/>
</g>
<defs>
<linearGradient id="paint0_linear" x1="0.919685" y1="6.83374" x2="23.0804" y2="17.1674" gradientUnits="userSpaceOnUse">
<stop stop-color="white" stop-opacity="0.2"/>
<stop offset="1" stop-color="white" stop-opacity="0"/>
</linearGradient>
<clipPath id="clip0">
<rect width="24" height="24" fill="white"/>
</clipPath>
</defs>
</svg>
