<svg width="24" height="24" viewBox="0 0 24 24" fill="none" xmlns="http://www.w3.org/2000/svg">
<path d="M1.56522 3.05213C3.57445 5.62577 7.17185 8.05427 12 8.31536C11.7337 7.19785 11.7081 4.16465 13.8132 2.90405C14.7548 2.34018 15.646 2 16.6961 2C18.0153 2 19.0982 2.4562 20.25 3.56606C21.1875 3.42836 22.9389 2.66914 23.3544 2.37091C23.0839 3.4174 22.0015 4.7611 21.2195 5.08014C21.9375 5.0779 23.5163 4.64532 24 4.38972C23.3289 5.4777 22.1569 6.51994 21.5157 6.95251C22.2582 13.6571 16.3341 21.9916 7.8261 22C5.39643 22.0024 2.75604 21.482 0 19.8945C2.71876 20.2157 5.63177 19.3273 7.30435 17.7892C5.19497 17.7411 3.05852 16.3072 2.08696 14.1049C3.14383 14.4369 4.11823 14.6052 4.69565 14.1049C3.71132 13.9935 0.521739 12.2314 0.521739 8.81865C1.25472 9.43043 2.31007 10.0626 3.13043 9.89434C1.78807 9.0925 -0.162783 6.03877 1.56522 3.05213Z" fill="#1BA8E1"/>
<path opacity="0.2" d="M12.0432 8.5702C12.0262 8.49922 12.0145 8.40083 12 8.31538C7.19427 8.04188 3.5683 5.61783 1.56525 3.05215C1.08264 3.88626 0.894165 4.72391 0.89209 5.51797C0.931274 4.79935 1.13336 4.04861 1.56525 3.30215C3.57446 5.87576 7.21503 8.30915 12.0432 8.5702Z" fill="white"/>
<path opacity="0.2" d="M13.8132 3.15402C14.7548 2.59018 15.6461 2.24997 16.696 2.24997C18.0153 2.24997 19.0982 2.70621 20.25 3.81607C21.1287 3.68698 22.7085 3.01657 23.2469 2.68674C23.2879 2.57999 23.3279 2.47318 23.3544 2.37088C22.9388 2.66916 21.1875 3.42838 20.25 3.56607C19.0982 2.45621 18.0153 1.99997 16.696 1.99997C15.6461 1.99997 14.7548 2.34018 13.8132 2.90402C12.1965 3.87216 11.8401 5.87894 11.8807 7.26736C11.8895 5.89676 12.2913 4.0654 13.8132 3.15402Z" fill="white"/>
<path opacity="0.1" d="M21.5039 6.71101C21.5127 6.79048 21.5087 6.87264 21.5157 6.95253C22.1592 6.5157 23.3326 5.4718 24 4.38995C23.9371 4.42316 23.8544 4.45953 23.7588 4.49744C23.0745 5.45013 22.0743 6.32619 21.5039 6.71101Z" fill="#010101"/>
<path opacity="0.1" d="M0.536987 8.83954C0.532105 8.83551 0.52655 8.83148 0.521729 8.82745C0.521729 11.9506 3.21176 13.7585 4.69565 14.1049C4.80326 14.0576 4.90549 14.0011 4.99515 13.9234C4.03678 13.8148 0.697266 12.0773 0.536987 8.83954Z" fill="#010101"/>
<path opacity="0.1" d="M7.82611 21.75C5.55414 21.7522 3.09644 21.2853 0.533752 19.9283C0.355652 19.9175 0.176819 19.9154 0 19.8945C2.75604 21.4821 5.39642 22.0024 7.82611 22C15.8631 21.9921 21.5867 14.5558 21.5707 8.08075C21.4407 14.4955 15.7596 21.7422 7.82611 21.75Z" fill="#010101"/>
<path opacity="0.1" d="M2.24347 14.16C2.19116 14.1443 2.13977 14.1304 2.08698 14.1138C3.01593 16.2194 5.02944 17.6932 7.30435 17.7892C7.39541 17.7146 7.49655 17.646 7.58139 17.5679C5.57107 17.5221 3.27112 16.1887 2.24347 14.16Z" fill="#010101"/>
<path d="M1.56522 3.05213C3.57445 5.62577 7.17185 8.05427 12 8.31536C11.7337 7.19785 11.7081 4.16465 13.8132 2.90405C14.7548 2.34018 15.646 2 16.6961 2C18.0153 2 19.0982 2.4562 20.25 3.56606C21.1875 3.42836 22.9389 2.66914 23.3544 2.37091C23.0839 3.4174 22.0015 4.7611 21.2195 5.08014C21.9375 5.0779 23.5163 4.64532 24 4.38972C23.3289 5.4777 22.1569 6.51994 21.5157 6.95251C22.2582 13.6571 16.3341 21.9916 7.8261 22C5.39643 22.0024 2.75604 21.482 0 19.8945C2.71876 20.2157 5.63177 19.3273 7.30435 17.7892C5.19497 17.7411 3.05852 16.3072 2.08696 14.1049C3.14383 14.4369 4.11823 14.6052 4.69565 14.1049C3.71132 13.9935 0.521739 12.2314 0.521739 8.81865C1.25472 9.43043 2.31007 10.0626 3.13043 9.89434C1.78807 9.0925 -0.162783 6.03877 1.56522 3.05213Z" fill="url(#paint0_linear)"/>
<defs>
<linearGradient id="paint0_linear" x1="0.243782" y1="5.8361" x2="19.6894" y2="14.9037" gradientUnits="userSpaceOnUse">
<stop stop-color="white" stop-opacity="0.2"/>
<stop offset="1" stop-color="white" stop-opacity="0"/>
</linearGradient>
</defs>
</svg>
