<svg width="24" height="24" viewBox="0 0 24 24" fill="none" xmlns="http://www.w3.org/2000/svg">
<path d="M21 1H3C1.89697 1 1 1.89697 1 3V21C1 22.103 1.89697 23 3 23H21C22.103 23 23 22.103 23 21V3C23 1.89697 22.103 1 21 1Z" fill="#024751"/>
<path d="M4 11.8875H1.01251V12.1375H4V11.8875Z" fill="#00B2B9"/>
<path d="M23 11.8875H15V12.1375H23V11.8875Z" fill="#00B2B9"/>
<path d="M4.86865 7.02496C5.00195 6.91266 5.25146 6.64508 5.49268 6.38629C5.62225 6.24762 5.73804 6.12524 5.83643 6.02472C5.97949 6.15967 6.11871 6.29828 6.25793 6.43689C6.3056 6.38763 6.35254 6.33807 6.40149 6.2901C6.26666 6.14789 6.12689 6.00903 5.99567 5.86462C6.09564 5.76422 6.23767 5.63055 6.39697 5.48248C6.65625 5.24078 6.92432 4.99078 7.03711 4.85699C7.10352 4.77789 7.28662 4.58795 7.49805 4.36871C7.87305 3.98004 8.33984 3.49615 8.50098 3.2735C8.74219 2.94061 9.21307 1.73657 9.42462 1H9.16504C8.94324 1.74823 8.5011 2.84735 8.29883 3.12701C8.14795 3.33502 7.66846 3.83209 7.31836 4.19489C7.09424 4.42731 6.91748 4.61041 6.8457 4.69586C6.74268 4.81793 6.46875 5.07379 6.22656 5.29938C6.06909 5.44598 5.93054 5.57697 5.83057 5.67645C4.60571 4.29785 3.60358 2.80188 3.36407 1H3.23694C3.17627 2.01196 4.18109 3.92975 4.82892 4.82898C4.05414 4.24957 2.27673 3.34198 1 3.24554V3.42706C2.86804 3.67487 4.35126 4.6601 5.6532 5.85449C5.55524 5.95471 5.43976 6.07666 5.31006 6.21588C5.08496 6.45758 4.82959 6.73102 4.70752 6.83356C4.62305 6.90485 4.44238 7.07916 4.21436 7.29938C3.84863 7.6524 3.34814 8.13531 3.13867 8.28717C2.85748 8.49054 1.74841 8.93604 1 9.15668V9.41626C1.73529 9.20636 2.95044 8.73181 3.28516 8.48932C3.50928 8.32721 3.99609 7.85699 4.3877 7.47955C4.604 7.27106 4.79053 7.09088 4.86865 7.02496Z" fill="#00B2B9"/>
<path d="M23 3.23694C21.988 3.17627 20.0703 4.18109 19.1711 4.82892C19.7505 4.05414 20.6581 2.27673 20.7545 1H20.573C20.3252 2.8681 19.34 4.35126 18.1456 5.6532C18.0453 5.55518 17.9234 5.4397 17.7842 5.31006C17.5425 5.08496 17.269 4.82959 17.1665 4.70752C17.0952 4.62305 16.9209 4.44238 16.7007 4.21436C16.3477 3.84863 15.8647 3.34814 15.7129 3.13867C15.5095 2.85748 15.064 1.74841 14.8434 1H14.5838C14.7937 1.73529 15.2682 2.95044 15.5107 3.28516C15.6729 3.50928 16.1431 3.99609 16.5205 4.3877C16.729 4.604 16.9092 4.79053 16.9751 4.86865C17.0874 5.00195 17.355 5.25146 17.6138 5.49268C17.7524 5.62225 17.8748 5.73798 17.9753 5.83643C17.8404 5.97949 17.7017 6.11871 17.5631 6.25793C17.6123 6.3056 17.6619 6.3526 17.7099 6.40149C17.8521 6.26666 17.991 6.12689 18.1354 5.99567C18.2358 6.09564 18.3695 6.23767 18.5176 6.39697C18.7593 6.65625 19.0093 6.92432 19.1431 7.03711C19.2222 7.10352 19.4121 7.28662 19.6313 7.49805C20.02 7.87305 20.5039 8.33984 20.7266 8.50098C21.0594 8.74219 22.2635 9.21307 23 9.42462V9.16504C22.2517 8.94318 21.1527 8.5011 20.873 8.29883C20.665 8.14795 20.168 7.66846 19.8052 7.31836C19.5728 7.09424 19.3896 6.91748 19.3042 6.8457C19.1821 6.74268 18.9263 6.46875 18.7007 6.22656C18.5541 6.06909 18.4231 5.93054 18.3236 5.83057C19.7022 4.60577 21.1982 3.60358 23 3.36407V3.23694Z" fill="#00B2B9"/>
<path d="M7.492 19.6248C7.28351 19.4084 7.10333 19.2219 7.03741 19.1438C6.92511 19.0105 6.65753 18.761 6.39874 18.5198C6.26007 18.3902 6.1377 18.2744 6.03717 18.176C6.1723 18.0328 6.31116 17.8934 6.44995 17.754C6.40063 17.7064 6.35004 17.6603 6.30194 17.6115C6.15991 17.7462 6.02124 17.8857 5.87708 18.0167C5.77667 17.9167 5.64301 17.7748 5.49493 17.6155C5.25323 17.3562 5.00323 17.0881 4.86945 16.9753C4.79034 16.9089 4.6004 16.7258 4.38116 16.5144C3.99249 16.1394 3.50861 15.6726 3.28595 15.5115C2.95111 15.2689 1.73523 14.7941 1 14.5843V14.8439C1.74841 15.0644 2.85815 15.5101 3.13947 15.7136C3.34747 15.8645 3.84454 16.344 4.20734 16.6941C4.43976 16.9182 4.62286 17.095 4.70831 17.1667C4.83038 17.2698 5.08624 17.5437 5.31183 17.7859C5.45844 17.9433 5.58948 18.0818 5.6889 18.1818C4.30713 19.4095 2.8075 20.414 1 20.6505V20.7758C2.00873 20.845 3.93878 19.8339 4.84143 19.1835C4.26385 19.9559 3.36078 21.7241 3.25964 23H3.44153C3.69214 21.1378 4.67523 19.6583 5.86694 18.3593C5.96716 18.4572 6.08911 18.5727 6.22833 18.7024C6.47003 18.9275 6.74347 19.1829 6.84601 19.3049C6.9173 19.3894 7.09161 19.5701 7.31183 19.7981C7.66486 20.1638 8.14777 20.6643 8.29962 20.8738C8.50183 21.1534 8.94366 22.2518 9.16559 23H9.42523C9.21356 22.2634 8.74292 21.0601 8.50177 20.7273C8.33966 20.5032 7.86945 20.0164 7.492 19.6248Z" fill="#00B2B9"/>
<path d="M19.305 17.1789C19.3895 17.1076 19.5701 16.9333 19.7982 16.7131C20.1639 16.36 20.6644 15.8771 20.8738 15.7253C21.1534 15.5231 22.2518 15.0812 23 14.8593V14.5997C22.2634 14.8114 21.0601 15.282 20.7274 15.5231C20.5032 15.6852 20.0164 16.1555 19.6248 16.5329C19.4085 16.7414 19.222 16.9216 19.1439 16.9875C19.0106 17.0998 18.761 17.3674 18.5198 17.6262C18.3903 17.7648 18.2745 17.8872 18.1761 17.9877C18.0287 17.8488 17.8853 17.706 17.742 17.5632C17.6945 17.6122 17.6477 17.6617 17.5989 17.7096C17.7379 17.856 17.8817 17.9991 18.0168 18.1478C17.9169 18.2482 17.7748 18.3819 17.6155 18.53C17.3563 18.7717 17.0882 19.0217 16.9754 19.1555C16.909 19.2346 16.7259 19.4245 16.5145 19.6437C16.1395 20.0324 15.6727 20.5163 15.5115 20.739C15.2717 21.0699 14.8047 22.2624 14.5914 23H14.851C15.0742 22.252 15.5126 21.1635 15.7137 20.8854C15.8646 20.6774 16.3441 20.1804 16.6942 19.8176C16.9183 19.5851 17.095 19.402 17.1668 19.3166C17.2698 19.1945 17.5438 18.9387 17.7859 18.7131C17.9434 18.5665 18.082 18.4355 18.1819 18.336C19.4039 19.7114 20.4039 21.2038 20.6464 23H20.7753C20.8276 21.985 19.829 20.0793 19.1836 19.1835C19.9559 19.761 21.7241 20.6641 23 20.7653V20.5833C21.1379 20.3327 19.6583 19.3497 18.3593 18.158C18.4573 18.0577 18.5728 17.9358 18.7025 17.7966C18.9276 17.5549 19.1829 17.2814 19.305 17.1789Z" fill="#00B2B9"/>
<path d="M12 4C12.0422 4 12.083 4.00568 12.1251 4.00635V1H11.8751V4.00629C11.9171 4.00562 11.9578 4 12 4Z" fill="#00B2B9"/>
<path d="M12 20C11.9578 20 11.9171 19.9944 11.8751 19.9937V23H12.1251V19.9937C12.083 19.9943 12.0422 20 12 20Z" fill="#00B2B9"/>
<path opacity="0.38" d="M21 1H3C1.89697 1 1 1.89697 1 3V21C1 22.103 1.89697 23 3 23H21C22.103 23 23 22.103 23 21V3C23 1.89697 22.103 1 21 1Z" fill="#051938"/>
<path d="M12 4C7.75055 4 4.28461 7.31592 4.02527 11.5H9V9.5C9 9.22363 9.22363 9 9.5 9H14.5C14.7764 9 15 9.22363 15 9.5V14.5C15 14.7764 14.7764 15 14.5 15H9.5C9.22363 15 9 14.7764 9 14.5V12.5H4.02527C4.28461 16.6841 7.75055 20 12 20C16.4183 20 20 16.4183 20 12C20 7.58173 16.4183 4 12 4Z" fill="white"/>
<path opacity="0.1" d="M12 19.75C7.83636 19.75 4.43298 16.5643 4.05292 12.5H4.02527C4.28461 16.6841 7.75055 20 12 20C16.4183 20 20 16.4183 20 12C20 11.9578 19.9944 11.9171 19.9937 11.875C19.9261 16.235 16.3761 19.75 12 19.75Z" fill="#010101"/>
<path opacity="0.1" d="M9 11.75V11.5H4.05292C4.0451 11.5837 4.03052 11.6655 4.02527 11.75H9Z" fill="#010101"/>
<path opacity="0.1" d="M9.5 9.25H14.5C14.7764 9.25 15 9.47363 15 9.75V9.5C15 9.22363 14.7764 9 14.5 9H9.5C9.22363 9 9 9.22363 9 9.5V9.75C9 9.47363 9.22363 9.25 9.5 9.25Z" fill="#010101"/>
<path opacity="0.2" d="M12 4.00635C7.75055 4.00635 4.28461 7.32227 4.02527 11.5063H4.05292C4.43298 7.44208 7.83636 4.25635 12 4.25635C16.3761 4.25635 19.9261 7.7713 19.9937 12.1313C19.9944 12.0893 20 12.0485 20 12.0063C20 7.58807 16.4183 4.00635 12 4.00635Z" fill="white"/>
<path opacity="0.2" d="M21 1H3C1.89697 1 1 1.89697 1 3V3.25C1 2.14697 1.89697 1.25 3 1.25H21C22.103 1.25 23 2.14697 23 3.25V3C23 1.89697 22.103 1 21 1Z" fill="white"/>
<path opacity="0.1" d="M21 22.75H3C1.89697 22.75 1 21.853 1 20.75V21C1 22.103 1.89697 23 3 23H21C22.103 23 23 22.103 23 21V20.75C23 21.853 22.103 22.75 21 22.75Z" fill="#010101"/>
<path d="M17.7099 6.40149C19.1249 7.84454 20 9.81921 20 12C20 16.4183 16.4183 20 12 20C10.11 20 8.37732 19.3414 7.0105 18.2449L7.00903 18.2465L11.7626 23H21C22.103 23 23 22.103 23 21V11.6915L17.7099 6.40149Z" fill="url(#paint0_linear)"/>
<path d="M21 1H3C1.89697 1 1 1.89697 1 3V21C1 22.103 1.89697 23 3 23H21C22.103 23 23 22.103 23 21V3C23 1.89697 22.103 1 21 1Z" fill="url(#paint1_linear)"/>
<defs>
<linearGradient id="paint0_linear" x1="12.0734" y1="12.0379" x2="22.4314" y2="22.3959" gradientUnits="userSpaceOnUse">
<stop stop-color="#010101" stop-opacity="0.1"/>
<stop offset="1" stop-color="#010101" stop-opacity="0"/>
</linearGradient>
<linearGradient id="paint1_linear" x1="-0.652331" y1="6.10012" x2="24.6523" y2="17.8999" gradientUnits="userSpaceOnUse">
<stop stop-color="white" stop-opacity="0.2"/>
<stop offset="1" stop-color="white" stop-opacity="0"/>
</linearGradient>
</defs>
</svg>
