<svg width="24" height="24" viewBox="0 0 24 24" fill="none" xmlns="http://www.w3.org/2000/svg">
<path d="M12 1C6.67773 1 1 1.73438 1 10.5C1 15.1406 2.63672 17.9971 6 19.2168V21.4678C6 22.3125 6.68749 23 7.53223 23C7.97266 23 8.39258 22.8096 8.68457 22.4766L10.8682 19.9824C11.2422 19.9932 11.6191 20 12 20C17.3223 20 23 19.2656 23 10.5C23 1.73438 17.3223 1 12 1Z" fill="#484A9A"/>
<path opacity="0.2" d="M12 1C6.67773 1 1 1.73438 1 10.5C1 10.5416 1.00525 10.5774 1.00549 10.6187C1.06506 1.98376 6.70587 1.25 12 1.25C17.2955 1.25 22.938 1.98383 22.9948 10.625C22.9951 10.5812 23 10.5441 23 10.5C23 1.73438 17.3223 1 12 1Z" fill="white"/>
<path opacity="0.1" d="M12 19.75C11.6191 19.75 11.2422 19.7432 10.8682 19.7324L8.68457 22.2266C8.39258 22.5596 7.97266 22.75 7.53223 22.75C6.68749 22.75 6 22.0625 6 21.2178V21.4678C6 22.3125 6.68749 23 7.53223 23C7.97266 23 8.39258 22.8096 8.68457 22.4766L10.8682 19.9824C11.2422 19.9932 11.6191 20 12 20C17.3223 20 23 19.2656 23 10.5C23 10.4559 22.9951 10.4188 22.9948 10.375C22.938 19.0162 17.2955 19.75 12 19.75Z" fill="#010101"/>
<path opacity="0.1" d="M6 19.2158V18.9658C2.66681 17.757 1.03455 14.9351 1.00549 10.3677C1.00519 10.4136 1 10.4526 1 10.499C1 15.1396 2.63672 17.9961 6 19.2158Z" fill="#010101"/>
<path d="M16.7207 13.0518C16.7197 13.0508 15.4961 12.4492 14.7285 12.0557C13.8643 11.6104 12.8418 12.4453 12.3604 12.9209C11.9248 12.751 11.0605 12.3535 10.3535 11.6465C9.64648 10.9395 9.24902 10.0752 9.0791 9.63965C9.55469 9.1582 10.3896 8.13867 9.94434 7.27148C9.55078 6.50391 8.94922 5.28027 8.94824 5.2793C8.86426 5.1084 8.69043 5 8.5 5H7.5C6.375 5 5 6.38477 5 8C5 9.57031 6.87988 12.5869 8.14648 13.8535C9.41309 15.1201 12.4297 17 14 17C15.6152 17 17 15.625 17 14.5V13.5C17 13.3096 16.8916 13.1357 16.7207 13.0518Z" fill="white"/>
<path d="M12 9C12.5518 9 13 9.44824 13 10C13 10.2764 13.2236 10.5 13.5 10.5C13.7764 10.5 14 10.2764 14 10C14 8.89746 13.1025 8 12 8C11.7236 8 11.5 8.22363 11.5 8.5C11.5 8.77637 11.7236 9 12 9Z" fill="white"/>
<path d="M12 4C11.7236 4 11.5 4.22363 11.5 4.5C11.5 4.77637 11.7236 5 12 5C14.7568 5 17 7.24316 17 10C17 10.2764 17.2236 10.5 17.5 10.5C17.7764 10.5 18 10.2764 18 10C18 6.69141 15.3086 4 12 4Z" fill="white"/>
<path d="M12 7C13.6543 7 15 8.3457 15 10C15 10.2764 15.2236 10.5 15.5 10.5C15.7764 10.5 16 10.2764 16 10C16 7.79395 14.2061 6 12 6C11.7236 6 11.5 6.22363 11.5 6.5C11.5 6.77637 11.7236 7 12 7Z" fill="white"/>
<path d="M16.75 6.33807L16.7531 6.35236C17.5316 7.3645 18 8.62714 18 10C18 10.2764 17.7764 10.5 17.5 10.5C17.2236 10.5 17 10.2764 17 10C17 9.76349 16.9621 9.53717 16.9302 9.30927L15.1175 7.49658L15.1166 7.52319C15.6609 8.2066 16 9.06018 16 10C16 10.2764 15.7764 10.5 15.5 10.5C15.2677 10.5 15.0813 10.3387 15.025 10.1241L15.022 10.209L13.6539 8.87689L13.6529 8.87665C13.8715 9.1972 14 9.58374 14 10C14 10.2764 13.7764 10.5 13.5 10.5C13.2236 10.5 13 10.2764 13 10C13 9.44824 12.5518 9 12 9C11.7236 9 11.5 8.77637 11.5 8.5C11.5 8.31171 11.6081 8.15393 11.7617 8.06866L8.78094 5.08801L8.78052 5.09381C8.84912 5.14136 8.91003 5.20148 8.94824 5.2793C8.94922 5.28027 9.55078 6.50391 9.94434 7.27148C10.3896 8.13867 9.55469 9.1582 9.0791 9.63965C9.24902 10.0752 9.64648 10.9395 10.3535 11.6465C11.0605 12.3535 11.9248 12.751 12.3604 12.9209C12.8418 12.4453 13.8643 11.6104 14.7285 12.0557C15.4961 12.4492 16.7197 13.0508 16.7207 13.0518C16.8916 13.1357 17 13.3096 17 13.5V14.5C17 15.625 15.6152 17 14 17C12.4297 17 9.41309 15.1201 8.14648 13.8535L14.2267 19.9338C18.3608 19.6641 22.1888 18.3166 22.8778 12.4659L16.75 6.33807Z" fill="url(#paint0_linear)"/>
<path d="M12 1C6.67773 1 1 1.73438 1 10.5C1 15.1406 2.63672 17.9971 6 19.2168V21.4678C6 22.3125 6.68749 23 7.53223 23C7.97266 23 8.39258 22.8096 8.68457 22.4766L10.8682 19.9824C11.2422 19.9932 11.6191 20 12 20C17.3223 20 23 19.2656 23 10.5C23 1.73438 17.3223 1 12 1Z" fill="url(#paint1_linear)"/>
<defs>
<linearGradient id="paint0_linear" x1="8.1107" y1="5.75825" x2="20.3114" y2="17.959" gradientUnits="userSpaceOnUse">
<stop stop-color="#010101" stop-opacity="0.1"/>
<stop offset="1" stop-color="#010101" stop-opacity="0"/>
</linearGradient>
<linearGradient id="paint1_linear" x1="1.172" y1="7.02933" x2="21.6188" y2="16.5638" gradientUnits="userSpaceOnUse">
<stop stop-color="white" stop-opacity="0.2"/>
<stop offset="1" stop-color="white" stop-opacity="0"/>
</linearGradient>
</defs>
</svg>
