<svg width="24" height="24" viewBox="0 0 24 24" fill="none" xmlns="http://www.w3.org/2000/svg">
<path d="M19.5435 1C15.9942 1 13.1064 3.91602 13.1064 7.5V8H15.087C15.9831 8 16.044 8.42676 16.073 8.63184C16.3075 10.2803 13.7108 13.813 13.1064 14C12.4217 14 11.8322 10.5771 11.4807 8.53223C10.8138 4.65869 10.1838 1 8.15474 1C6.77901 1 3.90087 2.89062 0.317698 8.21924L0 8.69189L2.80561 10.1084L4.32737 8.57178C4.83124 12.186 6.7089 23 11.1257 23C16.1765 23 24 12.0381 24 6.5C24 3.46729 22.001 1 19.5435 1Z" fill="#19BEF0"/>
<path opacity="0.1" d="M2.8056 10.1084L4.32739 8.57178C4.83124 12.186 6.70892 23 11.1257 23C16.1765 23 24 12.0381 24 6.5C24 6.45721 23.9956 6.41583 23.9948 6.37329C23.8834 11.9482 16.1401 22.75 11.1257 22.75C6.70892 22.75 4.83124 11.936 4.32739 8.32178L2.8056 10.1084Z" fill="#010101"/>
<path opacity="0.2" d="M19.5435 1C15.9942 1 13.1064 3.91602 13.1064 7.5V7.75C13.1064 4.16602 15.9942 1.25 19.5435 1.25C21.9663 1.25 23.9396 3.64948 23.9948 6.62329C23.9956 6.58282 24 6.53992 24 6.5C24 3.46729 22.001 1 19.5435 1Z" fill="white"/>
<path opacity="0.2" d="M8.15472 1.25C10.1838 1.25 10.8138 4.90869 11.4807 8.78223C11.8322 10.8271 12.4217 14.25 13.1064 14.25C13.6954 14.0677 16.1686 10.7134 16.0779 9.01654C15.9411 10.7728 13.6674 13.8264 13.1064 14C12.4217 14 11.8322 10.5771 11.4807 8.53223C10.8138 4.65869 10.1838 1 8.15472 1C6.77899 1 3.90088 2.89062 0.317688 8.21924L0 8.69189L0.125488 8.75525L0.317688 8.46924C3.90088 3.14062 6.77899 1.25 8.15472 1.25Z" fill="white"/>
<path d="M19.5435 1C15.9942 1 13.1064 3.91602 13.1064 7.5V8H15.087C15.9831 8 16.044 8.42676 16.073 8.63184C16.3075 10.2803 13.7108 13.813 13.1064 14C12.4217 14 11.8322 10.5771 11.4807 8.53223C10.8138 4.65869 10.1838 1 8.15474 1C6.77901 1 3.90087 2.89062 0.317698 8.21924L0 8.69189L2.80561 10.1084L4.32737 8.57178C4.83124 12.186 6.7089 23 11.1257 23C16.1765 23 24 12.0381 24 6.5C24 3.46729 22.001 1 19.5435 1Z" fill="url(#paint0_linear)"/>
<defs>
<linearGradient id="paint0_linear" x1="1.49123" y1="5.49395" x2="21.1805" y2="14.6752" gradientUnits="userSpaceOnUse">
<stop stop-color="white" stop-opacity="0.2"/>
<stop offset="1" stop-color="white" stop-opacity="0"/>
</linearGradient>
</defs>
</svg>
