<svg width="24" height="24" viewBox="0 0 24 24" fill="none" xmlns="http://www.w3.org/2000/svg">
<path d="M23.5 2.99991H19.499C19.2227 2.99991 18.999 3.22354 18.999 3.49991V4.49991C18.999 4.77628 19.2227 4.99991 19.499 4.99991H20.4653L15.5415 15.2577L13.7588 10.8007L16.5713 4.99991H17.5C17.7764 4.99991 18 4.77628 18 4.49991V3.49991C18 3.22354 17.7764 2.99991 17.5 2.99991H13.5C13.2236 2.99991 13 3.22354 13 3.49991V4.49991C13 4.77628 13.2236 4.99991 13.5 4.99991H13.9653L12.5869 7.871L11.4385 4.99991H12C12.2764 4.99991 12.5 4.77628 12.5 4.49991V3.49991C12.5 3.22354 12.2764 2.99991 12 2.99991H7C6.72363 2.99991 6.5 3.22354 6.5 3.49991V4.49991C6.5 4.77628 6.72363 4.99991 7 4.99991H8.35645L10.8848 11.4179L9.0415 15.2577L4.93848 4.99991H5.5C5.77637 4.99991 6 4.77628 6 4.49991V3.49991C6 3.22354 5.77637 2.99991 5.5 2.99991H0.5C0.223633 2.99991 0 3.22354 0 3.49991V4.49991C0 4.77628 0.223633 4.99991 0.5 4.99991H1.85645L8.03467 20.6835C8.10742 20.8681 8.28271 20.9921 8.48096 20.9999C8.68262 21.0048 8.86328 20.8964 8.94971 20.7177L12.0386 14.3476L14.5347 20.6835C14.6074 20.8681 14.7827 20.9921 14.981 20.9999C14.9873 20.9999 14.9937 20.9999 15 20.9999C15.1909 20.9999 15.3662 20.8905 15.4497 20.7177L23.0713 4.99991H23.5C23.7764 4.99991 24 4.77628 24 4.49991V3.49991C24 3.22354 23.7764 2.99991 23.5 2.99991Z" fill="#CCCCCC"/>
<path opacity="0.1" d="M15.4497 20.4677C15.3662 20.6405 15.1909 20.7499 15 20.7499C14.9937 20.7499 14.9873 20.7499 14.981 20.7499C14.7827 20.7421 14.6074 20.6181 14.5347 20.4335L12.0929 14.2355L12.0386 14.3476L14.5347 20.6835C14.6074 20.8681 14.7827 20.9921 14.981 20.9999C14.9873 20.9999 14.9937 20.9999 15 20.9999C15.1909 20.9999 15.3662 20.8905 15.4497 20.7177L23.0713 4.99991L15.4497 20.4677Z" fill="#010101"/>
<path opacity="0.1" d="M8.9511 20.4614C8.86761 20.6343 8.69231 20.7437 8.5014 20.7437C8.49505 20.7437 8.4887 20.7437 8.48235 20.7437C8.28411 20.7358 8.10882 20.6118 8.03606 20.4272L1.85645 4.9999L8.03606 20.6772C8.10882 20.8618 8.28411 20.9858 8.48235 20.9937C8.4887 20.9937 8.49505 20.9937 8.5014 20.9937C8.69231 20.9937 8.86761 20.8843 8.9511 20.7114L16.5727 4.99365L8.9511 20.4614Z" fill="#010101"/>
<path opacity="0.2" d="M13.5 3.24991H17.5C17.7764 3.24991 18 3.47354 18 3.74991V3.49991C18 3.22354 17.7764 2.99991 17.5 2.99991H13.5C13.2236 2.99991 13 3.22354 13 3.49991V3.74991C13 3.47354 13.2236 3.24991 13.5 3.24991Z" fill="white"/>
<path opacity="0.2" d="M7 3.24991H12C12.2764 3.24991 12.5 3.47354 12.5 3.74991V3.49991C12.5 3.22354 12.2764 2.99991 12 2.99991H7C6.72363 2.99991 6.5 3.22354 6.5 3.49991V3.74991C6.5 3.47354 6.72363 3.24991 7 3.24991Z" fill="white"/>
<path opacity="0.2" d="M23.5 2.99991H19.499C19.2227 2.99991 18.999 3.22354 18.999 3.49991V3.74991C18.999 3.47354 19.2227 3.24991 19.499 3.24991H23.5C23.7764 3.24991 24 3.47354 24 3.74991V3.49991C24 3.22354 23.7764 2.99991 23.5 2.99991Z" fill="white"/>
<path opacity="0.2" d="M0.5 3.24991H5.5C5.77637 3.24991 6 3.47354 6 3.74991V3.49991C6 3.22354 5.77637 2.99991 5.5 2.99991H0.5C0.223633 2.99991 0 3.22354 0 3.49991V3.74991C0 3.47354 0.223633 3.24991 0.5 3.24991Z" fill="white"/>
<path d="M14.981 20.9999C14.9873 20.9999 14.9937 20.9999 15 20.9999C15.1909 20.9999 15.3662 20.8905 15.4497 20.7177L16.6967 18.146L15.5415 15.2577L13.7588 10.8007L12.0386 14.3476L14.5347 20.6835C14.6074 20.8681 14.7827 20.9921 14.981 20.9999Z" fill="url(#paint0_linear)"/>
<path d="M23.5 2.99991H19.499C19.2227 2.99991 18.999 3.22354 18.999 3.49991V4.49991C18.999 4.77628 19.2227 4.99991 19.499 4.99991H20.4653L15.5415 15.2577L13.7588 10.8007L16.5713 4.99991H17.5C17.7764 4.99991 18 4.77628 18 4.49991V3.49991C18 3.22354 17.7764 2.99991 17.5 2.99991H13.5C13.2236 2.99991 13 3.22354 13 3.49991V4.49991C13 4.77628 13.2236 4.99991 13.5 4.99991H13.9653L12.5869 7.871L11.4385 4.99991H12C12.2764 4.99991 12.5 4.77628 12.5 4.49991V3.49991C12.5 3.22354 12.2764 2.99991 12 2.99991H7C6.72363 2.99991 6.5 3.22354 6.5 3.49991V4.49991C6.5 4.77628 6.72363 4.99991 7 4.99991H8.35645L10.8848 11.4179L9.0415 15.2577L4.93848 4.99991H5.5C5.77637 4.99991 6 4.77628 6 4.49991V3.49991C6 3.22354 5.77637 2.99991 5.5 2.99991H0.5C0.223633 2.99991 0 3.22354 0 3.49991V4.49991C0 4.77628 0.223633 4.99991 0.5 4.99991H1.85645L8.03467 20.6835C8.10742 20.8681 8.28271 20.9921 8.48096 20.9999C8.68262 21.0048 8.86328 20.8964 8.94971 20.7177L12.0386 14.3476L14.5347 20.6835C14.6074 20.8681 14.7827 20.9921 14.981 20.9999C14.9873 20.9999 14.9937 20.9999 15 20.9999C15.1909 20.9999 15.3662 20.8905 15.4497 20.7177L23.0713 4.99991H23.5C23.7764 4.99991 24 4.77628 24 4.49991V3.49991C24 3.22354 23.7764 2.99991 23.5 2.99991Z" fill="url(#paint1_linear)"/>
<defs>
<linearGradient id="paint0_linear" x1="11.4674" y1="13.092" x2="17.291" y2="18.9157" gradientUnits="userSpaceOnUse">
<stop stop-color="#010101" stop-opacity="0.1"/>
<stop offset="1" stop-color="#010101" stop-opacity="0"/>
</linearGradient>
<linearGradient id="paint1_linear" x1="-0.440626" y1="4.33353" x2="19.7411" y2="13.7444" gradientUnits="userSpaceOnUse">
<stop stop-color="white" stop-opacity="0.2"/>
<stop offset="1" stop-color="white" stop-opacity="0"/>
</linearGradient>
</defs>
</svg>
