<svg width="137" height="36" viewBox="0 0 137 36" fill="none" xmlns="http://www.w3.org/2000/svg">
<path d="M0 10C0 4.47715 4.47715 0 10 0H26C31.5228 0 36 4.47715 36 10V26C36 31.5228 31.5228 36 26 36H10C4.47715 36 0 31.5228 0 26V10Z" fill="url(#paint0_linear)"/>
<path fill-rule="evenodd" clip-rule="evenodd" d="M20.8504 25.0229C20.8504 25.765 21.8128 26.0564 22.2244 25.4389L27.673 17.266C28.0053 16.7676 27.648 16.1 27.049 16.1H22.7504V10.9771C22.7504 10.235 21.788 9.94363 21.3764 10.5611L15.9277 18.734C15.5955 19.2324 15.9528 19.9 16.5518 19.9H20.8504V25.0229Z" fill="white"/>
<path opacity="0.3" fill-rule="evenodd" clip-rule="evenodd" d="M9.44883 12.7746C9.44883 11.9876 10.0868 11.3496 10.8738 11.3496H15.6238C16.4108 11.3496 17.0488 11.9876 17.0488 12.7746C17.0488 13.5616 16.4108 14.1996 15.6238 14.1996H10.8738C10.0868 14.1996 9.44883 13.5616 9.44883 12.7746ZM9.44883 24.1746C9.44883 23.3876 10.0868 22.7496 10.8738 22.7496H15.6238C16.4108 22.7496 17.0488 23.3876 17.0488 24.1746C17.0488 24.9616 16.4108 25.5996 15.6238 25.5996H10.8738C10.0868 25.5996 9.44883 24.9616 9.44883 24.1746ZM8.97383 17.0496C8.18682 17.0496 7.54883 17.6876 7.54883 18.4746C7.54883 19.2616 8.18682 19.8996 8.97383 19.8996H12.7738C13.5608 19.8996 14.1988 19.2616 14.1988 18.4746C14.1988 17.6876 13.5608 17.0496 12.7738 17.0496H8.97383Z" fill="white"/>
<path d="M54.3754 27C57.719 27 59.8499 25.0164 60.0751 22.1925H57.078C56.8094 23.6218 55.7786 24.4447 54.4013 24.4447C52.4437 24.4447 51.179 22.8075 51.179 20.0876C51.179 17.4023 52.4697 15.7911 54.4013 15.7911C55.9086 15.7911 56.8354 16.7613 57.078 18.0433H60.0751C59.8585 15.1588 57.6064 13.2618 54.358 13.2618C50.4601 13.2618 48 16.077 48 20.1396C48 24.1675 50.3994 27 54.3754 27Z" fill="url(#paint1_linear)"/>
<path d="M64.566 9H61.4303V26.7401H64.566V9Z" fill="url(#paint2_linear)"/>
<path d="M72.4611 27C75.5622 27 77.6931 25.4841 78.2474 23.1713L75.3196 22.8422C74.8952 23.9682 73.8557 24.5573 72.5044 24.5573C70.4775 24.5573 69.1348 23.2233 69.1089 20.9451H78.3774V19.9836C78.3774 15.3147 75.5708 13.2618 72.2965 13.2618C68.4852 13.2618 65.9991 16.0597 65.9991 20.1655C65.9991 24.3407 68.4505 27 72.4611 27ZM69.1175 18.8316C69.2128 17.1338 70.4688 15.7045 72.3398 15.7045C74.1416 15.7045 75.3543 17.0212 75.3716 18.8316H69.1175Z" fill="url(#paint3_linear)"/>
<path d="M91.3139 13.435H87.979L84.9126 23.3186H84.774L81.7162 13.435H78.3726L83.1108 26.7401H86.5757L91.3139 13.435Z" fill="url(#paint4_linear)"/>
<path d="M97.7018 27C100.803 27 102.934 25.4841 103.488 23.1713L100.56 22.8422C100.136 23.9682 99.0964 24.5573 97.7451 24.5573C95.7182 24.5573 94.3755 23.2233 94.3496 20.9451H103.618V19.9836C103.618 15.3147 100.812 13.2618 97.5372 13.2618C93.7259 13.2618 91.2398 16.0597 91.2398 20.1655C91.2398 24.3407 93.6912 27 97.7018 27ZM94.3582 18.8316C94.4535 17.1338 95.7095 15.7045 97.5806 15.7045C99.3823 15.7045 100.595 17.0212 100.612 18.8316H94.3582Z" fill="url(#paint5_linear)"/>
<path d="M105.051 26.7401H108.187V18.9182C108.187 17.2291 109.46 16.0337 111.184 16.0337C111.712 16.0337 112.371 16.129 112.639 16.2156V13.3311C112.353 13.2791 111.86 13.2445 111.513 13.2445C109.989 13.2445 108.715 14.1107 108.23 15.6526H108.092V13.435H105.051V26.7401Z" fill="url(#paint6_linear)"/>
<defs>
<linearGradient id="paint0_linear" x1="36" y1="0" x2="0" y2="36" gradientUnits="userSpaceOnUse">
<stop stop-color="#D665FF"/>
<stop offset="1" stop-color="#4C6FFF"/>
</linearGradient>
<linearGradient id="paint1_linear" x1="112.639" y1="9" x2="103.336" y2="42.4093" gradientUnits="userSpaceOnUse">
<stop stop-color="#D665FF"/>
<stop offset="1" stop-color="#4C6FFF"/>
</linearGradient>
<linearGradient id="paint2_linear" x1="112.639" y1="9" x2="103.336" y2="42.4093" gradientUnits="userSpaceOnUse">
<stop stop-color="#D665FF"/>
<stop offset="1" stop-color="#4C6FFF"/>
</linearGradient>
<linearGradient id="paint3_linear" x1="112.639" y1="9" x2="103.336" y2="42.4093" gradientUnits="userSpaceOnUse">
<stop stop-color="#D665FF"/>
<stop offset="1" stop-color="#4C6FFF"/>
</linearGradient>
<linearGradient id="paint4_linear" x1="112.639" y1="9" x2="103.336" y2="42.4093" gradientUnits="userSpaceOnUse">
<stop stop-color="#D665FF"/>
<stop offset="1" stop-color="#4C6FFF"/>
</linearGradient>
<linearGradient id="paint5_linear" x1="112.639" y1="9" x2="103.336" y2="42.4093" gradientUnits="userSpaceOnUse">
<stop stop-color="#D665FF"/>
<stop offset="1" stop-color="#4C6FFF"/>
</linearGradient>
<linearGradient id="paint6_linear" x1="112.639" y1="9" x2="103.336" y2="42.4093" gradientUnits="userSpaceOnUse">
<stop stop-color="#D665FF"/>
<stop offset="1" stop-color="#4C6FFF"/>
</linearGradient>
</defs>
</svg>
