<svg viewBox="0 0 40 40" fill="none" xmlns="http://www.w3.org/2000/svg">
<path d="M0 10C0 4.47715 4.47715 0 10 0H30C35.5228 0 40 4.47715 40 10V30C40 35.5228 35.5228 40 30 40H10C4.47715 40 0 35.5228 0 30V10Z" fill="url(#paint0_linear)"/>
<path fill-rule="evenodd" clip-rule="evenodd" d="M23.1673 28.0793C23.1673 28.8214 24.1297 29.1128 24.5414 28.4954L30.8344 19.0558C31.1667 18.5574 30.8094 17.8898 30.2104 17.8898H25.2784V11.9224C25.2784 11.1803 24.316 10.8889 23.9044 11.5064L17.6113 20.946C17.2791 21.4444 17.6364 22.112 18.2354 22.112H23.1673V28.0793Z" fill="white"/>
<path opacity="0.3" fill-rule="evenodd" clip-rule="evenodd" d="M10.4998 14.1113C10.4998 13.2829 11.1714 12.6113 11.9998 12.6113H17.4442C18.2727 12.6113 18.9442 13.2829 18.9442 14.1113V14.278C18.9442 15.1064 18.2727 15.778 17.4442 15.778H11.9998C11.1714 15.778 10.4998 15.1064 10.4998 14.278V14.1113ZM10.4998 26.778C10.4998 25.9496 11.1714 25.278 11.9998 25.278H17.4442C18.2727 25.278 18.9442 25.9496 18.9442 26.778V26.9447C18.9442 27.7731 18.2727 28.4447 17.4442 28.4447H11.9998C11.1714 28.4447 10.4998 27.7731 10.4998 26.9447V26.778ZM9.88867 18.9447C9.06024 18.9447 8.38867 19.6162 8.38867 20.4447V20.6113C8.38867 21.4398 9.06025 22.1113 9.88867 22.1113H14.2776C15.106 22.1113 15.7776 21.4398 15.7776 20.6113V20.4447C15.7776 19.6162 15.106 18.9447 14.2776 18.9447H9.88867Z" fill="white"/>
<defs>
<linearGradient id="paint0_linear" x1="40" y1="0" x2="0" y2="40" gradientUnits="userSpaceOnUse">
<stop stop-color="#D665FF"/>
<stop offset="1" stop-color="#4C6FFF"/>
</linearGradient>
</defs>
</svg>
