<svg width="60" height="61" viewBox="0 0 60 61" fill="none" xmlns="http://www.w3.org/2000/svg">
<path d="M0 10.865C0 5.34214 4.47715 0.86499 10 0.86499H50C55.5228 0.86499 60 5.34214 60 10.865V50.865C60 56.3878 55.5228 60.865 50 60.865H10C4.47715 60.865 0 56.3878 0 50.865V10.865Z" fill="#16192C"/>
<path fill-rule="evenodd" clip-rule="evenodd" d="M34.75 44.2212C34.75 44.9633 35.7124 45.2547 36.124 44.6372L46.6393 28.8643C46.9716 28.3659 46.6143 27.6983 46.0153 27.6983H37.9167V17.5087C37.9167 16.7666 36.9542 16.4752 36.5426 17.0927L26.0274 32.8656C25.6951 33.364 26.0524 34.0316 26.6514 34.0316H34.75V44.2212Z" fill="white"/>
<path opacity="0.3" fill-rule="evenodd" clip-rule="evenodd" d="M15.75 21.2816C15.75 20.4532 16.4216 19.7816 17.25 19.7816H26.9166C27.7451 19.7816 28.4166 20.4532 28.4166 21.2816V23.0316C28.4166 23.86 27.7451 24.5316 26.9166 24.5316H17.25C16.4216 24.5316 15.75 23.86 15.75 23.0316V21.2816ZM15.75 40.2816C15.75 39.4532 16.4216 38.7816 17.25 38.7816H26.9166C27.7451 38.7816 28.4166 39.4532 28.4166 40.2816V42.0316C28.4166 42.86 27.7451 43.5316 26.9166 43.5316H17.25C16.4216 43.5316 15.75 42.86 15.75 42.0316V40.2816ZM14.0833 29.2816C13.2549 29.2816 12.5833 29.9532 12.5833 30.7816V32.5316C12.5833 33.36 13.2549 34.0316 14.0833 34.0316H22.1666C22.9951 34.0316 23.6666 33.36 23.6666 32.5316V30.7816C23.6666 29.9532 22.9951 29.2816 22.1666 29.2816H14.0833Z" fill="white"/>
</svg>
