<svg width="227" height="61" viewBox="0 0 227 61" fill="none" xmlns="http://www.w3.org/2000/svg">
<path d="M0 10.865C0 5.34214 4.47715 0.86499 10 0.86499H50C55.5228 0.86499 60 5.34214 60 10.865V50.865C60 56.3878 55.5228 60.865 50 60.865H10C4.47715 60.865 0 56.3878 0 50.865V10.865Z" fill="#16192C"/>
<path fill-rule="evenodd" clip-rule="evenodd" d="M34.75 44.2213C34.75 44.9634 35.7124 45.2548 36.124 44.6373L46.6393 28.8644C46.9716 28.366 46.6143 27.6984 46.0153 27.6984H37.9167V17.5088C37.9167 16.7668 36.9542 16.4754 36.5426 17.0928L26.0274 32.8657C25.6951 33.3641 26.0524 34.0317 26.6514 34.0317H34.75V44.2213Z" fill="white"/>
<path opacity="0.3" fill-rule="evenodd" clip-rule="evenodd" d="M15.75 21.2817C15.75 20.4533 16.4216 19.7817 17.25 19.7817H26.9166C27.7451 19.7817 28.4166 20.4533 28.4166 21.2817V23.0317C28.4166 23.8602 27.7451 24.5317 26.9166 24.5317H17.25C16.4216 24.5317 15.75 23.8602 15.75 23.0317V21.2817ZM15.75 40.2817C15.75 39.4533 16.4216 38.7817 17.25 38.7817H26.9166C27.7451 38.7817 28.4166 39.4533 28.4166 40.2817V42.0317C28.4166 42.8602 27.7451 43.5317 26.9166 43.5317H17.25C16.4216 43.5317 15.75 42.8602 15.75 42.0317V40.2817ZM14.0833 29.2817C13.2549 29.2817 12.5833 29.9533 12.5833 30.7817V32.5317C12.5833 33.3602 13.2549 34.0317 14.0833 34.0317H22.1666C22.9951 34.0317 23.6666 33.3602 23.6666 32.5317V30.7817C23.6666 29.9533 22.9951 29.2817 22.1666 29.2817H14.0833Z" fill="white"/>
<path d="M90.6256 46C96.1983 46 99.7498 42.6939 100.125 37.9875H95.1299C94.6824 40.3696 92.9644 41.7411 90.6689 41.7411C87.4062 41.7411 85.2984 39.0125 85.2984 34.4793C85.2984 30.0039 87.4495 27.3186 90.6689 27.3186C93.1809 27.3186 94.7257 28.9355 95.1299 31.0722H100.125C99.7642 26.2647 96.0106 23.103 90.5967 23.103C84.1001 23.103 80 27.795 80 34.5659C80 41.2791 83.999 46 90.6256 46Z" fill="#16192C"/>
<path d="M107.61 16H102.384V45.5669H107.61V16Z" fill="#16192C"/>
<path d="M120.769 46C125.937 46 129.488 43.4735 130.412 39.6189L125.533 39.0703C124.825 40.9471 123.093 41.9288 120.841 41.9288C117.462 41.9288 115.225 39.7055 115.181 35.9086H130.629V34.3061C130.629 26.5245 125.951 23.103 120.494 23.103C114.142 23.103 109.999 27.7661 109.999 34.6092C109.999 41.5679 114.084 46 120.769 46ZM115.196 32.3859C115.355 29.5563 117.448 27.1742 120.566 27.1742C123.569 27.1742 125.59 29.3686 125.619 32.3859H115.196Z" fill="#16192C"/>
<path d="M152.19 23.3917H146.632L141.521 39.8643H141.29L136.194 23.3917H130.621L138.518 45.5669H144.293L152.19 23.3917Z" fill="#16192C"/>
<path d="M162.836 46C168.005 46 171.556 43.4735 172.48 39.6189L167.601 39.0703C166.893 40.9471 165.161 41.9288 162.909 41.9288C159.53 41.9288 157.293 39.7055 157.249 35.9086H172.697V34.3061C172.697 26.5245 168.019 23.103 162.562 23.103C156.21 23.103 152.066 27.7661 152.066 34.6092C152.066 41.5679 156.152 46 162.836 46ZM157.264 32.3859C157.423 29.5563 159.516 27.1742 162.634 27.1742C165.637 27.1742 167.658 29.3686 167.687 32.3859H157.264Z" fill="#16192C"/>
<path d="M175.085 45.5669H180.312V32.5303C180.312 29.7151 182.434 27.7228 185.307 27.7228C186.187 27.7228 187.285 27.8816 187.732 28.026V23.2185C187.256 23.1319 186.433 23.0741 185.855 23.0741C183.314 23.0741 181.192 24.5178 180.384 27.0876H180.153V23.3917H175.085V45.5669Z" fill="#16192C"/>
</svg>
