<svg width="227" height="60" viewBox="0 0 227 60" fill="none" xmlns="http://www.w3.org/2000/svg">
<path d="M0 10C0 4.47715 4.47715 0 10 0H50C55.5228 0 60 4.47715 60 10V50C60 55.5228 55.5228 60 50 60H10C4.47715 60 0 55.5228 0 50V10Z" fill="white"/>
<path fill-rule="evenodd" clip-rule="evenodd" d="M34.75 43.3563C34.75 44.0984 35.7124 44.3898 36.124 43.7724L46.6393 27.9994C46.9716 27.501 46.6143 26.8334 46.0153 26.8334H37.9167V16.6438C37.9167 15.9018 36.9542 15.6104 36.5426 16.2278L26.0274 32.0007C25.6951 32.4991 26.0524 33.1667 26.6514 33.1667H34.75V43.3563Z" fill="#16192C"/>
<path opacity="0.3" fill-rule="evenodd" clip-rule="evenodd" d="M15.75 20.4167C15.75 19.5883 16.4216 18.9167 17.25 18.9167H26.9167C27.7451 18.9167 28.4167 19.5883 28.4167 20.4167V22.1667C28.4167 22.9952 27.7451 23.6667 26.9167 23.6667H17.25C16.4216 23.6667 15.75 22.9952 15.75 22.1667V20.4167ZM15.75 39.4167C15.75 38.5883 16.4216 37.9167 17.25 37.9167H26.9167C27.7451 37.9167 28.4167 38.5883 28.4167 39.4167V41.1667C28.4167 41.9952 27.7451 42.6667 26.9167 42.6667H17.25C16.4216 42.6667 15.75 41.9952 15.75 41.1667V39.4167ZM14.0834 28.4167C13.2549 28.4167 12.5834 29.0883 12.5834 29.9167V31.6667C12.5834 32.4952 13.2549 33.1667 14.0834 33.1667H22.1667C22.9951 33.1667 23.6667 32.4952 23.6667 31.6667V29.9167C23.6667 29.0883 22.9951 28.4167 22.1667 28.4167H14.0834Z" fill="#16192C"/>
<path d="M90.6256 45C96.1983 45 99.7498 41.6939 100.125 36.9875H95.1299C94.6824 39.3696 92.9644 40.7411 90.6689 40.7411C87.4062 40.7411 85.2984 38.0125 85.2984 33.4793C85.2984 29.0039 87.4495 26.3186 90.6689 26.3186C93.1809 26.3186 94.7257 27.9355 95.1299 30.0722H100.125C99.7642 25.2647 96.0106 22.103 90.5967 22.103C84.1001 22.103 80 26.795 80 33.5659C80 40.2791 83.999 45 90.6256 45Z" fill="white"/>
<path d="M107.61 15H102.384V44.5669H107.61V15Z" fill="white"/>
<path d="M120.769 45C125.937 45 129.488 42.4735 130.412 38.6189L125.533 38.0703C124.825 39.9471 123.093 40.9288 120.841 40.9288C117.462 40.9288 115.225 38.7055 115.181 34.9086H130.629V33.3061C130.629 25.5245 125.951 22.103 120.494 22.103C114.142 22.103 109.999 26.7661 109.999 33.6092C109.999 40.5679 114.084 45 120.769 45ZM115.196 31.3859C115.355 28.5563 117.448 26.1742 120.566 26.1742C123.569 26.1742 125.59 28.3686 125.619 31.3859H115.196Z" fill="white"/>
<path d="M152.19 22.3917H146.632L141.521 38.8643H141.29L136.194 22.3917H130.621L138.518 44.5669H144.293L152.19 22.3917Z" fill="white"/>
<path d="M162.836 45C168.005 45 171.556 42.4735 172.48 38.6189L167.601 38.0703C166.893 39.9471 165.161 40.9288 162.909 40.9288C159.53 40.9288 157.293 38.7055 157.249 34.9086H172.697V33.3061C172.697 25.5245 168.019 22.103 162.562 22.103C156.21 22.103 152.066 26.7661 152.066 33.6092C152.066 40.5679 156.152 45 162.836 45ZM157.264 31.3859C157.423 28.5563 159.516 26.1742 162.634 26.1742C165.637 26.1742 167.658 28.3686 167.687 31.3859H157.264Z" fill="white"/>
<path d="M175.085 44.5669H180.312V31.5303C180.312 28.7151 182.434 26.7228 185.307 26.7228C186.187 26.7228 187.285 26.8816 187.732 27.026V22.2185C187.256 22.1319 186.433 22.0741 185.855 22.0741C183.314 22.0741 181.192 23.5178 180.384 26.0876H180.153V22.3917H175.085V44.5669Z" fill="white"/>
</svg>
