<svg width="60" height="60" viewBox="0 0 60 60" fill="none" xmlns="http://www.w3.org/2000/svg">
<path d="M0 10C0 4.47715 4.47715 0 10 0H50C55.5228 0 60 4.47715 60 10V50C60 55.5228 55.5228 60 50 60H10C4.47715 60 0 55.5228 0 50V10Z" fill="white"/>
<path fill-rule="evenodd" clip-rule="evenodd" d="M34.75 43.3562C34.75 44.0983 35.7124 44.3897 36.124 43.7722L46.6393 27.9993C46.9716 27.5009 46.6143 26.8333 46.0153 26.8333H37.9167V16.6437C37.9167 15.9017 36.9542 15.6103 36.5426 16.2277L26.0274 32.0006C25.6951 32.499 26.0524 33.1666 26.6514 33.1666H34.75V43.3562Z" fill="#16192C"/>
<path opacity="0.3" fill-rule="evenodd" clip-rule="evenodd" d="M15.75 20.4166C15.75 19.5882 16.4216 18.9166 17.25 18.9166H26.9167C27.7451 18.9166 28.4167 19.5882 28.4167 20.4166V22.1666C28.4167 22.9951 27.7451 23.6666 26.9167 23.6666H17.25C16.4216 23.6666 15.75 22.9951 15.75 22.1666V20.4166ZM15.75 39.4166C15.75 38.5882 16.4216 37.9166 17.25 37.9166H26.9167C27.7451 37.9166 28.4167 38.5882 28.4167 39.4166V41.1666C28.4167 41.9951 27.7451 42.6666 26.9167 42.6666H17.25C16.4216 42.6666 15.75 41.9951 15.75 41.1666V39.4166ZM14.0834 28.4166C13.2549 28.4166 12.5834 29.0882 12.5834 29.9166V31.6666C12.5834 32.4951 13.2549 33.1666 14.0834 33.1666H22.1667C22.9951 33.1666 23.6667 32.4951 23.6667 31.6666V29.9166C23.6667 29.0882 22.9951 28.4166 22.1667 28.4166H14.0834Z" fill="#16192C"/>
</svg>
