<svg width="24" height="24" viewBox="0 0 24 24" fill="none" xmlns="http://www.w3.org/2000/svg">
<path d="M22.5171 16.8857C21.7036 15.1606 20.5 12.623 19.2754 10.041L19.1733 9.82568C17.8418 7.01807 16.4976 4.18408 15.6152 2.30908C14.9541 0.90625 13.5352 0 12 0C10.4648 0 9.0459 0.90625 8.38477 2.30957C7.46484 4.26416 6.04248 7.2627 4.65576 10.186C3.45459 12.7178 2.28076 15.1929 1.48193 16.8867C1.16211 17.5669 1 18.2778 1 19C1 21.7568 3.24316 24 6 24C7.72949 24 9.89307 22.8281 11.9478 20.7817C11.9629 20.7715 11.98 20.7603 11.9985 20.7476C12.0195 20.7617 12.0391 20.7744 12.0566 20.7856C14.1099 22.8301 16.2715 24 18 24C20.7568 24 23 21.7568 23 19C23 18.2769 22.8374 17.5654 22.5171 16.8857ZM11.9893 18.2344C10.7808 17.2026 9 15.2925 9 13C9 11.3457 10.3457 10 12 10C13.6543 10 15 11.3457 15 13C15 15.2554 13.2041 17.1865 11.9893 18.2344ZM18 22C16.8789 22 15.168 21.0215 13.5913 19.4902C15.1606 18.0718 17 15.8096 17 13C17 10.2432 14.7568 8 12 8C9.24316 8 7 10.2432 7 13C7 15.8506 8.83154 18.1001 10.397 19.5015C8.82324 21.0264 7.11816 22 6 22C4.3457 22 3 20.6543 3 19C3 18.5742 3.09814 18.1494 3.29102 17.7388C4.08936 16.0474 5.26221 13.5732 6.4624 11.0435C7.8501 8.11816 9.27344 5.11768 10.1943 3.16162C10.5264 2.45605 11.2354 2 12 2C12.7646 2 13.4736 2.45605 13.8057 3.16113C14.6885 5.03711 16.0337 7.87305 17.3662 10.6826L17.4688 10.8984C18.6924 13.4785 19.895 16.0151 20.708 17.7388C20.9019 18.1494 21 18.5737 21 19C21 20.6543 19.6543 22 18 22Z" fill="#EF494F"/>
<path d="M22.5171 16.8857C21.7036 15.1606 20.5 12.623 19.2754 10.041L19.1733 9.82568C17.8418 7.01807 16.4976 4.18408 15.6152 2.30908C14.9541 0.90625 13.5352 0 12 0C10.4648 0 9.0459 0.90625 8.38477 2.30957C7.46484 4.26416 6.04248 7.2627 4.65576 10.186C3.45459 12.7178 2.28076 15.1929 1.48193 16.8867C1.16211 17.5669 1 18.2778 1 19C1 21.7568 3.24316 24 6 24C7.72949 24 9.89307 22.8281 11.9478 20.7817C11.9629 20.7715 11.98 20.7603 11.9985 20.7476C12.0195 20.7617 12.0391 20.7744 12.0566 20.7856C14.1099 22.8301 16.2715 24 18 24C20.7568 24 23 21.7568 23 19C23 18.2769 22.8374 17.5654 22.5171 16.8857ZM11.9893 18.2344C10.7808 17.2026 9 15.2925 9 13C9 11.3457 10.3457 10 12 10C13.6543 10 15 11.3457 15 13C15 15.2554 13.2041 17.1865 11.9893 18.2344ZM18 22C16.8789 22 15.168 21.0215 13.5913 19.4902C15.1606 18.0718 17 15.8096 17 13C17 10.2432 14.7568 8 12 8C9.24316 8 7 10.2432 7 13C7 15.8506 8.83154 18.1001 10.397 19.5015C8.82324 21.0264 7.11816 22 6 22C4.3457 22 3 20.6543 3 19C3 18.5742 3.09814 18.1494 3.29102 17.7388C4.08936 16.0474 5.26221 13.5732 6.4624 11.0435C7.8501 8.11816 9.27344 5.11768 10.1943 3.16162C10.5264 2.45605 11.2354 2 12 2C12.7646 2 13.4736 2.45605 13.8057 3.16113C14.6885 5.03711 16.0337 7.87305 17.3662 10.6826L17.4688 10.8984C18.6924 13.4785 19.895 16.0151 20.708 17.7388C20.9019 18.1494 21 18.5737 21 19C21 20.6543 19.6543 22 18 22Z" fill="url(#paint0_linear)"/>
<defs>
<linearGradient id="paint0_linear" x1="4.67525" y1="10.0386" x2="23.5838" y2="18.8558" gradientUnits="userSpaceOnUse">
<stop stop-color="white" stop-opacity="0.2"/>
<stop offset="1" stop-color="white" stop-opacity="0"/>
</linearGradient>
</defs>
</svg>
