<svg width="24" height="24" viewBox="0 0 24 24" fill="none" xmlns="http://www.w3.org/2000/svg">
<path d="M18.9326 13.249C18.9228 13.2329 18 11.6294 18 10.5V6.43848C18 3.0332 16.1308 1 13 1C9.52342 1 7.6201 2.39844 7.00975 5.40039L6.90721 5.9082L10.8828 6.5708L10.9873 6.11133C11.168 5.32178 11.6064 5 12.5 5C13.1709 5 13.8555 5.19482 13.9805 6.53711C12.9648 6.62402 10.6328 6.8877 9.28026 7.55127C7.40916 8.46875 6.49998 9.92383 6.49998 12C6.49998 14.3926 8.10741 16 10.5 16C12.748 16 13.9238 15.3491 14.5283 14.7544C15.3056 15.4814 16.2392 15.9297 16.2851 15.9517L16.6045 16.103L19.125 13.5815L18.9326 13.249ZM12 12.5C11.3359 12.5 11 12.1636 11 11.5C11 9.95215 12.8008 9.58838 13.9765 9.51611C13.7754 11.6953 12.3281 12.4961 12 12.5Z" fill="#333333"/>
<path opacity="0.1" d="M13 1.25C16.1308 1.25 18 3.2832 18 6.68848V6.43848C18 3.0332 16.1308 1 13 1C9.52342 1 7.6201 2.39844 7.00975 5.40039L6.90721 5.9082L6.95604 5.91632L7.00975 5.65039C7.6201 2.64844 9.52342 1.25 13 1.25Z" fill="white"/>
<path opacity="0.2" d="M16.6045 15.853L16.2851 15.7017C16.2392 15.6797 15.3056 15.2314 14.5283 14.5044C13.9238 15.0991 12.748 15.75 10.5 15.75C8.14214 15.75 6.55431 14.1849 6.50853 11.8497C6.50737 11.9009 6.49998 11.948 6.49998 12C6.49998 14.3926 8.10741 16 10.5 16C12.748 16 13.9238 15.3491 14.5283 14.7544C15.3056 15.4814 16.2392 15.9297 16.2851 15.9517L16.6045 16.103L19.125 13.5815L19.0334 13.4232L16.6045 15.853Z" fill="#010101"/>
<path d="M21.5439 18.7036C21.4189 18.5342 21.2031 18.46 21 18.5205C20.9492 18.5351 16.3105 20 12 20C7.40623 20 2.14647 18.439 0.853497 17.1465C0.662091 16.956 0.35545 16.9502 0.159161 17.1343C-0.0381046 17.3179 -0.0537297 17.6245 0.122052 17.8281C0.305646 18.0391 4.70018 23 12 23C19.3388 23 21.4551 19.4302 21.5566 19.2783C21.6738 19.103 21.6689 18.8735 21.5439 18.7036Z" fill="#F79120"/>
<path d="M22 16.5C20.7138 16.5 19.376 17.0117 19.3193 17.0337C19.1025 17.1177 18.9717 17.3408 19.0049 17.5713C19.0381 17.8018 19.2265 17.979 19.459 17.998C20.4004 18.0767 21.5332 18.2412 21.918 18.3813C21.9306 18.7954 21.7334 19.9463 21.5127 20.8862C21.4599 21.1128 21.5703 21.3462 21.7803 21.4487C21.8506 21.4834 21.9258 21.5 22 21.5C22.1465 21.5 22.291 21.4351 22.3877 21.3154C22.5527 21.1118 24 19.293 24 18C24 16.5 22.4951 16.5 22 16.5Z" fill="#F79120"/>
<path opacity="0.1" d="M21.5566 19.0283C21.4551 19.1802 19.3388 22.75 12 22.75C4.70018 22.75 0.305646 17.7891 0.122052 17.5781C0.0721867 17.5204 0.0418522 17.4538 0.0225651 17.3846C-0.0139339 17.5367 0.0126774 17.7014 0.122052 17.8281C0.305646 18.0391 4.70018 23 12 23C19.3388 23 21.4551 19.4302 21.5566 19.2783C21.6389 19.1552 21.6392 19.0107 21.6018 18.8735C21.5879 18.926 21.5879 18.9814 21.5566 19.0283Z" fill="#010101"/>
<path opacity="0.2" d="M19.3193 17.2837C19.376 17.2617 20.7138 16.75 22 16.75C22.48 16.75 23.8974 16.7623 23.984 18.1293C23.9869 18.087 24 18.0414 24 18C24 16.5 22.4951 16.5 22 16.5C20.7138 16.5 19.376 17.0117 19.3193 17.0337C19.1025 17.1177 18.9717 17.3408 19.0049 17.5713C19.0074 17.5892 19.0167 17.6042 19.0211 17.6214C19.0617 17.4713 19.1674 17.3425 19.3193 17.2837Z" fill="white"/>
<path d="M6.49998 12C6.49998 14.3926 8.1074 16 10.5 16C12.748 16 13.9238 15.3491 14.5283 14.7544C15.3056 15.4814 16.2392 15.9297 16.2851 15.9517L16.6045 16.103L19.125 13.5815L18.9326 13.249C18.9228 13.2329 18 11.6294 18 10.5V6.43848C18 3.0332 16.1308 1 13 1C9.52342 1 7.6201 2.39844 7.00975 5.40039L6.90721 5.9082L10.8828 6.5708L10.9873 6.11133C11.1679 5.32178 11.6064 5 12.5 5C13.1709 5 13.8554 5.19482 13.9804 6.53711C12.9648 6.62402 10.6328 6.8877 9.28025 7.55127C7.40916 8.46875 6.49998 9.92383 6.49998 12ZM13.9765 9.51611C13.7754 11.6953 12.3281 12.4961 12 12.5C11.3359 12.5 11 12.1636 11 11.5C11 9.95215 12.8008 9.58838 13.9765 9.51611ZM21.5439 18.7036C21.4189 18.5342 21.2031 18.46 21 18.5205C20.9492 18.5352 16.3105 20 12 20C7.40623 20 2.14647 18.439 0.853497 17.1465C0.662091 16.9561 0.35545 16.9502 0.159161 17.1343C-0.0381046 17.3179 -0.0537297 17.6245 0.122052 17.8281C0.305646 18.0391 4.70018 23 12 23C19.3388 23 21.4551 19.4302 21.5566 19.2783C21.6738 19.103 21.6689 18.8735 21.5439 18.7036ZM22 16.5C20.7138 16.5 19.376 17.0117 19.3193 17.0337C19.1025 17.1177 18.9717 17.3408 19.0049 17.5713C19.0381 17.8018 19.2265 17.979 19.459 17.998C20.4004 18.0767 21.5332 18.2412 21.9179 18.3813C21.9306 18.7954 21.7334 19.9463 21.5127 20.8862C21.4599 21.1128 21.5703 21.3462 21.7803 21.4487C21.8506 21.4834 21.9258 21.5 22 21.5C22.1465 21.5 22.291 21.4351 22.3877 21.3154C22.5527 21.1118 24 19.293 24 18C24 16.5 22.4951 16.5 22 16.5Z" fill="url(#paint0_linear)"/>
<defs>
<linearGradient id="paint0_linear" x1="4.09986" y1="8.59672" x2="24.2662" y2="18.0004" gradientUnits="userSpaceOnUse">
<stop stop-color="white" stop-opacity="0.2"/>
<stop offset="1" stop-color="white" stop-opacity="0"/>
</linearGradient>
</defs>
</svg>
