<svg width="24" height="24" viewBox="0 0 24 24" fill="none" xmlns="http://www.w3.org/2000/svg">
<path d="M21 23H3C1.89543 23 1 22.1046 1 21V3C1 1.89543 1.89543 1 3 1H21C22.1046 1 23 1.89543 23 3V21C23 22.1046 22.1046 23 21 23Z" fill="#50205D"/>
<path opacity="0.2" d="M21 1H3C1.89545 1 1 1.89539 1 3V3.25C1 2.14539 1.89545 1.25 3 1.25H21C22.1046 1.25 23 2.14539 23 3.25V3C23 1.89539 22.1046 1 21 1Z" fill="white"/>
<path opacity="0.1" d="M21 22.75H3C1.89545 22.75 1 21.8546 1 20.75V21C1 22.1046 1.89545 23 3 23H21C22.1046 23 23 22.1046 23 21V20.75C23 21.8546 22.1046 22.75 21 22.75Z" fill="#010101"/>
<path d="M15 8.75C15 7.78516 14.2148 7 13.25 7H9V10.5H13.25C14.2148 10.5 15 9.71484 15 8.75ZM15.9374 5.99066C16.5884 6.62665 17 7.52026 17 8.5C17 9.65625 16.4365 10.6836 15.5698 11.3213C16.9971 11.9326 18 13.3516 18 15C18 17.2061 16.2056 19 14 19H7L11 23H21C22.1046 23 23 22.1046 23 21V13L15.9374 5.99066ZM16 14.75C16 13.5098 14.9907 12.5 13.75 12.5H9V17H13.75C14.9907 17 16 15.9902 16 14.75Z" fill="url(#paint0_linear)"/>
<path d="M15.5698 11.3213C16.4365 10.6836 17 9.65625 17 8.5C17 6.57031 15.4297 5 13.5 5H7V19H14C16.2056 19 18 17.2061 18 15C18 13.3516 16.9971 11.9326 15.5698 11.3213ZM13.25 10.5H9V7H13.25C14.2148 7 15 7.78516 15 8.75C15 9.71484 14.2148 10.5 13.25 10.5ZM13.75 17H9V12.5H13.75C14.9907 12.5 16 13.5098 16 14.75C16 15.9902 14.9907 17 13.75 17Z" fill="white"/>
<path d="M21 23H3C1.89543 23 1 22.1046 1 21V3C1 1.89543 1.89543 1 3 1H21C22.1046 1 23 1.89543 23 3V21C23 22.1046 22.1046 23 21 23Z" fill="url(#paint1_linear)"/>
<defs>
<linearGradient id="paint0_linear" x1="7.5" y1="8.5" x2="21.9142" y2="22.9142" gradientUnits="userSpaceOnUse">
<stop stop-color="#010101" stop-opacity="0.1"/>
<stop offset="1" stop-color="#010101" stop-opacity="0"/>
</linearGradient>
<linearGradient id="paint1_linear" x1="-0.652793" y1="6.09991" x2="24.6528" y2="17.9001" gradientUnits="userSpaceOnUse">
<stop stop-color="white" stop-opacity="0.2"/>
<stop offset="1" stop-color="white" stop-opacity="0"/>
</linearGradient>
</defs>
</svg>
