<svg width="24" height="24" viewBox="0 0 24 24" fill="none" xmlns="http://www.w3.org/2000/svg">
<path d="M12.0328 23.0543C18.1079 23.0543 23.0328 18.1294 23.0328 12.0543C23.0328 5.97916 18.1079 1.05429 12.0328 1.05429C5.95765 1.05429 1.03278 5.97916 1.03278 12.0543C1.03278 18.1294 5.95765 23.0543 12.0328 23.0543Z" fill="#EF548A"/>
<path d="M12 0C5.3833 0 0 5.3833 0 12C0 18.6167 5.3833 24 12 24C18.6167 24 24 18.6167 24 12C24 5.3833 18.6167 0 12 0ZM19.861 5.83948C21.1784 7.51678 21.9745 9.61975 21.9954 11.9083C19.5196 11.3394 17.2415 11.2006 15.1298 11.4795C14.8628 10.8574 14.5831 10.2389 14.2802 9.62628C16.358 8.7384 18.212 7.51642 19.861 5.83948ZM18.4807 4.39844C17.033 5.89752 15.3882 7.03735 13.3525 7.87579C12.3018 5.99524 11.0721 4.14398 9.64624 2.29138C10.4025 2.10791 11.188 2 12 2C14.4723 2 16.7334 2.90656 18.4807 4.39844ZM7.66602 3.00183C9.13434 4.85803 10.3862 6.68866 11.4472 8.53937C8.98206 9.2627 5.99707 9.66504 2.24512 9.82568C2.91656 6.81244 4.95105 4.315 7.66602 3.00183ZM2.00824 11.8369C5.94708 11.6877 9.39783 11.2875 12.4123 10.3291C12.6699 10.8417 12.9155 11.3568 13.1456 11.8759C9.7724 12.8094 6.8587 14.9576 4.29846 18.3707C2.86383 16.6393 2 14.4189 2 12C2 11.9449 2.00732 11.8917 2.00824 11.8369ZM5.74005 19.7866C8.11761 16.543 10.7795 14.5468 13.9035 13.7428C14.7916 16.111 15.4234 18.5781 15.8312 21.2341C14.6503 21.7258 13.3569 22 12 22C9.63116 22 7.45526 21.1682 5.74005 19.7866ZM17.6874 20.215C17.2801 17.8413 16.6908 15.5859 15.897 13.4083C17.7111 13.2347 19.671 13.4042 21.8106 13.9209C21.3029 16.5187 19.7869 18.7569 17.6874 20.215Z" fill="#C72263"/>
<path opacity="0.2" d="M12 0.25C17.3286 0.25 21.8441 3.69226 23.4706 8.47076C21.9633 3.56598 17.3988 0 12 0C6.6012 0 2.0368 3.56598 0.529419 8.47064C2.15594 3.69226 6.67139 0.25 12 0.25Z" fill="white"/>
<path opacity="0.1" d="M12 23.75C7.25491 23.75 3.16255 21.0514 1.17465 17.086C0.930213 16.5984 0.717596 16.0917 0.539496 15.5684C0.700312 16.0917 0.895811 16.5993 1.12332 17.0886C3.02824 21.1856 7.17719 24 12 24C16.6758 24 20.7214 21.3441 22.7004 17.4464C23.0064 16.8438 23.2629 16.2114 23.4648 15.5547C23.3362 15.9325 23.1895 16.3018 23.0259 16.6616C21.12 20.852 16.9073 23.75 12 23.75Z" fill="#010101"/>
<path d="M12 0C5.3833 0 0 5.3833 0 12C0 18.6167 5.3833 24 12 24C18.6167 24 24 18.6167 24 12C24 5.3833 18.6167 0 12 0Z" fill="url(#paint0_linear)"/>
<defs>
<linearGradient id="paint0_linear" x1="1.12492" y1="6.92887" x2="22.8751" y2="17.0711" gradientUnits="userSpaceOnUse">
<stop stop-color="white" stop-opacity="0.2"/>
<stop offset="1" stop-color="white" stop-opacity="0"/>
</linearGradient>
</defs>
</svg>
