<svg width="24" height="24" viewBox="0 0 24 24" fill="none" xmlns="http://www.w3.org/2000/svg">
<path d="M12.5273 0C4.75684 0 2 4.58105 2 8.50391C2 11.498 4.34668 14.2271 5.60547 14.8506C5.7373 14.9165 5.89258 14.9204 6.02637 14.8613C6.16113 14.8027 6.26367 14.6875 6.30566 14.5469L7.13379 11.8008C7.18652 11.6279 7.1416 11.4404 7.0166 11.3105C6.73828 11.02 6 10.2485 6 8.99316C6 5.5542 8.4082 3.50098 12.4424 3.50098C15.5586 3.50098 18 5.69385 18 8.49316C18 11.0693 15.9287 14.0063 14.1113 14.0063C11.9971 14.0063 11.9727 12.0869 11.9707 12.0146C13.1592 10.8877 13.5557 8.50488 13.5557 7.96777C13.5566 7.65137 13.5586 7.0625 13.0811 6.60889C12.6572 6.20654 11.9385 6.00293 10.9443 6.00293C8.4668 6.00293 7.80566 7.88916 7.80566 9.00391C7.80566 9.8457 8.31249 10.9658 8.33496 10.9956L5.87402 21.1626C5.84668 21.3081 5.63379 22.6216 6.61328 23.8169C6.71094 23.937 6.85449 24 7 24C7.0957 24 7.19238 23.9727 7.27734 23.916C7.75098 23.6001 8.60352 22.9521 8.9873 22.1611C9.43262 21.2407 10.6953 17.9731 11.4082 16.1074L11.498 16.0132C11.5098 16.0229 12.7354 17.0073 14.6387 17.0073C20.0723 17.0073 22 12.4268 22 8.50391C22 5.34521 20.0049 0 12.5273 0Z" fill="#DA1F32"/>
<path opacity="0.2" d="M14.1113 14.2563C15.9287 14.2563 18 11.3193 18 8.74316C18 8.70331 17.9946 8.6648 17.9936 8.62518C17.9251 11.1688 15.8979 14.0063 14.1113 14.0063C12.394 14.0063 12.0603 12.7534 11.9927 12.2391C11.9848 12.2468 11.9787 12.2571 11.9707 12.2646C11.9727 12.3369 11.9971 14.2563 14.1113 14.2563Z" fill="white"/>
<path opacity="0.2" d="M10.9443 6.25293C11.9385 6.25293 12.6572 6.45654 13.0811 6.85889C13.4797 7.23749 13.5414 7.70129 13.5513 8.03125C13.5519 8.01324 13.5557 7.98291 13.5557 7.96777C13.5566 7.65137 13.5586 7.0625 13.0811 6.60889C12.6572 6.20654 11.9385 6.00293 10.9443 6.00293C8.4668 6.00293 7.80566 7.88916 7.80566 9.00391C7.80566 9.04626 7.81201 9.09161 7.81445 9.13519C7.85797 8.0108 8.54871 6.25293 10.9443 6.25293Z" fill="white"/>
<path opacity="0.2" d="M12.5273 0.25C19.9214 0.25 21.9512 5.47308 21.9957 8.64386C21.9962 8.59741 22 8.55017 22 8.50391C22 5.34521 20.0049 0 12.5273 0C4.75684 0 2 4.58105 2 8.50391C2 8.53113 2.00714 8.55719 2.00751 8.58435C2.08557 4.70001 4.86786 0.25 12.5273 0.25Z" fill="white"/>
<path opacity="0.1" d="M6.30566 14.2998C6.26367 14.4404 6.16113 14.5557 6.02637 14.6143C5.89258 14.6733 5.7373 14.6694 5.60547 14.6035C4.35809 13.9857 2.0495 11.2993 2.00751 8.33728C2.00635 8.39355 2 8.45081 2 8.50684C2 11.501 4.34668 14.23 5.60547 14.8535C5.7373 14.9194 5.89258 14.9233 6.02637 14.8643C6.16113 14.8057 6.26367 14.6904 6.30566 14.5498L7.13379 11.8037C7.16168 11.7122 7.15869 11.618 7.13452 11.5291C7.13245 11.5373 7.13629 11.5456 7.13379 11.5537L6.30566 14.2998Z" fill="#010101"/>
<path opacity="0.1" d="M14.6387 16.7573C12.7354 16.7573 11.5098 15.7729 11.498 15.7632L11.4082 15.8574C10.6953 17.7231 9.43262 20.9907 8.9873 21.9111C8.60352 22.7021 7.75098 23.3501 7.27734 23.666C7.19238 23.7227 7.0957 23.75 7 23.75C6.85449 23.75 6.71094 23.687 6.61328 23.5669C6.01013 22.8309 5.86035 22.0521 5.83972 21.5267C5.82147 22.0273 5.90314 22.9503 6.61328 23.8169C6.71094 23.937 6.85449 24 7 24C7.0957 24 7.19238 23.9727 7.27734 23.916C7.75098 23.6001 8.60352 22.9521 8.9873 22.1611C9.43262 21.2407 10.6953 17.9731 11.4082 16.1074L11.498 16.0132C11.5098 16.0229 12.7354 17.0073 14.6387 17.0073C20.0723 17.0073 22 12.4268 22 8.50391C22 8.46863 21.9962 8.42969 21.9957 8.39386C21.9506 12.285 20.0082 16.7573 14.6387 16.7573Z" fill="#010101"/>
<path d="M12.5273 0C4.75684 0 2 4.58105 2 8.50391C2 11.498 4.34668 14.2271 5.60547 14.8506C5.7373 14.9165 5.89258 14.9204 6.02637 14.8613C6.16113 14.8027 6.26367 14.6875 6.30566 14.5469L7.13379 11.8008C7.18652 11.6279 7.1416 11.4404 7.0166 11.3105C6.73828 11.02 6 10.2485 6 8.99316C6 5.5542 8.4082 3.50098 12.4424 3.50098C15.5586 3.50098 18 5.69385 18 8.49316C18 11.0693 15.9287 14.0063 14.1113 14.0063C11.9971 14.0063 11.9727 12.0869 11.9707 12.0146C13.1592 10.8877 13.5557 8.50488 13.5557 7.96777C13.5566 7.65137 13.5586 7.0625 13.0811 6.60889C12.6572 6.20654 11.9385 6.00293 10.9443 6.00293C8.4668 6.00293 7.80566 7.88916 7.80566 9.00391C7.80566 9.8457 8.31249 10.9658 8.33496 10.9956L5.87402 21.1626C5.84668 21.3081 5.63379 22.6216 6.61328 23.8169C6.71094 23.937 6.85449 24 7 24C7.0957 24 7.19238 23.9727 7.27734 23.916C7.75098 23.6001 8.60352 22.9521 8.9873 22.1611C9.43262 21.2407 10.6953 17.9731 11.4082 16.1074L11.498 16.0132C11.5098 16.0229 12.7354 17.0073 14.6387 17.0073C20.0723 17.0073 22 12.4268 22 8.50391C22 5.34521 20.0049 0 12.5273 0Z" fill="url(#paint0_linear)"/>
<defs>
<linearGradient id="paint0_linear" x1="1.57702" y1="7.5694" x2="19.6652" y2="16.0041" gradientUnits="userSpaceOnUse">
<stop stop-color="white" stop-opacity="0.2"/>
<stop offset="1" stop-color="white" stop-opacity="0"/>
</linearGradient>
</defs>
</svg>
