<svg width="24" height="24" viewBox="0 0 24 24" fill="none" xmlns="http://www.w3.org/2000/svg">
<path d="M22.918 13.2617C22.9736 12.7993 23 12.3945 23 12C23 5.93457 18.0654 1 12 1C11.6104 1 11.2061 1.02637 10.7383 1.08203C9.62012 0.373535 8.33105 0 7 0C3.14062 0 0 3.14014 0 7C0 8.33154 0.374023 9.62012 1.08203 10.7383C1.02637 11.2007 1 11.6055 1 12C1 18.0654 5.93457 23 12 23C12.3896 23 12.7939 22.9736 13.2617 22.918C14.3799 23.6265 15.6689 24 17 24C20.8594 24 24 20.8599 24 17C24 15.6685 23.626 14.3799 22.918 13.2617Z" fill="#19BEF0"/>
<path opacity="0.1" d="M17 23.75C15.6689 23.75 14.3799 23.3765 13.2617 22.668C12.7939 22.7236 12.3896 22.75 12 22.75C5.96802 22.75 1.05902 17.8685 1.005 11.8491C1.00421 11.8987 1 11.9508 1 12C1 18.0654 5.93457 23 12 23C12.3896 23 12.7939 22.9736 13.2617 22.918C14.3799 23.6265 15.6689 24 17 24C20.8594 24 24 20.8599 24 17C24 16.9648 23.9932 16.9305 23.9926 16.8953C23.9142 20.6877 20.8103 23.75 17 23.75Z" fill="#010101"/>
<path opacity="0.2" d="M7 0.25C8.33105 0.25 9.62012 0.623535 10.7383 1.33203C11.2061 1.27637 11.6104 1.25 12 1.25C18.032 1.25 22.941 6.13147 22.995 12.1509C22.9958 12.1013 23 12.0492 23 12C23 5.93457 18.0654 1 12 1C11.6104 1 11.2061 1.02637 10.7383 1.08203C9.62012 0.373535 8.33105 0 7 0C3.14062 0 0 3.14014 0 7C0 7.03522 0.0068359 7.06952 0.0073853 7.10468C0.0858154 3.31232 3.1897 0.25 7 0.25Z" fill="white"/>
<path d="M12.2539 10.1128C9.57812 9.39355 9 9.01855 9 8C9 7.69434 9.94434 7 11.5 7C12.9111 7 13.7783 7.43555 14.0068 7.63916C14.0771 8.40137 14.7197 9 15.5 9C16.3271 9 17 8.32715 17 7.5C17 5.50488 14.6357 4 11.5 4C8.41602 4 6 5.75684 6 8C6 11.5386 9.16406 12.3887 11.4756 13.0103C14.374 13.7886 15 14.2305 15 15.5C15 16.1118 13.8311 17 12 17C9.97852 17 9.04297 16.3052 8.99316 16.0151C8.84668 15.1689 8.24707 14.6001 7.5 14.6001C6.67285 14.6001 6 15.2729 6 16.1001C6 18.3232 8.5791 20 12 20C15.3643 20 18 18.0234 18 15.5C18 11.6562 14.542 10.7275 12.2539 10.1128Z" fill="white"/>
<path d="M22.918 13.2617C22.9541 12.9614 22.9736 12.6891 22.9859 12.4245L16.1328 5.57147C16.6806 6.11822 17 6.77515 17 7.5C17 8.32715 16.3271 9 15.5 9C14.7197 9 14.0771 8.40137 14.0068 7.63916C13.7783 7.43555 12.9111 7 11.5 7C9.94434 7 9 7.69434 9 8C9 9.01855 9.57812 9.39355 12.2539 10.1128C14.542 10.7275 18 11.6562 18 15.5C18 18.0234 15.3643 20 12 20C10.0861 20 8.43658 19.4746 7.35394 18.6228L11.7168 22.9857C11.8118 22.9881 11.9044 23 12 23C12.3896 23 12.7939 22.9736 13.2617 22.918C14.3799 23.6265 15.6689 24 17 24C20.8594 24 24 20.8599 24 17C24 15.6685 23.626 14.3799 22.918 13.2617Z" fill="url(#paint0_linear)"/>
<path d="M22.918 13.2617C22.9736 12.7993 23 12.3945 23 12C23 5.93457 18.0654 1 12 1C11.6104 1 11.2061 1.02637 10.7383 1.08203C9.62012 0.373535 8.33105 0 7 0C3.14062 0 0 3.14014 0 7C0 8.33154 0.374023 9.62012 1.08203 10.7383C1.02637 11.2007 1 11.6055 1 12C1 18.0654 5.93457 23 12 23C12.3896 23 12.7939 22.9736 13.2617 22.918C14.3799 23.6265 15.6689 24 17 24C20.8594 24 24 20.8599 24 17C24 15.6685 23.626 14.3799 22.918 13.2617Z" fill="url(#paint1_linear)"/>
<defs>
<linearGradient id="paint0_linear" x1="8.26628" y1="8.62001" x2="21.7705" y2="22.1242" gradientUnits="userSpaceOnUse">
<stop stop-color="#010101" stop-opacity="0.1"/>
<stop offset="1" stop-color="#010101" stop-opacity="0"/>
</linearGradient>
<linearGradient id="paint1_linear" x1="-0.365849" y1="6.23371" x2="24.3658" y2="17.7663" gradientUnits="userSpaceOnUse">
<stop stop-color="white" stop-opacity="0.2"/>
<stop offset="1" stop-color="white" stop-opacity="0"/>
</linearGradient>
</defs>
</svg>
