<svg width="24" height="24" viewBox="0 0 24 24" fill="none" xmlns="http://www.w3.org/2000/svg">
<path d="M18.5664 4H18.2031C18.0342 4 17.8643 4.01758 17.6982 4.05273L2.92871 7.18555C1.81152 7.42236 1 8.42383 1 9.56641C1 10.9082 2.0918 12 3.43359 12H3.79688C3.96582 12 4.13574 11.9824 4.30176 11.9473L19.0713 8.81445C20.1885 8.57764 21 7.57617 21 6.43359C21 5.0918 19.9082 4 18.5664 4Z" fill="#89D3DE"/>
<path d="M20.5664 12H20.2031C20.0342 12 19.8643 12.0176 19.6982 12.0527L4.92871 15.1855C3.81152 15.4224 3 16.4238 3 17.5664C3 18.9082 4.0918 20 5.43359 20H5.79688C5.96582 20 6.13574 19.9824 6.30176 19.9473L21.0713 16.8145C22.1885 16.5776 23 15.5762 23 14.4336C23 13.0918 21.9082 12 20.5664 12Z" fill="#E01E5A"/>
<path d="M19.9473 17.6982L16.8145 2.92871C16.5771 1.81104 15.5762 1 14.4336 1C13.0918 1 12 2.0918 12 3.43359V3.79736C12 3.96875 12.0176 4.13916 12.0527 4.30176L15.1855 19.0713C15.4229 20.189 16.4238 21 17.5664 21C18.9082 21 20 19.9082 20 18.5664V18.2026C20 18.0312 19.9824 17.8608 19.9473 17.6982Z" fill="#ECB32C"/>
<path d="M11.9473 19.6982L8.81445 4.92871C8.57715 3.81104 7.57617 3 6.43359 3C5.0918 3 4 4.0918 4 5.43359V5.79736C4 5.96875 4.01758 6.13916 4.05273 6.30176L7.18555 21.0713C7.42285 22.189 8.42383 23 9.56641 23C10.9082 23 12 21.9082 12 20.5664V20.2026C12 20.0312 11.9824 19.8608 11.9473 19.6982Z" fill="#65C2A1"/>
<path d="M10.7291 13.9552L5.89365 14.9809L6.91934 19.8163L11.7548 18.7906L10.7291 13.9552Z" fill="#331733"/>
<path d="M18.7906 12.2453L13.9552 13.2709L14.9808 18.1063L19.8163 17.0807L18.7906 12.2453Z" fill="#D62328"/>
<path d="M9.01913 5.89364L4.18372 6.91934L5.20942 11.7548L10.0448 10.7291L9.01913 5.89364Z" fill="#268C75"/>
<path d="M17.0806 4.18371L12.2452 5.20941L13.2709 10.0448L18.1064 9.01912L17.0806 4.18371Z" fill="#829C3C"/>
<path d="M20.5664 12H20.2031C20.0342 12 19.8643 12.0176 19.6982 12.0527L18.7906 12.2452L18.1063 9.01917L19.0713 8.81445C20.1885 8.57764 21 7.57617 21 6.43359C21 5.0918 19.9082 4 18.5664 4H18.2031C18.0342 4 17.8643 4.01758 17.6982 4.05273L17.0807 4.18372L16.8145 2.92871C16.5771 1.81104 15.5762 1 14.4336 1C13.0918 1 12 2.0918 12 3.43359V3.79736C12 3.96875 12.0176 4.13916 12.0527 4.30176L12.2452 5.20941L9.01917 5.89368L8.81445 4.92871C8.57715 3.81104 7.57617 3 6.43359 3C5.0918 3 4 4.0918 4 5.43359V5.79736C4 5.96875 4.01758 6.13916 4.05273 6.30176L4.18372 6.91931L2.92871 7.18555C1.81152 7.42236 1 8.42383 1 9.56641C1 10.9082 2.0918 12 3.43359 12H3.79688C3.96582 12 4.13574 11.9824 4.30176 11.9473L5.20941 11.7548L5.89368 14.9808L4.92871 15.1855C3.81152 15.4224 3 16.4238 3 17.5664C3 18.9082 4.0918 20 5.43359 20H5.79688C5.96582 20 6.13574 19.9824 6.30176 19.9473L6.91931 19.8163L7.18555 21.0713C7.42285 22.189 8.42383 23 9.56641 23C10.9082 23 12 21.9082 12 20.5664V20.2026C12 20.0313 11.9824 19.8608 11.9473 19.6982L11.7548 18.7906L14.9808 18.1063L15.1855 19.0713C15.4229 20.189 16.4238 21 17.5664 21C18.9082 21 20 19.9082 20 18.5664V18.2026C20 18.0313 19.9824 17.8608 19.9473 17.6982L19.8163 17.0807L21.0713 16.8145C22.1885 16.5776 23 15.5762 23 14.4336C23 13.0918 21.9082 12 20.5664 12ZM10.7291 13.9552L10.0448 10.7291L13.2709 10.0448L13.9552 13.2709L10.7291 13.9552Z" fill="url(#paint0_linear)"/>
<defs>
<linearGradient id="paint0_linear" x1="1.82797" y1="7.25671" x2="22.172" y2="16.7433" gradientUnits="userSpaceOnUse">
<stop stop-color="white" stop-opacity="0.2"/>
<stop offset="1" stop-color="white" stop-opacity="0"/>
</linearGradient>
</defs>
</svg>
