<svg width="24" height="24" viewBox="0 0 24 24" fill="none" xmlns="http://www.w3.org/2000/svg">
<path d="M23.5977 17.5161C21.246 16.9038 19.4467 15.4893 18.5329 13.5444C18.5329 13.5435 18.5348 13.5391 18.5387 13.5356L20.7287 11.8286C21.2275 11.439 21.4282 10.7729 21.2284 10.1714C20.9917 9.46289 20.265 9.03662 19.5324 9.17236L18.001 9.44678C18.4218 6.87891 17.9201 4.59961 16.5894 3.02832C15.4817 1.72021 13.851 1 12 1C10.1481 1 8.51729 1.7207 7.40964 3.0293C6.07793 4.60156 5.5772 6.88232 6.00487 9.46582C5.35022 9.34766 4.47735 9.18213 4.47735 9.18213C3.73697 9.03516 3.00828 9.46094 2.77058 10.1738C2.57087 10.7739 2.77155 11.438 3.27034 11.8262L5.46907 13.5327C4.55334 15.4893 2.75402 16.9038 0.402338 17.5161L0 17.6211L0.0301997 18.0371C0.0613736 18.4507 0.217243 18.7803 0.492937 19.0161C1.05991 19.5005 1.9435 19.4229 2.72187 19.3564C3.0492 19.3281 3.54116 19.2837 3.62981 19.3125C4.00877 19.7876 4.01948 20.4951 4.01948 20.5V21H6.51339C7.06283 21 7.7623 21.3872 8.50365 21.7969C9.52265 22.3608 10.678 23 12 23C13.322 23 14.4774 22.3608 15.4963 21.7969C16.2377 21.3872 16.9372 21 17.4866 21L19.9766 20.998L19.9805 20.502C19.9805 20.4951 19.9912 19.7876 20.3293 19.3486C20.4579 19.2852 20.9518 19.3286 21.2781 19.3564C22.0555 19.4229 22.9401 19.5005 23.5071 19.0161C23.7828 18.7803 23.9386 18.4507 23.9698 18.0371L24 17.6211L23.5977 17.5161Z" fill="#FCEE23"/>
<path opacity="0.2" d="M16.5894 3.02832C15.4817 1.72021 13.851 1 12 1C10.1481 1 8.51727 1.7207 7.40967 3.0293C6.38184 4.2428 5.85516 5.88092 5.86212 7.75189C5.90143 5.98492 6.42773 4.4386 7.40967 3.2793C8.51727 1.9707 10.1481 1.25 12 1.25C13.851 1.25 15.4817 1.97021 16.5894 3.27832C17.5714 4.43787 18.0983 5.98468 18.1398 7.74677C18.1444 5.88123 17.6174 4.24219 16.5894 3.02832Z" fill="white"/>
<path opacity="0.2" d="M2.77057 10.1738C2.70569 10.3688 2.69739 10.5683 2.71356 10.7652C2.72357 10.6508 2.73328 10.5359 2.77057 10.4238C3.0083 9.71093 3.737 9.28515 4.47736 9.43212C4.47736 9.43212 5.35022 9.59765 6.00488 9.71581C5.99054 9.62926 5.98578 9.54595 5.97351 9.46007C5.32263 9.34234 4.47736 9.18212 4.47736 9.18212C3.737 9.03515 3.0083 9.46093 2.77057 10.1738Z" fill="white"/>
<path opacity="0.2" d="M21.2285 10.1714C20.9917 9.46288 20.265 9.03661 19.5324 9.17235L18.0319 9.44121C18.0198 9.52703 18.0151 9.61028 18.001 9.69677L19.5324 9.42235C20.265 9.28661 20.9917 9.71288 21.2285 10.4214C21.2658 10.5339 21.2755 10.6492 21.2855 10.764C21.3016 10.5667 21.2933 10.3668 21.2285 10.1714Z" fill="white"/>
<path opacity="0.1" d="M23.9698 17.7871C23.9386 18.2007 23.7828 18.5303 23.5071 18.7661C22.9401 19.2505 22.0555 19.1729 21.2781 19.1064C20.9518 19.0786 20.4579 19.0352 20.3293 19.0986C19.9912 19.5376 19.9805 20.2451 19.9805 20.252L19.9766 20.748L17.4866 20.75C16.9372 20.75 16.2377 21.1372 15.4963 21.5469C14.4774 22.1108 13.322 22.75 12 22.75C10.678 22.75 9.52264 22.1108 8.50366 21.5469C7.76233 21.1372 7.06281 20.75 6.51337 20.75H4.01947V21H6.51337C7.06281 21 7.76233 21.3872 8.50366 21.7969C9.52264 22.3608 10.678 23 12 23C13.322 23 14.4774 22.3608 15.4963 21.7969C16.2377 21.3872 16.9372 21 17.4866 21L19.9766 20.998L19.9805 20.502C19.9805 20.4951 19.9912 19.7876 20.3293 19.3486C20.4579 19.2852 20.9518 19.3286 21.2781 19.3564C22.0555 19.4229 22.9401 19.5005 23.5071 19.0161C23.7828 18.7803 23.9386 18.4507 23.9698 18.0371L24 17.6211L23.9822 17.6165L23.9698 17.7871Z" fill="#010101"/>
<path opacity="0.1" d="M0.0302124 18.0371C0.0614014 18.4507 0.217224 18.7803 0.49292 19.0161C1.05994 19.5005 1.94348 19.4229 2.72186 19.3564C3.04919 19.3281 3.54114 19.2837 3.62982 19.3125C4.00879 19.7876 4.01947 20.4951 4.01947 20.5V20.25C4.01947 20.2451 4.00879 19.5376 3.62982 19.0625C3.54114 19.0337 3.04919 19.0781 2.72186 19.1064C1.94348 19.1729 1.05994 19.2505 0.49292 18.7661C0.217224 18.5303 0.0614013 18.2007 0.0302124 17.7871L0.0178223 17.6165L0 17.6211L0.0302124 18.0371Z" fill="#010101"/>
<path d="M23.5977 17.5161C21.246 16.9038 19.4467 15.4893 18.5329 13.5444C18.5329 13.5435 18.5348 13.5391 18.5387 13.5356L20.7287 11.8286C21.2275 11.439 21.4282 10.7729 21.2284 10.1714C20.9917 9.46289 20.265 9.03662 19.5324 9.17236L18.001 9.44678C18.4218 6.87891 17.9201 4.59961 16.5894 3.02832C15.4817 1.72021 13.851 1 12 1C10.1481 1 8.51729 1.7207 7.40964 3.0293C6.07793 4.60156 5.5772 6.88232 6.00487 9.46582C5.35022 9.34766 4.47735 9.18213 4.47735 9.18213C3.73697 9.03516 3.00828 9.46094 2.77058 10.1738C2.57087 10.7739 2.77155 11.438 3.27034 11.8262L5.46907 13.5327C4.55334 15.4893 2.75402 16.9038 0.402338 17.5161L0 17.6211L0.0301997 18.0371C0.0613736 18.4507 0.217243 18.7803 0.492937 19.0161C1.05991 19.5005 1.9435 19.4229 2.72187 19.3564C3.0492 19.3281 3.54116 19.2837 3.62981 19.3125C4.00877 19.7876 4.01948 20.4951 4.01948 20.5V21H6.51339C7.06283 21 7.7623 21.3872 8.50365 21.7969C9.52265 22.3608 10.678 23 12 23C13.322 23 14.4774 22.3608 15.4963 21.7969C16.2377 21.3872 16.9372 21 17.4866 21L19.9766 20.998L19.9805 20.502C19.9805 20.4951 19.9912 19.7876 20.3293 19.3486C20.4579 19.2852 20.9518 19.3286 21.2781 19.3564C22.0555 19.4229 22.9401 19.5005 23.5071 19.0161C23.7828 18.7803 23.9386 18.4507 23.9698 18.0371L24 17.6211L23.5977 17.5161Z" fill="url(#paint0_linear)"/>
<defs>
<linearGradient id="paint0_linear" x1="3.5107" y1="8.56321" x2="24.0427" y2="18.1374" gradientUnits="userSpaceOnUse">
<stop stop-color="white" stop-opacity="0.2"/>
<stop offset="1" stop-color="white" stop-opacity="0"/>
</linearGradient>
</defs>
</svg>
