<svg width="24" height="24" viewBox="0 0 24 24" fill="none" xmlns="http://www.w3.org/2000/svg">
<path d="M8.75 2C3.92529 2 0 5.36426 0 9.5C0 11.7207 1.11914 13.7793 3.08594 15.21L2.05273 17.2764C1.9541 17.4736 1.99609 17.7119 2.15625 17.8633C2.25146 17.9531 2.37549 18 2.5 18C2.58496 18 2.67041 17.9785 2.74805 17.9346L5.39404 16.4219C6.79932 16.9238 8.33789 17.0937 9.80371 16.9404C10.0781 16.9121 10.2778 16.666 10.2495 16.3916C10.2375 16.2774 10.1819 16.1809 10.1082 16.103L16.6411 9.86163C16.7321 9.95306 16.8583 10.0098 16.9995 10.0098C17.2759 10.0098 17.5 9.77637 17.5 9.5C17.5 5.36426 13.5747 2 8.75 2Z" fill="#27AE4A"/>
<path opacity="0.1" d="M8.75 2C3.92529 2 0 5.36426 0 9.5C0 11.7207 1.11914 13.7793 3.08594 15.21L2.05273 17.2764C1.9541 17.4736 1.99609 17.7119 2.15625 17.8633C2.25146 17.9531 2.37549 18 2.5 18C2.58496 18 2.67041 17.9785 2.74805 17.9346L5.39404 16.4219C6.79932 16.9238 8.33789 17.0937 9.80371 16.9404C10.0781 16.9121 10.2778 16.666 10.2495 16.3916C10.2375 16.2774 10.1819 16.1809 10.1082 16.103L16.6411 9.86163C16.7321 9.95306 16.8583 10.0098 16.9995 10.0098C17.2759 10.0098 17.5 9.77637 17.5 9.5C17.5 5.36426 13.5747 2 8.75 2Z" fill="#010101"/>
<path opacity="0.1" d="M9.84137 16.6904C8.32318 16.8437 6.72968 16.6738 5.27417 16.1719L2.53369 17.6846C2.45331 17.7285 2.36481 17.75 2.27679 17.75C2.20605 17.75 2.13684 17.733 2.07123 17.7054C2.09717 17.7599 2.11047 17.82 2.15625 17.8633C2.25146 17.9531 2.37549 18 2.5 18C2.58496 18 2.67041 17.9785 2.74805 17.9346L5.39404 16.4219C6.79932 16.9238 8.33789 17.0937 9.80371 16.9404C10.0745 16.9125 10.2706 16.672 10.2485 16.402C10.1736 16.5549 10.0281 16.6718 9.84137 16.6904Z" fill="#010101"/>
<path d="M6 8C6.55228 8 7 7.55228 7 7C7 6.44772 6.55228 6 6 6C5.44772 6 5 6.44772 5 7C5 7.55228 5.44772 8 6 8Z" fill="white"/>
<path d="M11 8C11.5523 8 12 7.55228 12 7C12 6.44772 11.5523 6 11 6C10.4477 6 10 6.44772 10 7C10 7.55228 10.4477 8 11 8Z" fill="white"/>
<path opacity="0.2" d="M8.75 2.25C13.4987 2.25 17.3676 5.51093 17.4886 9.55701C17.4909 9.53748 17.5 9.52008 17.5 9.5C17.5 5.36426 13.5747 2 8.75 2C3.92529 2 0 5.36426 0 9.5C0 9.54077 0.006897 9.58038 0.0076294 9.62103C0.0891113 5.54517 3.97607 2.25 8.75 2.25Z" fill="white"/>
<path d="M24 15C24 11.6914 20.6357 9 16.5 9C12.3643 9 9 11.6914 9 15C9 18.3086 12.3643 21 16.5 21C17.2729 21 18.0444 20.9014 18.7969 20.708L21.2764 21.9473C21.3477 21.9824 21.4238 22 21.5 22C21.6226 22 21.7441 21.9551 21.8384 21.8682C21.9912 21.7275 22.0415 21.5068 21.9644 21.3145L21.2847 19.6162C22.9927 18.4805 24 16.7822 24 15Z" fill="#27AE4A"/>
<path opacity="0.1" d="M21.6875 21.75C21.6085 21.75 21.5294 21.7324 21.4555 21.6973L18.883 20.458C18.1024 20.6514 17.3019 20.75 16.5 20.75C13.9373 20.75 11.6671 19.7858 10.2485 18.3076C11.5927 19.9282 13.8917 21 16.5 21C17.2729 21 18.0444 20.9014 18.7969 20.708L21.2764 21.9473C21.3477 21.9824 21.4238 22 21.5 22C21.6226 22 21.7441 21.9551 21.8384 21.8682C21.8975 21.8137 21.9269 21.741 21.9539 21.6688C21.8718 21.7172 21.7819 21.75 21.6875 21.75Z" fill="#010101"/>
<path d="M14 14C14.5523 14 15 13.5523 15 13C15 12.4477 14.5523 12 14 12C13.4477 12 13 12.4477 13 13C13 13.5523 13.4477 14 14 14Z" fill="white"/>
<path d="M19 14C19.5523 14 20 13.5523 20 13C20 12.4477 19.5523 12 19 12C18.4477 12 18 12.4477 18 13C18 13.5523 18.4477 14 19 14Z" fill="white"/>
<path opacity="0.2" d="M16.5 9.25C20.5803 9.25 23.9031 11.871 23.9917 15.1185C23.9927 15.0788 24 15.0398 24 15C24 11.6914 20.6357 9 16.5 9C12.3643 9 9 11.6914 9 15C9 15.0422 9.00684 15.083 9.00793 15.125C9.09222 11.8745 12.417 9.25 16.5 9.25Z" fill="white"/>
<path d="M24 15C24 11.956 21.15 9.44025 17.4738 9.05646C17.2037 5.12756 13.4001 2 8.75 2C3.92529 2 0 5.36426 0 9.5C0 11.7207 1.11914 13.7793 3.08594 15.21L2.05273 17.2764C1.9541 17.4736 1.99609 17.7119 2.15625 17.8633C2.25146 17.9531 2.37549 18 2.5 18C2.58496 18 2.67041 17.9785 2.74805 17.9346L5.39404 16.4219C6.67749 16.8803 8.06995 17.048 9.41882 16.9592C10.437 19.3072 13.2227 21 16.5 21C17.2729 21 18.0444 20.9014 18.7969 20.708L21.2764 21.9473C21.3477 21.9824 21.4238 22 21.5 22C21.6226 22 21.7441 21.9551 21.8384 21.8682C21.9912 21.7275 22.0415 21.5068 21.9644 21.3145L21.2847 19.6162C22.9927 18.4805 24 16.7822 24 15Z" fill="url(#paint0_linear)"/>
<defs>
<linearGradient id="paint0_linear" x1="0.448393" y1="7.0945" x2="23.7108" y2="17.942" gradientUnits="userSpaceOnUse">
<stop stop-color="white" stop-opacity="0.2"/>
<stop offset="1" stop-color="white" stop-opacity="0"/>
</linearGradient>
</defs>
</svg>
