<svg width="24" height="24" viewBox="0 0 24 24" fill="none" xmlns="http://www.w3.org/2000/svg">
<path d="M12 0C5.37256 0 0 5.37256 0 12C0 14.4574 0.741516 16.7403 2.00897 18.6428L0 24L5.35724 21.991C7.25964 23.2584 9.5426 24 12 24C18.6274 24 24 18.6274 24 12C24 5.37256 18.6274 0 12 0Z" fill="#31B34A"/>
<path d="M17.7207 14.0513C17.7197 14.0508 16.4961 13.4497 15.7285 13.0552C14.8638 12.6113 13.8418 13.4453 13.3604 13.9209C12.9248 13.7515 12.0601 13.353 11.3535 12.6465C10.647 11.9399 10.2485 11.0752 10.0791 10.6396C10.5552 10.1587 11.3901 9.13916 10.9448 8.27148C10.5503 7.50391 9.94922 6.28027 9.94873 6.2793C9.86475 6.1084 9.69043 6 9.5 6H8.5C7.37451 6 6 7.38428 6 9C6 10.5703 7.87939 13.5864 9.14648 14.8535C10.4136 16.1206 13.4297 18 15 18C16.6157 18 18 16.6255 18 15.5V14.5C18 14.3096 17.8916 14.1353 17.7207 14.0513Z" fill="white"/>
<path opacity="0.2" d="M12 0.25C18.5853 0.25 23.926 5.55585 23.9937 12.125C23.9941 12.0829 24 12.0422 24 12C24 5.37256 18.6274 0 12 0C5.37256 0 0 5.37256 0 12C0 12.0482 0.0048218 12.0952 0.0053711 12.1432C0.0633545 5.56555 5.40863 0.25 12 0.25Z" fill="white"/>
<path opacity="0.1" d="M12 23.75C9.5426 23.75 7.25964 23.0084 5.35724 21.741L0.10907 23.7091L0 24L5.35724 21.991C7.25964 23.2584 9.5426 24 12 24C18.6274 24 24 18.6274 24 12C24 11.9578 23.9941 11.9171 23.9937 11.875C23.926 18.4442 18.5853 23.75 12 23.75Z" fill="#010101"/>
<path opacity="0.2" d="M11.3535 12.8965C12.0601 13.603 12.9248 14.0015 13.3604 14.1709C13.8418 13.6953 14.8638 12.8613 15.7285 13.3052C16.4961 13.6997 17.7197 14.3008 17.7207 14.3013C17.8916 14.3853 18 14.5596 18 14.75V14.5C18 14.3096 17.8916 14.1353 17.7207 14.0513C17.7197 14.0508 16.4961 13.4497 15.7285 13.0552C14.8638 12.6113 13.8418 13.4453 13.3604 13.9209C12.9248 13.7515 12.0601 13.353 11.3535 12.6465C10.7231 12.0161 10.3489 11.2762 10.1529 10.8112C10.1285 10.8367 10.102 10.8666 10.0791 10.8896C10.2485 11.3252 10.647 12.1899 11.3535 12.8965Z" fill="white"/>
<path opacity="0.2" d="M10.9448 8.27148C10.5503 7.50391 9.94922 6.28027 9.94873 6.2793C9.86475 6.1084 9.69043 6 9.5 6H8.5C7.37451 6 6 7.38428 6 9C6 9.03369 6.01257 9.07666 6.01428 9.11169C6.09076 7.55719 7.40735 6.25 8.5 6.25H9.5C9.69043 6.25 9.86475 6.3584 9.94873 6.5293C9.94922 6.53027 10.5503 7.75391 10.9448 8.52148C11.0196 8.66724 11.0479 8.81757 11.0582 8.96857C11.0871 8.73401 11.0609 8.49768 10.9448 8.27148Z" fill="white"/>
<path opacity="0.1" d="M9.14648 14.8535C10.4136 16.1206 13.4297 18 15 18C16.6157 18 18 16.6255 18 15.5V15.25C18 16.3755 16.6157 17.75 15 17.75C13.4297 17.75 10.4136 15.8706 9.14648 14.6035C7.90662 13.3636 6.0921 10.4576 6.01428 8.86169C6.01196 8.90839 6 8.95288 6 9C6 10.5703 7.87939 13.5864 9.14648 14.8535Z" fill="#010101"/>
<path d="M9.87646 6.17181L9.87323 6.19586C9.89734 6.22522 9.93152 6.24432 9.94873 6.2793C9.94922 6.28027 10.5503 7.50391 10.9448 8.27148C11.3901 9.13916 10.5552 10.1587 10.0791 10.6396C10.2485 11.0752 10.647 11.9399 11.3535 12.6465C12.0601 13.353 12.9248 13.7515 13.3604 13.9209C13.8418 13.4453 14.8638 12.6113 15.7285 13.0552C16.4961 13.4497 17.7197 14.0508 17.7207 14.0513C17.8916 14.1353 18 14.3096 18 14.5V15.5C18 16.6255 16.6157 18 15 18C13.499 18 10.6937 16.2879 9.34094 15.0297C10.9014 16.6282 15.1971 21.019 17.0914 22.8544C19.1625 21.881 20.9073 20.3383 22.1257 18.4211L9.87646 6.17181Z" fill="url(#paint0_linear)"/>
<path d="M12 0C5.37256 0 0 5.37256 0 12C0 14.4574 0.741516 16.7403 2.00897 18.6428L0 24L5.35724 21.991C7.25964 23.2584 9.5426 24 12 24C18.6274 24 24 18.6274 24 12C24 5.37256 18.6274 0 12 0Z" fill="url(#paint1_linear)"/>
<defs>
<linearGradient id="paint0_linear" x1="7.50549" y1="8.54279" x2="19.9582" y2="20.9955" gradientUnits="userSpaceOnUse">
<stop stop-color="#010101" stop-opacity="0.1"/>
<stop offset="1" stop-color="#010101" stop-opacity="0"/>
</linearGradient>
<linearGradient id="paint1_linear" x1="0.28825" y1="8.71471" x2="22.0448" y2="18.86" gradientUnits="userSpaceOnUse">
<stop stop-color="white" stop-opacity="0.2"/>
<stop offset="1" stop-color="white" stop-opacity="0"/>
</linearGradient>
</defs>
</svg>
