<svg width="24" height="24" viewBox="0 0 24 24" fill="none" xmlns="http://www.w3.org/2000/svg">
<path d="M12 24C18.6274 24 24 18.6274 24 12C24 5.37258 18.6274 0 12 0C5.37258 0 0 5.37258 0 12C0 18.6274 5.37258 24 12 24Z" fill="#303C42"/>
<path opacity="0.2" d="M12 0.25C17.3286 0.25 21.8441 3.69226 23.4706 8.47076C21.9633 3.56598 17.3988 0 12 0C6.6012 0 2.0368 3.56598 0.529419 8.47064C2.15594 3.69226 6.67139 0.25 12 0.25Z" fill="white"/>
<path opacity="0.1" d="M12 23.75C7.25491 23.75 3.16255 21.0514 1.17465 17.086C0.930214 16.5984 0.717597 16.0917 0.539497 15.5684C0.700313 16.0917 0.895812 16.5993 1.12332 17.0886C3.02824 21.1856 7.17719 24 12 24C16.6758 24 20.7214 21.3441 22.7004 17.4464C23.0064 16.8438 23.2629 16.2114 23.4648 15.5547C23.3362 15.9325 23.1895 16.3018 23.0259 16.6616C21.12 20.852 16.9073 23.75 12 23.75Z" fill="#010101"/>
<path d="M12 3.25C7.17578 3.25 3.25098 7.1748 3.25 11.999C3.25 14.146 4.19922 16.2515 5.92383 17.9263C7.89746 19.8442 9.81836 20.749 11.9941 20.749C12.4961 20.749 13.0117 20.7012 13.5439 20.606C13.6631 20.5845 13.75 20.481 13.75 20.3599V18.3193C13.75 18.2427 13.7148 18.1709 13.6553 18.123C13.5938 18.0752 13.5176 18.0576 13.4424 18.0762C11.9551 18.4272 10.5645 18.249 9.19434 17.5283C7.30176 16.5327 5.99609 14.6738 5.78613 12.6777C5.59668 10.8779 6.15332 9.15234 7.35449 7.81934C8.53809 6.50439 10.2314 5.75 12 5.75C15.0127 5.75 16.9756 7.90674 17.25 11.5C17.25 12.6245 16.877 13.2539 16.6162 13.5566L15.5703 10.4185C15.3359 9.71973 14.6846 9.25 13.9482 9.25C13.2725 9.25 12.6602 9.64844 12.3867 10.2651L11.0332 13.3101L9.73535 9.4209C9.70117 9.31885 9.60547 9.25 9.49805 9.25H7.5C7.41797 9.25 7.34082 9.29053 7.29395 9.3584C7.24707 9.42627 7.2373 9.5127 7.2666 9.58984L9.40723 15.1543C9.65918 15.8096 10.3008 16.25 11.0518 16.25C11.7275 16.25 12.3398 15.8516 12.6133 15.2349L13.9668 12.1904L14.9297 15.0815C15.1641 15.7803 15.8154 16.25 16.5518 16.25H16.9043C17.3965 16.25 17.8623 16.0415 18.1826 15.6782C18.7676 15.0137 19.75 13.5874 19.75 11.4854C19.4629 6.55957 16.3486 3.25 12 3.25Z" fill="#F3F0EB"/>
<path d="M17.6105 5.76996C18.8411 7.1972 19.6143 9.15729 19.75 11.4854C19.75 13.5874 18.7676 15.0137 18.1826 15.6782C17.8623 16.0415 17.3965 16.25 16.9043 16.25H16.5518C15.8154 16.25 15.1641 15.7803 14.9297 15.0815L13.9668 12.1904L12.6133 15.2349C12.3398 15.8516 11.7275 16.25 11.0518 16.25C10.3008 16.25 9.65918 15.8096 9.40722 15.1543L7.2666 9.58984C7.2373 9.5127 7.24707 9.42627 7.29394 9.3584C7.34082 9.29053 7.41797 9.25 7.5 9.25H9.49804C9.60547 9.25 9.70117 9.31885 9.73535 9.4209L11.0332 13.3101L12.3867 10.2651C12.6602 9.64844 13.2725 9.25 13.9482 9.25C14.6846 9.25 15.3359 9.71973 15.5703 10.4185L16.6162 13.5566C16.877 13.2539 17.25 12.6245 17.25 11.5C16.9756 7.90674 15.0127 5.75 12 5.75C10.2314 5.75 8.53808 6.50439 7.35449 7.81934C6.15332 9.15234 5.59668 10.8779 5.78613 12.6777C5.99609 14.6738 7.30176 16.5327 9.19433 17.5283C10.5645 18.249 11.9551 18.4272 13.4424 18.0762C13.5176 18.0576 13.5937 18.0752 13.6553 18.123C13.7148 18.1709 13.75 18.2427 13.75 18.3193V20.3599C13.75 20.481 13.6631 20.5845 13.5439 20.606C13.0117 20.7012 12.4961 20.749 11.9941 20.749C10.3221 20.749 8.8006 20.2089 7.29004 19.091L7.29254 19.097L12.1861 23.9906C18.6756 23.8909 23.9109 18.6459 23.9923 12.1518L17.6105 5.76996Z" fill="url(#paint0_linear)"/>
<path d="M12 24C18.6274 24 24 18.6274 24 12C24 5.37258 18.6274 0 12 0C5.37258 0 0 5.37258 0 12C0 18.6274 5.37258 24 12 24Z" fill="url(#paint1_linear)"/>
<defs>
<linearGradient id="paint0_linear" x1="7.58984" y1="7.57184" x2="20.4897" y2="20.4717" gradientUnits="userSpaceOnUse">
<stop stop-color="#010101" stop-opacity="0.1"/>
<stop offset="1" stop-color="#010101" stop-opacity="0"/>
</linearGradient>
<linearGradient id="paint1_linear" x1="1.12168" y1="6.92737" x2="22.8783" y2="17.0727" gradientUnits="userSpaceOnUse">
<stop stop-color="white" stop-opacity="0.2"/>
<stop offset="1" stop-color="white" stop-opacity="0"/>
</linearGradient>
</defs>
</svg>
