<svg width="24" height="24" viewBox="0 0 24 24" fill="none" xmlns="http://www.w3.org/2000/svg">
<g clip-path="url(#clip0)">
<path d="M9.19705 15.6373C9.68438 15.4196 10.5003 15.0554 10.5003 14.1164C10.5003 13.1774 9.68438 12.8132 9.19705 12.5955C9.01443 12.5141 8.76734 12.4103 8.47632 12.2882C7.71749 11.9688 6.67838 11.5313 5.71936 11.044C4.75642 10.5547 4.11821 10.7338 3.75247 10.9708C3.28126 11.277 3 11.8691 3 12.5538V15.679C3 16.3637 3.28126 16.9558 3.75247 17.262C3.9478 17.3891 4.22173 17.5 4.58161 17.5C4.89413 17.5 5.27158 17.4166 5.71936 17.1887C6.67838 16.7014 7.71749 16.264 8.47632 15.9445C8.76734 15.8225 9.01443 15.7187 9.19705 15.6373Z" fill="#DA1F32"/>
<path d="M12.6826 18.5512C12.6607 18.2226 12.6421 17.9438 12.624 17.7373C12.5762 17.1869 12.4961 16.2663 11.6386 15.9753H11.6377C10.7817 15.6854 10.1972 16.3812 9.84804 16.7973C9.71668 16.953 9.54529 17.1656 9.34362 17.4159C8.8182 18.069 8.09796 18.9642 7.35623 19.7628C6.6101 20.5665 6.57738 21.2532 6.6809 21.6886C6.81714 22.2584 7.25905 22.708 7.89385 22.9237L10.747 23.8891C10.9662 23.9634 11.186 24 11.3969 24C11.7876 24 12.1489 23.8749 12.4253 23.6328C12.7549 23.3449 13.1162 22.7691 12.9663 21.6612C12.8174 20.5635 12.7398 19.3996 12.6826 18.5512Z" fill="#DA1F32"/>
<path d="M19.2625 15.9945C18.2117 15.8022 17.1242 15.5194 16.3303 15.3129C16.026 15.2335 15.7672 15.1664 15.5734 15.1206C15.0568 14.9975 14.191 14.794 13.6612 15.5519H13.6607C13.1319 16.3119 13.586 17.1064 13.8575 17.5805C13.9591 17.7585 14.1002 17.9935 14.2667 18.2713C14.7003 18.9936 15.2946 19.9834 15.7956 20.9652C16.299 21.953 16.9157 22.1971 17.345 22.2287C17.3777 22.2307 17.4104 22.2328 17.4431 22.2328C17.9646 22.2328 18.4837 21.9296 18.847 21.4087L20.6107 18.8806C20.9975 18.3262 21.1034 17.6751 20.8954 17.139C20.7338 16.7239 20.3197 16.1878 19.2625 15.9945Z" fill="#DA1F32"/>
<path d="M13.6612 13.9721C13.9634 14.4045 14.3746 14.5246 14.7682 14.5246C15.0646 14.5246 15.3512 14.4564 15.5734 14.4035C15.7672 14.3577 16.026 14.2906 16.3303 14.2112C17.1242 14.0047 18.2117 13.7219 19.2625 13.5296C20.3197 13.3363 20.7338 12.8002 20.8954 12.3851C21.1034 11.849 20.9974 11.1979 20.6107 10.6434L18.847 8.11536C18.4612 7.56193 17.9001 7.26386 17.3449 7.29539C16.9157 7.32693 16.299 7.57109 15.7956 8.55892C15.2946 9.54064 14.7003 10.5305 14.2667 11.2528C14.1002 11.5305 13.9591 11.7656 13.857 11.9436C13.586 12.4177 13.1319 13.2122 13.6607 13.9721H13.6612V13.9721Z" fill="#DA1F32"/>
<path d="M9.72889 11.7666C10.0053 12.2254 10.4809 12.5001 11.0009 12.5001C11.1577 12.5001 11.311 12.4746 11.4541 12.4268C12.1074 12.2111 12.5366 11.5631 12.4985 10.851L11.9985 1.47422C11.9736 1.01439 11.7578 0.592194 11.4067 0.316497C11.061 0.0438516 10.6098 -0.0619509 10.1757 0.035713L5.67402 1.07746C5.19988 1.18937 4.80484 1.53323 4.61685 1.99916C4.42934 2.46714 4.47084 3.00225 4.72867 3.43157L9.72889 11.7666Z" fill="#DA1F32"/>
<path opacity="0.2" d="M9.19705 12.5955C9.01443 12.5141 8.76734 12.4103 8.47632 12.2882C7.71749 11.9688 6.67838 11.5313 5.71936 11.044C4.75642 10.5547 4.11821 10.7338 3.75247 10.9708C3.28126 11.277 3 11.8691 3 12.5538V12.8142C3 12.1295 3.28126 11.5374 3.75247 11.2312C4.11821 10.9942 4.75642 10.8151 5.71936 11.3045C6.67838 11.7918 7.71749 12.2292 8.47632 12.5487C8.76734 12.6708 9.01443 12.7745 9.19705 12.8559C9.66002 13.0627 10.4112 13.408 10.4859 14.2466C10.4898 14.2025 10.5003 14.1632 10.5003 14.1164C10.5003 13.1774 9.68438 12.8132 9.19705 12.5955Z" fill="white"/>
<path opacity="0.2" d="M12.9663 21.6612C12.8174 20.5635 12.7398 19.3996 12.6826 18.5512C12.6607 18.2226 12.6421 17.9438 12.624 17.7373C12.5762 17.1869 12.4961 16.2663 11.6386 15.9753H11.6377C10.7817 15.6854 10.1972 16.3812 9.84803 16.7973C9.71668 16.953 9.54529 17.1656 9.34362 17.4159C8.8182 18.069 8.09796 18.9642 7.35622 19.7628C6.7315 20.4357 6.6093 21.0244 6.64605 21.4545C6.67547 21.0586 6.84943 20.5691 7.35622 20.0233C8.09796 19.2247 8.8182 18.3294 9.34362 17.6763C9.54529 17.426 9.71668 17.2134 9.84803 17.0577C10.1972 16.6417 10.7817 15.9458 11.6377 16.2357H11.6382C12.4961 16.5267 12.5762 17.4474 12.624 17.9978C12.6421 18.2043 12.6607 18.483 12.6826 18.8116C12.7398 19.6601 12.8174 20.8239 12.9663 21.9216C12.9924 22.1143 12.9858 22.2712 12.9838 22.433C13.0062 22.2087 13.0063 21.9564 12.9663 21.6612Z" fill="white"/>
<path opacity="0.2" d="M20.8954 17.139C20.7338 16.7239 20.3197 16.1878 19.2625 15.9945C18.2117 15.8022 17.1242 15.5194 16.3303 15.3129C16.026 15.2335 15.7672 15.1664 15.5734 15.1206C15.0568 14.9975 14.191 14.794 13.6612 15.5519H13.6607C13.4488 15.8564 13.3985 16.1654 13.4272 16.4581C13.4457 16.2452 13.5108 16.0278 13.6607 15.8124H13.6612C14.191 15.0545 15.0568 15.2579 15.5734 15.381C15.7672 15.4268 16.026 15.4939 16.3303 15.5733C17.1242 15.7798 18.2117 16.0626 19.2625 16.2549C20.3197 16.4482 20.7338 16.9843 20.8954 17.3994C20.9428 17.5217 20.9693 17.6512 20.9845 17.7829C20.9933 17.5601 20.9736 17.3406 20.8954 17.139Z" fill="white"/>
<path opacity="0.2" d="M14.2667 11.5133C14.7003 10.7909 15.2946 9.80108 15.7956 8.81936C16.299 7.83153 16.9157 7.58737 17.345 7.55583C17.9002 7.52429 18.4612 7.82237 18.847 8.3758L20.6107 10.9039C20.8521 11.2498 20.9699 11.6318 20.9845 12.0016C21.0358 11.5557 20.9093 11.0714 20.6107 10.6434L18.847 8.11536C18.4612 7.56193 17.9002 7.26386 17.345 7.29539C16.9157 7.32693 16.299 7.57109 15.7956 8.55892C15.2946 9.54064 14.7003 10.5305 14.2667 11.2528C14.1002 11.5305 13.9591 11.7656 13.857 11.9436C13.6628 12.2832 13.3805 12.788 13.4272 13.3261C13.4701 12.8882 13.6946 12.4881 13.857 12.204C13.9591 12.026 14.1002 11.791 14.2667 11.5133Z" fill="white"/>
<path opacity="0.2" d="M5.67402 1.3379L10.1757 0.29615C10.6098 0.198486 11.061 0.304289 11.4067 0.576934C11.7578 0.852631 11.9736 1.27482 11.9985 1.73466L12.4893 10.9376C12.4893 10.9079 12.5001 10.8809 12.4985 10.851L11.9985 1.47422C11.9736 1.01439 11.7578 0.592194 11.4067 0.316497C11.061 0.0438516 10.6098 -0.0619509 10.1757 0.035713L5.67402 1.07746C5.19988 1.18937 4.80484 1.53323 4.61685 1.99916C4.51784 2.24619 4.48678 2.51126 4.51357 2.7703C4.52346 2.59685 4.55099 2.42403 4.61685 2.2596C4.80484 1.79366 5.19988 1.4498 5.67402 1.3379Z" fill="white"/>
<path opacity="0.1" d="M9.19705 15.6373C9.55077 15.4793 10.0742 15.2407 10.3365 14.7646C10.0407 15.0716 9.63061 15.2509 9.33298 15.3769C9.14023 15.4582 8.87941 15.562 8.57221 15.6841C7.77121 16.0035 6.67442 16.441 5.66211 16.9283C5.18943 17.1562 4.79104 17.2396 4.46113 17.2396C4.08129 17.2396 3.79209 17.1287 3.58597 17.0015C3.47549 16.9335 3.37893 16.8467 3.28932 16.7525C3.41182 16.9575 3.56161 17.1379 3.75248 17.262C3.9478 17.3891 4.22174 17.5 4.58162 17.5C4.89413 17.5 5.27159 17.4166 5.71936 17.1887C6.67839 16.7014 7.7175 16.264 8.47632 15.9445C8.76735 15.8225 9.01443 15.7187 9.19705 15.6373Z" fill="#010101"/>
<path opacity="0.1" d="M11.4485 23.7396C11.2306 23.7396 11.0037 23.703 10.7773 23.6287L7.83098 22.6633C7.27639 22.4808 6.87769 22.1249 6.67871 21.6765C6.67957 21.6803 6.67999 21.6848 6.68091 21.6887C6.81714 22.2584 7.25906 22.708 7.89385 22.9237L10.747 23.8891C10.9663 23.9634 11.186 24 11.3969 24C11.7876 24 12.1489 23.8749 12.4253 23.6328C12.6073 23.4738 12.7898 23.2138 12.8997 22.8382C12.7877 23.0707 12.6503 23.2541 12.5104 23.3723C12.225 23.6145 11.8519 23.7396 11.4485 23.7396Z" fill="#010101"/>
<path opacity="0.1" d="M18.9106 21.1483C18.5332 21.6691 17.994 21.9723 17.4522 21.9723C17.4183 21.9723 17.3843 21.9703 17.3503 21.9682C16.9044 21.9367 16.2637 21.6925 15.7408 20.7047C15.2203 19.723 14.6029 18.7331 14.1525 18.0108C13.9795 17.7331 13.833 17.4981 13.7274 17.3201C13.6976 17.2699 13.665 17.2144 13.6324 17.1575C13.7064 17.3154 13.7878 17.4588 13.8575 17.5805C13.9591 17.7585 14.1002 17.9935 14.2667 18.2713C14.7003 18.9936 15.2946 19.9834 15.7956 20.9652C16.299 21.953 16.9157 22.1971 17.345 22.2287C17.3777 22.2307 17.4104 22.2327 17.4431 22.2327C17.9646 22.2327 18.4837 21.9296 18.847 21.4087L20.6107 18.8806C20.7131 18.7338 20.7928 18.58 20.8552 18.4235C20.817 18.489 20.7887 18.5569 20.7428 18.6202L18.9106 21.1483Z" fill="#010101"/>
<path opacity="0.1" d="M19.3423 13.2692C18.2506 13.4615 17.121 13.7443 16.2962 13.9508C15.9801 14.0301 15.7113 14.0973 15.5099 14.1431C15.2791 14.196 14.9814 14.2641 14.6734 14.2641C14.2646 14.2641 13.8375 14.1441 13.5235 13.7117H13.523C13.5149 13.7005 13.5117 13.6891 13.504 13.6778C13.5419 13.776 13.5926 13.8744 13.6607 13.9722H13.6612C13.9635 14.4045 14.3746 14.5246 14.7682 14.5246C15.0646 14.5246 15.3512 14.4564 15.5734 14.4035C15.7672 14.3577 16.026 14.2906 16.3303 14.2112C17.1242 14.0047 18.2117 13.7219 19.2625 13.5296C20.3025 13.3394 20.7187 12.818 20.8859 12.4059C20.6506 12.7554 20.2035 13.1176 19.3423 13.2692Z" fill="#010101"/>
<path opacity="0.1" d="M11.5464 12.1664C11.3989 12.2142 11.2407 12.2396 11.0791 12.2396C10.5428 12.2396 10.0523 11.965 9.76729 11.5061L4.61368 3.1759C4.64682 3.26314 4.68009 3.35069 4.72867 3.43157L9.72889 11.7666C10.0053 12.2254 10.4809 12.5001 11.0009 12.5001C11.1577 12.5001 11.311 12.4746 11.4541 12.4268C11.9075 12.2771 12.2405 11.9129 12.3967 11.4699C12.2078 11.7903 11.9181 12.0474 11.5464 12.1664Z" fill="#010101"/>
<path d="M12.6826 18.5512C12.6607 18.2226 12.6421 17.9438 12.624 17.7373C12.5762 17.1869 12.4961 16.2663 11.6387 15.9753H11.6377C10.7817 15.6853 10.1972 16.3812 9.84801 16.7973C9.71666 16.953 9.54528 17.1656 9.34363 17.4159C8.81819 18.0689 8.09794 18.9642 7.3562 19.7628C6.61007 20.5665 6.57736 21.2532 6.68093 21.6886C6.81716 22.2583 7.25904 22.708 7.89384 22.9237L10.747 23.8891C10.9663 23.9634 11.186 24 11.3969 24C11.7876 24 12.1489 23.8749 12.4253 23.6328C12.7549 23.3449 13.1163 22.7691 12.9663 21.6612C12.8174 20.5634 12.7398 19.3996 12.6826 18.5512ZM9.19703 15.6373C9.68438 15.4196 10.5003 15.0554 10.5003 14.1164C10.5003 13.1774 9.68438 12.8131 9.19703 12.5954C9.01441 12.5141 8.76735 12.4103 8.47628 12.2882C7.71752 11.9688 6.67837 11.5313 5.71935 11.044C4.75643 10.5547 4.11821 10.7337 3.75249 10.9708C3.28126 11.277 3.00002 11.8691 3.00002 12.5537V15.679C3.00002 16.3637 3.28126 16.9557 3.75249 17.2619C3.9478 17.3891 4.22172 17.5 4.58163 17.5C4.89412 17.5 5.27161 17.4166 5.71935 17.1887C6.67837 16.7014 7.71752 16.2639 8.47628 15.9445C8.76735 15.8224 9.01441 15.7187 9.19703 15.6373ZM9.72887 11.7666C10.0053 12.2254 10.4809 12.5 11.0009 12.5C11.1577 12.5 11.311 12.4746 11.454 12.4268C12.1074 12.2111 12.5366 11.5631 12.4986 10.851L11.9985 1.47421C11.9736 1.01437 11.7578 0.592192 11.4067 0.316496C11.061 0.0438519 10.6098 -0.061983 10.1757 0.0356732L5.674 1.07742C5.1999 1.18936 4.80483 1.53323 4.61685 1.99917C4.42935 2.46713 4.47086 3.00223 4.72866 3.43155L9.72887 11.7666ZM19.2625 15.9945C18.2117 15.8022 17.1242 15.5194 16.3303 15.3128C16.026 15.2335 15.7673 15.1663 15.5734 15.1206C15.0568 14.9975 14.191 14.794 13.6612 15.5519H13.6607C13.1319 16.3119 13.586 17.1064 13.8575 17.5805C13.9591 17.7585 14.1002 17.9935 14.2667 18.2713C14.7003 18.9936 15.2945 19.9834 15.7956 20.9651C16.299 21.953 16.9157 22.1971 17.345 22.2287C17.3777 22.2307 17.4104 22.2328 17.4431 22.2328C17.9646 22.2328 18.4837 21.9296 18.847 21.4087L20.6107 18.8806C20.9974 18.3262 21.1034 17.6751 20.8954 17.1389C20.7338 16.7239 20.3197 16.1878 19.2625 15.9945ZM13.6612 13.9721C13.9635 14.4045 14.3746 14.5246 14.7682 14.5246C15.0646 14.5246 15.3512 14.4564 15.5734 14.4035C15.7673 14.3577 16.026 14.2906 16.3303 14.2112C17.1242 14.0047 18.2117 13.7219 19.2625 13.5296C20.3197 13.3363 20.7338 12.8001 20.8954 12.3851C21.1034 11.849 20.9974 11.1978 20.6107 10.6434L18.847 8.11532C18.4612 7.56192 17.9001 7.26382 17.345 7.29538C16.9157 7.32693 16.299 7.57107 15.7956 8.55893C15.2946 9.54062 14.7003 10.5305 14.2667 11.2528C14.1002 11.5305 13.9591 11.7655 13.857 11.9436C13.586 12.4176 13.1319 13.2122 13.6607 13.9721H13.6612V13.9721Z" fill="url(#paint0_linear)"/>
</g>
<defs>
<linearGradient id="paint0_linear" x1="3.00002" y1="12" x2="21" y2="12" gradientUnits="userSpaceOnUse">
<stop stop-color="white" stop-opacity="0.2"/>
<stop offset="1" stop-color="white" stop-opacity="0"/>
</linearGradient>
<clipPath id="clip0">
<rect width="24" height="24" fill="white"/>
</clipPath>
</defs>
</svg>
