<svg width="24" height="24" viewBox="0 0 24 24" fill="none" xmlns="http://www.w3.org/2000/svg">
<path d="M20.9341 3.67318L19.0352 3.43584C14.3838 2.85472 9.61621 2.85472 4.96484 3.43584L3.06592 3.67318C1.31787 3.89195 0 5.3853 0 7.14675V16.8511C0 18.6125 1.31787 20.1058 3.06592 20.3246L4.96484 20.562C7.29053 20.8525 9.65771 21 12 21C14.3423 21 16.7095 20.8525 19.0352 20.562L20.9341 20.3246C22.6821 20.1058 24 18.6125 24 16.8511V7.14675C24 5.3853 22.6821 3.89195 20.9341 3.67318Z" fill="#EE3325"/>
<path opacity="0.2" d="M20.9341 3.67529L19.0352 3.43799C14.3838 2.85693 9.61621 2.85693 4.96484 3.43799L3.06592 3.67529C1.31787 3.89404 0 5.38721 0 7.14844V7.39844C0 5.63721 1.31787 4.14404 3.06592 3.92529L4.96484 3.68799C9.61621 3.10693 14.3838 3.10693 19.0352 3.68799L20.9341 3.92529C22.6821 4.14404 24 5.63721 24 7.39844V7.14844C24 5.38721 22.6821 3.89404 20.9341 3.67529Z" fill="white"/>
<path opacity="0.1" d="M20.9341 20.0732L19.0352 20.3105C16.7095 20.601 14.3423 20.7484 12 20.7484C9.65771 20.7484 7.29053 20.601 4.96484 20.3105L3.06592 20.0732C1.31787 19.8544 0 18.3612 0 16.6V16.85C0 18.6112 1.31787 20.1044 3.06592 20.3232L4.96484 20.5605C7.29053 20.851 9.65771 20.9984 12 20.9984C14.3423 20.9984 16.7095 20.851 19.0352 20.5605L20.9341 20.3232C22.6821 20.1044 24 18.6112 24 16.85V16.6C24 18.3612 22.6821 19.8544 20.9341 20.0732Z" fill="#010101"/>
<path d="M9.5 7.5V16.5L16.5 12L9.5 7.5Z" fill="white"/>
<path d="M9.5 7.5V12H16.5L9.5 7.5Z" fill="url(#paint0_linear)"/>
<path d="M16.5 12L9.5 16.5L13.9395 20.9395C15.6434 20.8809 17.3495 20.7726 19.0352 20.562L20.9341 20.3247C21.9451 20.1982 22.8019 19.6378 23.3534 18.8534L16.5 12Z" fill="url(#paint1_linear)"/>
<path d="M20.9341 3.67318L19.0352 3.43584C14.3838 2.85472 9.61621 2.85472 4.96484 3.43584L3.06592 3.67318C1.31787 3.89195 0 5.3853 0 7.14675V16.8511C0 18.6125 1.31787 20.1058 3.06592 20.3246L4.96484 20.562C7.29053 20.8525 9.65771 21 12 21C14.3423 21 16.7095 20.8525 19.0352 20.562L20.9341 20.3246C22.6821 20.1058 24 18.6125 24 16.8511V7.14675C24 5.3853 22.6821 3.89195 20.9341 3.67318Z" fill="url(#paint2_linear)"/>
<defs>
<linearGradient id="paint0_linear" x1="9" y1="8" x2="14.75" y2="13.75" gradientUnits="userSpaceOnUse">
<stop stop-color="#010101" stop-opacity="0"/>
<stop offset="1" stop-color="#010101" stop-opacity="0.1"/>
</linearGradient>
<linearGradient id="paint1_linear" x1="12.375" y1="13.625" x2="20.5165" y2="21.7665" gradientUnits="userSpaceOnUse">
<stop stop-color="#010101" stop-opacity="0.1"/>
<stop offset="1" stop-color="#010101" stop-opacity="0"/>
</linearGradient>
<linearGradient id="paint2_linear" x1="-0.0117152" y1="6.39775" x2="24.0117" y2="17.6001" gradientUnits="userSpaceOnUse">
<stop stop-color="white" stop-opacity="0.2"/>
<stop offset="1" stop-color="white" stop-opacity="0"/>
</linearGradient>
</defs>
</svg>
