<svg viewBox="0 0 179 179" fill="none" xmlns="http://www.w3.org/2000/svg">
<path d="M0.28772 23.9877C0.28772 15.8698 0.28772 11.8109 1.81731 8.68863C3.28183 5.69918 5.69918 3.28183 8.68863 1.81731C11.8109 0.28772 15.8698 0.28772 23.9877 0.28772H154.724C162.842 0.28772 166.901 0.28772 170.024 1.81731C173.013 3.28183 175.43 5.69918 176.895 8.68863C178.424 11.8109 178.424 15.8698 178.424 23.9877V154.724C178.424 162.842 178.424 166.901 176.895 170.024C175.43 173.013 173.013 175.43 170.024 176.895C166.901 178.424 162.842 178.424 154.724 178.424H23.9877C15.8698 178.424 11.8109 178.424 8.68863 176.895C5.69918 175.43 3.28183 173.013 1.81731 170.024C0.28772 166.901 0.28772 162.842 0.28772 154.724V23.9877Z" fill="#F7DF1E"/>
<path d="M47.1264 149.152L60.7587 140.902C63.3886 145.565 65.781 149.51 71.5195 149.51C77.0203 149.51 80.4883 147.358 80.4883 138.989V82.0697H97.2286V139.225C97.2286 156.564 87.0652 164.456 72.2372 164.456C58.8455 164.456 51.072 157.52 47.1261 149.15" fill="black"/>
<path d="M106.321 147.358L119.952 139.466C123.54 145.326 128.204 149.63 136.454 149.63C143.39 149.63 147.813 146.162 147.813 141.379C147.813 135.639 143.27 133.606 135.617 130.259L131.433 128.465C119.355 123.324 111.343 116.867 111.343 103.235C111.343 90.6792 120.909 81.1127 135.856 81.1127C146.499 81.1127 154.152 84.8199 159.651 94.5057L146.618 102.876C143.748 97.7342 140.639 95.7018 135.857 95.7018C130.954 95.7018 127.845 98.8107 127.845 102.876C127.845 107.898 130.954 109.931 138.128 113.04L142.313 114.834C156.542 120.933 164.554 127.15 164.554 141.14C164.554 156.207 152.716 164.457 136.813 164.457C121.268 164.457 111.223 157.044 106.322 147.358" fill="black"/>
</svg>
