<?xml version="1.0" ?><!DOCTYPE svg  PUBLIC '-//W3C//DTD SVG 1.1//EN'  'http://www.w3.org/Graphics/SVG/1.1/DTD/svg11.dtd'><svg height="512px" style="enable-background:new 0 0 512 512;" version="1.1" viewBox="0 0 512 512" width="512px" xml:space="preserve" xmlns="http://www.w3.org/2000/svg" xmlns:xlink="http://www.w3.org/1999/xlink"><g id="_x31_94-laravel"><g><g><path d="M484.212,245.62c-3.018-3.45-45.132-56.127-52.535-65.038c-7.4-8.912-11.066-7.332-15.594-6.685     c-4.599,0.647-57.853,9.63-64.031,10.637c-6.182,1.078-10.063,3.521-6.253,8.839c3.377,4.743,38.375,54.403,46.138,65.326     L252.73,292.045L141.914,106.989c-4.385-6.539-5.318-8.838-15.38-8.336c-10.061,0.431-86.886,6.827-92.349,7.331     c-5.461,0.431-11.498,2.875-6.036,15.81c5.462,12.937,92.707,200.939,95.151,206.399c2.443,5.462,8.767,14.375,23.571,10.781     c15.164-3.665,67.77-17.393,96.517-24.938c15.163,27.523,46.14,83.292,51.887,91.27c7.619,10.708,12.937,8.913,24.651,5.319     c9.199-2.804,143.443-51.1,149.481-53.541c6.036-2.517,9.773-4.242,5.677-10.35c-3.018-4.455-38.447-51.889-56.988-76.753     c12.721-3.377,57.923-15.379,62.738-16.745C486.513,251.8,487.304,249.069,484.212,245.62L484.212,245.62z M231.101,297.363     c-1.654,0.359-79.629,19.045-83.797,19.979c-4.169,0.936-4.169,0.504-4.672-0.934c-0.502-1.438-92.707-191.667-94.001-194.039     c-1.293-2.373-1.222-4.241,0-4.241c1.223,0,73.664-6.467,76.179-6.612c2.587-0.143,2.299,0.432,3.234,2.012     c0,0,102.192,176.359,103.918,179.452C233.83,296.07,232.753,297.003,231.101,297.363z M451.011,338.616     c1.221,1.939,2.515,3.231-1.438,4.599c-3.882,1.438-132.019,44.63-134.462,45.705c-2.516,1.078-4.456,1.438-7.617-3.232     c-3.162-4.672-44.846-76.753-44.846-76.753l135.685-35.287c3.378-1.078,4.456-1.798,6.611,1.58     C407.028,278.678,449.788,336.675,451.011,338.616z M459.707,242.243c-3.02,0.646-52.895,13.007-52.895,13.007l-40.748-55.913     c-1.148-1.652-2.084-3.234,0.791-3.594c2.874-0.358,49.155-8.766,51.241-9.198c2.081-0.504,3.878-1.078,6.467,2.443     c2.588,3.521,37.802,48.15,39.167,49.876C465.024,240.517,462.725,241.523,459.707,242.243L459.707,242.243z" style="fill:#F35045;"/></g></g></g><g id="Layer_1"/></svg>