<?xml version="1.0" ?><!DOCTYPE svg  PUBLIC '-//W3C//DTD SVG 1.1//EN'  'http://www.w3.org/Graphics/SVG/1.1/DTD/svg11.dtd'><svg enable-background="new 0 0 128 128" id="Social_Icons" version="1.1" viewBox="0 0 128 128" xml:space="preserve" xmlns="http://www.w3.org/2000/svg" xmlns:xlink="http://www.w3.org/1999/xlink"><g id="_x35__stroke"><g id="Photoshop_1_"><rect clip-rule="evenodd" fill="none" fill-rule="evenodd" height="128" width="128"/><path clip-rule="evenodd" d="M27.927,28.905c0-0.41,0.815-0.703,1.28-0.703    c3.724-0.176,9.251-0.293,15.011-0.293c16.116,0,22.4,8.902,22.4,20.264c0,14.876-10.705,21.26-23.854,21.26    c-2.211,0-2.967-0.117-4.538-0.117v22.49c0,0.468-0.175,0.703-0.698,0.703h-8.902c-0.465,0-0.698-0.176-0.698-0.703L27.927,28.905    L27.927,28.905z M38.284,60.004c1.338,0.117,2.386,0.117,4.713,0.117c6.808,0,13.207-2.401,13.207-11.713    c0-7.438-4.596-11.186-12.335-11.186c-2.327,0-4.538,0.117-5.586,0.176V60.004z M88.32,53.034c-4.596,0-6.167,2.343-6.167,4.275    c0,2.108,1.047,3.573,7.215,6.794c9.134,4.451,11.985,8.726,11.985,14.993c0,9.371-7.098,14.407-16.698,14.407    c-5.062,0-9.426-1.054-11.927-2.518c-0.407-0.176-0.465-0.468-0.465-0.937v-8.609c0-0.586,0.291-0.762,0.698-0.468    c3.665,2.401,7.854,3.455,11.694,3.455c4.596,0,6.516-1.933,6.516-4.568c0-2.108-1.338-3.982-7.215-7.028    c-8.262-3.982-11.694-8.024-11.694-14.759c0-7.555,5.877-13.822,16.058-13.822c5.004,0,8.495,0.761,10.415,1.64    c0.465,0.293,0.582,0.761,0.582,1.171v8.024c0,0.468-0.291,0.762-0.873,0.586C95.884,54.03,92.102,53.034,88.32,53.034z M6,0h116    c3.314,0,6,2.686,6,6v116c0,3.314-2.686,6-6,6H6c-3.314,0-6-2.686-6-6V6C0,2.686,2.686,0,6,0z" fill="#2861D3" fill-rule="evenodd" id="Photoshop"/></g></g></svg>