<?xml version="1.0" ?><!DOCTYPE svg  PUBLIC '-//W3C//DTD SVG 1.1//EN'  'http://www.w3.org/Graphics/SVG/1.1/DTD/svg11.dtd'><svg height="512px" style="enable-background:new 0 0 512 512;" version="1.1" viewBox="0 0 512 512" width="512px" xml:space="preserve" xmlns="http://www.w3.org/2000/svg" xmlns:xlink="http://www.w3.org/1999/xlink"><g id="_x32_88-sass"><g><g><path d="M422.009,281.793c-16.096,0.071-30.035,3.952-41.675,9.701c-4.24-8.553-8.624-16.025-9.343-21.629     c-0.86-6.54-1.796-10.419-0.789-18.179c1.007-7.762,5.532-18.756,5.461-19.545c-0.071-0.79-1.006-4.743-10.275-4.815     c-9.269-0.071-17.244,1.796-18.179,4.239c-0.936,2.443-2.73,7.977-3.808,13.725c-1.653,8.407-18.54,38.443-28.097,54.107     c-3.161-6.106-5.819-11.497-6.395-15.808c-0.862-6.54-1.796-10.419-0.79-18.179c1.006-7.762,5.532-18.756,5.46-19.545     c-0.072-0.79-1.006-4.743-10.274-4.815c-9.27-0.071-17.244,1.796-18.18,4.24c-0.934,2.442-1.94,8.191-3.808,13.726     c-1.867,5.53-24.359,55.541-30.251,68.548c-3.019,6.609-5.604,11.927-7.473,15.521c-0.286,0.574-0.502,0.934-0.646,1.222     c0.215-0.359,0.36-0.72,0.36-0.574c-1.581,3.088-2.516,4.813-2.516,4.813v0.071c-1.222,2.299-2.587,4.382-3.233,4.382     c-0.432,0-1.365-6.034,0.216-14.298c3.376-17.389,11.352-44.404,11.28-45.34c-0.072-0.503,1.508-5.173-5.246-7.689     c-6.538-2.371-8.91,1.582-9.484,1.582s-1.006,1.438-1.006,1.438s7.258-30.467-13.94-30.467     c-13.221,0-31.615,14.516-40.668,27.665c-5.677,3.09-17.965,9.772-30.898,16.885c-4.958,2.731-10.06,5.532-14.874,8.192     c-0.359-0.361-0.647-0.72-1.006-1.079c-25.724-27.447-73.22-46.848-71.207-83.711c0.718-13.437,5.389-48.716,91.327-91.542     c70.418-35.065,126.751-25.436,136.453-4.024c13.938,30.539-30.109,87.376-103.256,95.566     c-27.88,3.09-42.537-7.688-46.202-11.711c-3.809-4.239-4.384-4.456-5.821-3.665c-2.372,1.293-0.862,5.03,0,7.257     c2.156,5.676,11.137,15.736,26.443,20.766c13.435,4.383,46.13,6.827,85.649-8.479c44.406-17.102,78.969-64.742,68.837-104.62     C303.809,85.2,236.625,71.906,173.034,94.468c-37.867,13.437-78.824,34.563-108.285,62.082     c-34.993,32.767-40.597,61.292-38.299,73.221c8.192,42.321,66.537,69.914,89.89,90.32c-1.15,0.647-2.228,1.222-3.233,1.797     c-11.712,5.819-56.19,29.1-67.328,53.677c-12.573,27.879,2.083,47.853,11.712,50.585c30.035,8.334,60.789-6.683,77.316-31.33     c16.525-24.645,14.514-56.836,6.898-71.495c-0.073-0.215-0.216-0.357-0.287-0.575c3.017-1.795,6.106-3.592,9.197-5.388     c5.963-3.521,11.784-6.756,16.885-9.556c-2.875,7.761-4.958,17.098-6.036,30.609c-1.293,15.807,5.246,36.286,13.725,44.334     c3.735,3.521,8.262,3.594,11.065,3.594c9.916,0,14.37-8.193,19.328-17.965c6.108-11.93,11.497-25.798,11.497-25.798     s-6.754,37.511,11.712,37.511c6.754,0,13.51-8.695,16.526-13.15v0.071c0,0,0.145-0.286,0.504-0.86     c0.718-1.079,1.077-1.726,1.077-1.726v-0.217c2.73-4.67,8.695-15.377,17.675-33.052c11.642-22.851,22.778-51.378,22.778-51.378     s1.006,6.972,4.457,18.54c2.011,6.826,6.25,14.299,9.627,21.557c-2.729,3.736-4.383,5.892-4.383,5.892s0,0.071,0.07,0.143     c-2.155,2.876-4.597,5.966-7.112,8.984c-9.198,10.921-20.12,23.425-21.556,27.017c-1.726,4.24-1.294,7.399,2.012,9.844     c2.442,1.869,6.754,2.155,11.28,1.797c8.264-0.577,14.084-2.587,16.886-3.883c4.454-1.578,9.629-4.095,14.515-7.615     c8.982-6.609,14.444-16.094,13.939-28.597c-0.287-6.898-2.516-13.797-5.246-20.262c0.791-1.151,1.654-2.374,2.444-3.593     c14.229-20.769,25.222-43.544,25.222-43.544s1.006,6.968,4.454,18.537c1.725,5.821,5.102,12.216,8.191,18.466     c-13.365,10.851-21.627,23.427-24.502,31.688c-5.318,15.306-1.15,22.202,6.682,23.786c3.521,0.718,8.551-0.936,12.288-2.517     c4.67-1.581,10.275-4.096,15.52-7.976c8.982-6.609,17.677-15.88,17.103-28.454c-0.217-5.677-1.797-11.353-3.881-16.814     c11.28-4.741,25.941-7.33,44.622-5.173c40.023,4.67,47.854,29.675,46.345,40.093c-1.507,10.492-9.914,16.241-12.717,17.965     c-2.804,1.725-3.665,2.372-3.448,3.665c0.358,1.868,1.651,1.797,4.022,1.364c3.307-0.574,20.982-8.479,21.771-27.808     C487.108,308.45,463.613,281.578,422.009,281.793L422.009,281.793z M113.538,385.766c-13.22,14.443-31.759,19.904-39.734,15.305     c-8.551-4.956-5.174-26.226,11.137-41.604c9.916-9.34,22.706-17.962,31.185-23.279c1.94-1.149,4.743-2.874,8.192-4.958     c0.575-0.357,0.862-0.502,0.862-0.502c0.646-0.433,1.365-0.791,2.084-1.223C133.226,351.349,127.478,370.605,113.538,385.766     L113.538,385.766z M210.111,320.091c-4.599,11.28-14.3,40.023-20.19,38.514c-5.03-1.294-8.121-23.209-1.006-44.764     c3.592-10.851,11.208-23.784,15.736-28.813c7.256-8.121,15.232-10.708,17.101-7.474     C224.266,281.793,212.984,313.05,210.111,320.091L210.111,320.091z M289.868,358.176c-1.939,1.005-3.736,1.651-4.598,1.148     c-0.646-0.359,0.791-1.725,0.791-1.725s9.986-10.706,13.939-15.594c2.299-2.873,4.957-6.251,7.832-9.986     c0,0.357,0.07,0.719,0.07,1.148C307.833,346.031,295.474,354.727,289.868,358.176z M351.377,344.163     c-1.437-1.006-1.223-4.383,3.592-14.875c1.869-4.096,6.181-10.993,13.652-17.604c0.863,2.73,1.365,5.316,1.365,7.759     C369.913,335.611,358.346,341.647,351.377,344.163L351.377,344.163z" style="fill:#CF649A;"/></g></g></g><g id="Layer_1"/></svg>