<svg width="1000" height="1000" viewBox="0 0 1000 1000" fill="none" xmlns="http://www.w3.org/2000/svg">
<path d="M800 866.667H200C126.667 866.667 66.6666 806.667 66.6666 733.333V266.667C66.6666 193.333 126.667 133.333 200 133.333H800C873.333 133.333 933.333 193.333 933.333 266.667V733.333C933.333 806.667 873.333 866.667 800 866.667Z" fill="#A576FF" stroke="#A576FF" stroke-width="2" stroke-miterlimit="10" stroke-linecap="round" stroke-linejoin="round"/>
<path d="M800 866.667H200C126.667 866.667 66.6666 806.667 66.6666 733.333V266.667C66.6666 193.333 126.667 133.333 200 133.333H800C873.333 133.333 933.333 193.333 933.333 266.667V733.333C933.333 806.667 873.333 866.667 800 866.667Z" fill="#6EBAFF" stroke="#6EBAFF" stroke-width="2" stroke-miterlimit="10" stroke-linecap="round" stroke-linejoin="round"/>
<path d="M200 866.667H800C873.333 866.667 933.333 806.667 933.333 733.333V500L800 366.667L453.333 686.667L300 533.333L66.6666 746.667C76.6666 813.333 130 866.667 200 866.667Z" fill="#5189E5" stroke="#5189E5" stroke-width="2" stroke-miterlimit="10" stroke-linecap="round" stroke-linejoin="round"/>
<path d="M233.333 400C270.152 400 300 370.152 300 333.333C300 296.514 270.152 266.667 233.333 266.667C196.514 266.667 166.667 296.514 166.667 333.333C166.667 370.152 196.514 400 233.333 400Z" fill="#E3FAFF" stroke="#E3FAFF" stroke-width="2" stroke-miterlimit="10" stroke-linecap="round" stroke-linejoin="round"/>
</svg>
