<?xml version="1.0" ?><svg id="Layer_1" style="enable-background:new 0 0 242.9 242.9;" version="1.1" viewBox="0 0 242.9 242.9" xml:space="preserve" xmlns="http://www.w3.org/2000/svg" xmlns:xlink="http://www.w3.org/1999/xlink"><style type="text/css">
	.st0{fill:#DA4B9A;}
</style><path class="st0" d="M157.5,123c0.1,1.3,0.1,2.6,0.1,3.8v17.1c0,1.6-0.1,3-0.5,4c-1.3,4.5-3.8,5.7-5.9,5.7c-4.9,0-8.2-6.5-8.2-18.8  c0-10.4,2.2-19.3,8.3-19.3C154.8,115.5,156.9,119.1,157.5,123z M242.9,42v159c0,23.2-18.8,42-42,42H42c-23.2,0-42-18.8-42-42V42  C0,18.8,18.8,0,42,0h159C224.1,0,242.9,18.8,242.9,42z M122.1,166.7l-17.6-44.8l16.7-44.3h-17.3l-4.5,16.3  c-1.2,4.9-2.2,9.1-3.7,14.5h-0.3c-1.5-5-2.6-9.7-4.1-14.3l-5.2-16.5H68l16,43.5l-16.7,45.6h17.2l4.8-16.1c1.3-5,2.8-10.4,4.2-16.1  h0.3c1.6,5.7,3,10.7,4.8,15.9l5.7,16.4H122.1z M175.5,166.7c-0.3-5.9-0.5-13-0.5-19.2V75.2h-17.3v32.3h-0.3  c-1.6-3.7-5.2-6.5-10.8-6.5c-11,0-20.8,11-20.8,33.5c0,18.1,6.3,33.3,20.1,33.3c5.9,0,11.1-3.8,13.5-8.3h0.3l0.9,7.3H175.5z"/></svg>
